<mxfile host="app.diagrams.net" modified="2024-04-03T16:15:44.831Z" agent="Mozilla/5.0 (Windows NT 10.0; Win64; x64) AppleWebKit/537.36 (KHTML, like Gecko) Chrome/123.0.0.0 Safari/537.36" etag="dgp9_OocawTYKjECpGSO" version="24.2.0" type="onedrive">
  <diagram name="Platform" id="sN-CJYv1kWKGGDMk4VqK">
    <mxGraphModel dx="3695" dy="2741" grid="1" gridSize="10" guides="1" tooltips="1" connect="1" arrows="1" fold="1" page="1" pageScale="1" pageWidth="827" pageHeight="1169" math="0" shadow="0">
      <root>
        <mxCell id="0" />
        <mxCell id="1" parent="0" />
        <UserObject label="" id="_H5qRs6Hh-SQ7Uu5_9nw-122">
          <mxCell style="rounded=1;whiteSpace=wrap;html=1;labelBackgroundColor=none;sketch=1;fillStyle=solid;strokeColor=#CC6600;strokeWidth=2;fontFamily=Helvetica;fontSize=28;fontColor=#808080;fillColor=none;gradientColor=none;" parent="1" vertex="1">
            <mxGeometry x="770" y="-527.5" width="350" height="365" as="geometry" />
          </mxCell>
        </UserObject>
        <mxCell id="_H5qRs6Hh-SQ7Uu5_9nw-1" value="&lt;font face=&quot;Caveat&quot; style=&quot;font-size: 36px;&quot;&gt;Customer Infrastructure&lt;/font&gt;" style="rounded=1;whiteSpace=wrap;html=1;fillColor=#f5f5f5;fontColor=#4D4D4D;strokeColor=#666666;fontSize=36;fontStyle=1;sketch=1;curveFitting=1;jiggle=2;strokeWidth=3;fillStyle=solid;" parent="1" vertex="1">
          <mxGeometry x="-240" y="990" width="1600" height="80" as="geometry" />
        </mxCell>
        <mxCell id="_H5qRs6Hh-SQ7Uu5_9nw-3" value="&lt;font color=&quot;#cc6600&quot; face=&quot;Caveat&quot; style=&quot;font-size: 36px;&quot;&gt;Utility Plane&lt;/font&gt;" style="rounded=1;whiteSpace=wrap;html=1;fillColor=#FFCC99;strokeColor=#CC6600;fontSize=36;fontStyle=1;verticalAlign=bottom;fontColor=#CC6600;strokeWidth=3;align=center;fontFamily=Helvetica;sketch=1;fillStyle=solid;" parent="1" vertex="1">
          <mxGeometry x="-240" y="380" width="1600" height="490" as="geometry" />
        </mxCell>
        <mxCell id="_H5qRs6Hh-SQ7Uu5_9nw-4" value="&lt;font style=&quot;font-size: 36px;&quot; face=&quot;Caveat&quot;&gt;Product Plane&lt;/font&gt;" style="rounded=1;whiteSpace=wrap;html=1;fillColor=#FFCC99;strokeColor=#CC6600;fontSize=36;fontStyle=1;verticalAlign=bottom;fontColor=#CC6600;strokeWidth=3;sketch=1;fillStyle=solid;align=center;fontFamily=Helvetica;" parent="1" vertex="1">
          <mxGeometry x="-240" y="80" width="1600" height="180" as="geometry" />
        </mxCell>
        <mxCell id="_H5qRs6Hh-SQ7Uu5_9nw-5" value="&lt;font style=&quot;font-size: 30px;&quot;&gt;Observer API&lt;br style=&quot;font-size: 30px;&quot;&gt;&lt;/font&gt;" style="rounded=1;whiteSpace=wrap;html=1;fontFamily=Caveat;fontSize=30;fillColor=#FF8000;strokeColor=#CC6600;sketch=1;curveFitting=1;jiggle=2;fontColor=#4D4D4D;fontStyle=1;align=center;verticalAlign=middle;fillStyle=hachure;labelBorderColor=none;" parent="1" vertex="1">
          <mxGeometry x="480" y="418.5" width="160" height="80" as="geometry" />
        </mxCell>
        <mxCell id="_H5qRs6Hh-SQ7Uu5_9nw-6" value="&lt;font style=&quot;font-size: 30px;&quot;&gt;Validator API&lt;/font&gt;" style="rounded=1;whiteSpace=wrap;html=1;fontFamily=Caveat;fontSize=30;fillColor=#FF8000;strokeColor=#CC6600;sketch=1;curveFitting=1;jiggle=2;fontColor=#4D4D4D;fontStyle=1;align=center;verticalAlign=middle;fillStyle=hachure;labelBorderColor=none;" parent="1" vertex="1">
          <mxGeometry x="990" y="418.5" width="160" height="80" as="geometry" />
        </mxCell>
        <mxCell id="_H5qRs6Hh-SQ7Uu5_9nw-7" value="Executor API" style="rounded=1;whiteSpace=wrap;html=1;fontFamily=Caveat;fontSize=30;fillColor=#FF8000;strokeColor=#CC6600;sketch=1;curveFitting=1;jiggle=2;fontColor=#4D4D4D;fontStyle=1;align=center;verticalAlign=middle;fillStyle=hachure;labelBorderColor=none;" parent="1" vertex="1">
          <mxGeometry x="-40" y="418.5" width="160" height="80" as="geometry" />
        </mxCell>
        <mxCell id="_H5qRs6Hh-SQ7Uu5_9nw-8" value="Blueprint" style="rounded=1;whiteSpace=wrap;html=1;fontFamily=Caveat;fontSize=30;fillColor=#FF8000;strokeColor=#CC6600;sketch=1;curveFitting=1;jiggle=2;fontColor=#4D4D4D;fontStyle=1;fillStyle=hachure;align=center;verticalAlign=middle;labelBorderColor=none;" parent="1" vertex="1">
          <mxGeometry x="-200" y="120" width="160" height="80" as="geometry" />
        </mxCell>
        <mxCell id="_H5qRs6Hh-SQ7Uu5_9nw-9" value="Registry" style="rounded=1;whiteSpace=wrap;html=1;fontFamily=Caveat;fontSize=30;fillColor=#FF8000;strokeColor=#CC6600;sketch=1;curveFitting=1;jiggle=2;fontColor=#4D4D4D;fontStyle=1;fillStyle=hachure;align=center;verticalAlign=middle;labelBorderColor=none;" parent="1" vertex="1">
          <mxGeometry x="70" y="120" width="160" height="80" as="geometry" />
        </mxCell>
        <mxCell id="_H5qRs6Hh-SQ7Uu5_9nw-10" value="Policy" style="rounded=1;whiteSpace=wrap;html=1;fontFamily=Caveat;fontSize=30;fillColor=#FF8000;strokeColor=#CC6600;sketch=1;curveFitting=1;jiggle=2;fontColor=#4D4D4D;fontStyle=1;fillStyle=hachure;align=center;verticalAlign=middle;labelBorderColor=none;" parent="1" vertex="1">
          <mxGeometry x="340" y="120" width="160" height="80" as="geometry" />
        </mxCell>
        <mxCell id="_H5qRs6Hh-SQ7Uu5_9nw-11" value="DevOps" style="rounded=1;whiteSpace=wrap;html=1;fontFamily=Caveat;fontSize=30;fillColor=#FF8000;strokeColor=#CC6600;sketch=1;curveFitting=1;jiggle=2;fontColor=#4D4D4D;fontStyle=1;fillStyle=hachure;align=center;verticalAlign=middle;labelBorderColor=none;" parent="1" vertex="1">
          <mxGeometry x="610" y="120" width="160" height="80" as="geometry" />
        </mxCell>
        <mxCell id="_H5qRs6Hh-SQ7Uu5_9nw-12" value="Notification" style="rounded=1;whiteSpace=wrap;html=1;fontFamily=Caveat;fontSize=30;fillColor=#FF8000;strokeColor=#CC6600;sketch=1;curveFitting=1;jiggle=2;fontColor=#4D4D4D;fontStyle=1;fillStyle=hachure;align=center;verticalAlign=middle;labelBorderColor=none;" parent="1" vertex="1">
          <mxGeometry x="880" y="120" width="160" height="80" as="geometry" />
        </mxCell>
        <mxCell id="_H5qRs6Hh-SQ7Uu5_9nw-17" value="" style="group;strokeColor=none;" parent="1" connectable="0" vertex="1">
          <mxGeometry x="-180" y="30" width="25" height="90" as="geometry" />
        </mxCell>
        <mxCell id="_H5qRs6Hh-SQ7Uu5_9nw-18" value="" style="endArrow=none;html=1;rounded=1;sketch=1;strokeColor=#CC6600;strokeWidth=3;fontFamily=Helvetica;fontSize=22;fontColor=#994C00;align=center;verticalAlign=bottom;fontStyle=1;fillColor=#ffe6cc;" parent="_H5qRs6Hh-SQ7Uu5_9nw-17" target="_H5qRs6Hh-SQ7Uu5_9nw-19" edge="1">
          <mxGeometry width="50" height="50" relative="1" as="geometry">
            <mxPoint x="10" y="90" as="sourcePoint" />
            <mxPoint x="2" y="14" as="targetPoint" />
          </mxGeometry>
        </mxCell>
        <mxCell id="_H5qRs6Hh-SQ7Uu5_9nw-19" value="" style="ellipse;whiteSpace=wrap;html=1;aspect=fixed;labelBackgroundColor=none;sketch=1;fillStyle=solid;fontFamily=Helvetica;fontSize=22;fillColor=#FFCC99;strokeColor=#CC6600;strokeWidth=3;gradientColor=none;rounded=1;align=center;verticalAlign=bottom;fontColor=#994C00;fontStyle=1;container=0;" parent="_H5qRs6Hh-SQ7Uu5_9nw-17" vertex="1">
          <mxGeometry width="25" height="25" as="geometry" />
        </mxCell>
        <mxCell id="_H5qRs6Hh-SQ7Uu5_9nw-24" value="&lt;font color=&quot;#4d4d4d&quot; style=&quot;font-size: 30px;&quot; data-font-src=&quot;https://fonts.googleapis.com/css?family=Caveat&quot; face=&quot;Caveat&quot;&gt;&lt;b style=&quot;font-size: 30px;&quot;&gt;/init&lt;/b&gt;&lt;/font&gt;" style="text;html=1;strokeColor=none;fillColor=none;align=center;verticalAlign=middle;whiteSpace=wrap;rounded=0;labelBackgroundColor=none;sketch=0;fillStyle=auto;fontSize=30;" parent="1" vertex="1">
          <mxGeometry x="-211.25" y="-10" width="87.5" height="30" as="geometry" />
        </mxCell>
        <mxCell id="_H5qRs6Hh-SQ7Uu5_9nw-25" value="&lt;font color=&quot;#4d4d4d&quot; style=&quot;font-size: 30px;&quot; data-font-src=&quot;https://fonts.googleapis.com/css?family=Caveat&quot; face=&quot;Caveat&quot;&gt;&lt;b style=&quot;font-size: 30px;&quot;&gt;/read&lt;/b&gt;&lt;/font&gt;" style="text;html=1;strokeColor=none;fillColor=none;align=center;verticalAlign=middle;whiteSpace=wrap;rounded=0;labelBackgroundColor=none;sketch=0;fillStyle=auto;fontSize=30;" parent="1" vertex="1">
          <mxGeometry x="-111.25" y="-10" width="87.5" height="30" as="geometry" />
        </mxCell>
        <mxCell id="_H5qRs6Hh-SQ7Uu5_9nw-29" value="" style="group" parent="1" connectable="0" vertex="1">
          <mxGeometry x="-141" y="37" width="47" height="7" as="geometry" />
        </mxCell>
        <mxCell id="_H5qRs6Hh-SQ7Uu5_9nw-26" value="" style="ellipse;whiteSpace=wrap;html=1;aspect=fixed;labelBackgroundColor=none;fillStyle=solid;fontFamily=Helvetica;fontSize=22;fillColor=#FFCC99;strokeColor=#CC6600;strokeWidth=1;gradientColor=none;rounded=1;align=center;verticalAlign=bottom;fontColor=#994C00;fontStyle=1;container=0;" parent="_H5qRs6Hh-SQ7Uu5_9nw-29" vertex="1">
          <mxGeometry x="20" width="7" height="7" as="geometry" />
        </mxCell>
        <mxCell id="_H5qRs6Hh-SQ7Uu5_9nw-27" value="" style="ellipse;whiteSpace=wrap;html=1;aspect=fixed;labelBackgroundColor=none;fillStyle=solid;fontFamily=Helvetica;fontSize=22;fillColor=#FFCC99;strokeColor=#CC6600;strokeWidth=1;gradientColor=none;rounded=1;align=center;verticalAlign=bottom;fontColor=#994C00;fontStyle=1;container=0;" parent="_H5qRs6Hh-SQ7Uu5_9nw-29" vertex="1">
          <mxGeometry width="7" height="7" as="geometry" />
        </mxCell>
        <mxCell id="_H5qRs6Hh-SQ7Uu5_9nw-28" value="" style="ellipse;whiteSpace=wrap;html=1;aspect=fixed;labelBackgroundColor=none;fillStyle=solid;fontFamily=Helvetica;fontSize=22;fillColor=#FFCC99;strokeColor=#CC6600;strokeWidth=1;gradientColor=none;rounded=1;align=center;verticalAlign=bottom;fontColor=#994C00;fontStyle=1;container=0;" parent="_H5qRs6Hh-SQ7Uu5_9nw-29" vertex="1">
          <mxGeometry x="40" width="7" height="7" as="geometry" />
        </mxCell>
        <mxCell id="_H5qRs6Hh-SQ7Uu5_9nw-37" value="&lt;font color=&quot;#4d4d4d&quot; style=&quot;font-size: 30px;&quot; data-font-src=&quot;https://fonts.googleapis.com/css?family=Caveat&quot; face=&quot;Caveat&quot;&gt;&lt;b style=&quot;font-size: 30px;&quot;&gt;/publish&lt;/b&gt;&lt;/font&gt;" style="text;html=1;strokeColor=none;fillColor=none;align=center;verticalAlign=middle;whiteSpace=wrap;rounded=0;labelBackgroundColor=none;sketch=0;fillStyle=auto;fontSize=30;" parent="1" vertex="1">
          <mxGeometry x="60" y="-10" width="87.5" height="30" as="geometry" />
        </mxCell>
        <mxCell id="_H5qRs6Hh-SQ7Uu5_9nw-38" value="&lt;font color=&quot;#4d4d4d&quot; style=&quot;font-size: 30px;&quot; data-font-src=&quot;https://fonts.googleapis.com/css?family=Caveat&quot; face=&quot;Caveat&quot;&gt;&lt;b style=&quot;font-size: 30px;&quot;&gt;/search&lt;/b&gt;&lt;/font&gt;" style="text;html=1;strokeColor=none;fillColor=none;align=center;verticalAlign=middle;whiteSpace=wrap;rounded=0;labelBackgroundColor=none;sketch=0;fillStyle=auto;fontSize=30;" parent="1" vertex="1">
          <mxGeometry x="160" y="-10" width="87.5" height="30" as="geometry" />
        </mxCell>
        <mxCell id="_H5qRs6Hh-SQ7Uu5_9nw-60" value="&lt;font color=&quot;#4d4d4d&quot; style=&quot;font-size: 30px;&quot; data-font-src=&quot;https://fonts.googleapis.com/css?family=Caveat&quot; face=&quot;Caveat&quot;&gt;&lt;b style=&quot;font-size: 30px;&quot;&gt;/create&lt;/b&gt;&lt;/font&gt;" style="text;html=1;strokeColor=none;fillColor=none;align=center;verticalAlign=middle;whiteSpace=wrap;rounded=0;labelBackgroundColor=none;sketch=0;fillStyle=auto;fontSize=30;" parent="1" vertex="1">
          <mxGeometry x="330" y="-10" width="87.5" height="30" as="geometry" />
        </mxCell>
        <mxCell id="_H5qRs6Hh-SQ7Uu5_9nw-61" value="&lt;font color=&quot;#4d4d4d&quot; style=&quot;font-size: 30px;&quot; data-font-src=&quot;https://fonts.googleapis.com/css?family=Caveat&quot; face=&quot;Caveat&quot;&gt;&lt;b style=&quot;font-size: 30px;&quot;&gt;/validate&lt;/b&gt;&lt;/font&gt;" style="text;html=1;strokeColor=none;fillColor=none;align=center;verticalAlign=middle;whiteSpace=wrap;rounded=0;labelBackgroundColor=none;sketch=0;fillStyle=auto;fontSize=30;" parent="1" vertex="1">
          <mxGeometry x="430" y="-10" width="87.5" height="30" as="geometry" />
        </mxCell>
        <mxCell id="_H5qRs6Hh-SQ7Uu5_9nw-72" value="&lt;font color=&quot;#4d4d4d&quot; style=&quot;font-size: 30px;&quot; data-font-src=&quot;https://fonts.googleapis.com/css?family=Caveat&quot; face=&quot;Caveat&quot;&gt;&lt;b style=&quot;font-size: 30px;&quot;&gt;/build&lt;/b&gt;&lt;/font&gt;" style="text;html=1;strokeColor=none;fillColor=none;align=center;verticalAlign=middle;whiteSpace=wrap;rounded=0;labelBackgroundColor=none;sketch=0;fillStyle=auto;fontSize=30;" parent="1" vertex="1">
          <mxGeometry x="600" y="-10" width="87.5" height="30" as="geometry" />
        </mxCell>
        <mxCell id="_H5qRs6Hh-SQ7Uu5_9nw-77" value="&lt;font color=&quot;#4d4d4d&quot; style=&quot;font-size: 30px;&quot; data-font-src=&quot;https://fonts.googleapis.com/css?family=Caveat&quot; face=&quot;Caveat&quot;&gt;&lt;b style=&quot;font-size: 30px;&quot;&gt;/deploy&lt;/b&gt;&lt;/font&gt;" style="text;html=1;strokeColor=none;fillColor=none;align=center;verticalAlign=middle;whiteSpace=wrap;rounded=0;labelBackgroundColor=none;sketch=0;fillStyle=auto;fontSize=30;" parent="1" vertex="1">
          <mxGeometry x="700" y="-10" width="87.5" height="30" as="geometry" />
        </mxCell>
        <mxCell id="_H5qRs6Hh-SQ7Uu5_9nw-84" value="&lt;font style=&quot;font-size: 30px;&quot; face=&quot;Caveat&quot; color=&quot;#4d4d4d&quot;&gt;&lt;b style=&quot;font-size: 30px;&quot;&gt;/listen&lt;/b&gt;&lt;/font&gt;" style="text;html=1;strokeColor=none;fillColor=none;align=center;verticalAlign=middle;whiteSpace=wrap;rounded=0;labelBackgroundColor=none;sketch=0;fillStyle=auto;fontSize=30;" parent="1" vertex="1">
          <mxGeometry x="848.75" y="-10" width="127.5" height="30" as="geometry" />
        </mxCell>
        <mxCell id="_H5qRs6Hh-SQ7Uu5_9nw-89" value="&lt;font color=&quot;#4d4d4d&quot; style=&quot;font-size: 30px;&quot; data-font-src=&quot;https://fonts.googleapis.com/css?family=Caveat&quot; face=&quot;Caveat&quot;&gt;&lt;b style=&quot;font-size: 30px;&quot;&gt;/dispatch&lt;/b&gt;&lt;/font&gt;" style="text;html=1;strokeColor=none;fillColor=none;align=center;verticalAlign=middle;whiteSpace=wrap;rounded=0;labelBackgroundColor=none;sketch=0;fillStyle=auto;fontSize=30;" parent="1" vertex="1">
          <mxGeometry x="970" y="-10" width="87.5" height="30" as="geometry" />
        </mxCell>
        <mxCell id="_H5qRs6Hh-SQ7Uu5_9nw-90" style="edgeStyle=orthogonalEdgeStyle;curved=1;rounded=0;sketch=1;orthogonalLoop=1;jettySize=auto;html=1;entryX=0;entryY=0.5;entryDx=0;entryDy=0;strokeColor=#666666;strokeWidth=1;fontFamily=Helvetica;fontSize=21;fontColor=#808080;dashed=1;fillColor=#f5f5f5;endArrow=block;endFill=1;exitX=0.5;exitY=1;exitDx=0;exitDy=0;endSize=10;curveFitting=1;jiggle=2;" parent="1" source="_H5qRs6Hh-SQ7Uu5_9nw-91" target="_H5qRs6Hh-SQ7Uu5_9nw-19" edge="1">
          <mxGeometry relative="1" as="geometry">
            <Array as="points">
              <mxPoint x="-30" y="-262" />
              <mxPoint x="-30" y="-116" />
              <mxPoint x="-220" y="-116" />
              <mxPoint x="-220" y="42" />
            </Array>
            <mxPoint x="118.75" y="-78" as="targetPoint" />
          </mxGeometry>
        </mxCell>
        <mxCell id="_H5qRs6Hh-SQ7Uu5_9nw-91" value="" style="ellipse;whiteSpace=wrap;html=1;aspect=fixed;sketch=1;fillStyle=solid;strokeColor=#CC6600;strokeWidth=3;fillColor=#FFCC99;rounded=1;align=center;verticalAlign=bottom;fontFamily=Helvetica;fontSize=22;fontColor=#CC6600;fontStyle=1;" parent="1" vertex="1">
          <mxGeometry x="-75.91" y="-432.5" width="170" height="170" as="geometry" />
        </mxCell>
        <UserObject label="" link="https://dpds.opendatamesh.org/concepts/data-product-descriptor/" id="_H5qRs6Hh-SQ7Uu5_9nw-92">
          <mxCell style="html=1;verticalLabelPosition=bottom;align=center;labelBackgroundColor=#ffffff;verticalAlign=top;strokeWidth=2;strokeColor=#CC6600;shadow=0;dashed=0;shape=mxgraph.ios7.icons.document;sketch=1;fillStyle=auto;fillColor=#FF8000;gradientColor=none;" parent="1" vertex="1">
            <mxGeometry x="-33.41" y="-397.5" width="85" height="100" as="geometry" />
          </mxCell>
        </UserObject>
        <mxCell id="_H5qRs6Hh-SQ7Uu5_9nw-93" value="" style="shape=image;verticalLabelPosition=bottom;labelBackgroundColor=default;verticalAlign=top;aspect=fixed;imageAspect=0;image=data:image/png,iVBORw0KGgoAAAANSUhEUgAAAbsAAAGyCAYAAAB9ZmrWAAAts3pUWHRSYXcgcHJvZmlsZSB0eXBlIGV4aWYAAHjarZxpdhw5koT/4xR9BOzLcbC+NzeY489niBBFUZSqe2ZKJZFMZkYAcHdzM4cjzP7v/zrmX//6l3PWexNTqbnlbPkvtth855tqn/+er87G++/9b4z3O/fr62b491t9DXwNzy/yfr66zuvp5wdKfF8fv75uyny+8fW90PuLHxcMurPnm/d99b1Q8M/r7v3ZtPdzPX6azvv3TH9/ncbzq68/x8JirMT1gjd+Bxcs/1bdJeivD53X3P1Xb3L3lRAy/6bgv1878/Htl8U7/R3hl7Wz/X1H+HUpjM3vG/KXNXpfd+n7tbsr9HlEzn5Y7ZdfnOp/LN/va3dWPWc/s+sxs1LZvJOy7yXud7yR5Yzhfizzp/A38X25fxp/KlOcWGxhzcGfaVxznjU9Lrrlujtu36/TTYYY/faFr95PH+5rNRTf/AwyQdQfd3wJLSwTKjaZWC3wsv8Yi7v3bfd+01XuvBzv9I6LuWvZL3/Mdy/+b/58XOgcuS7xV6/p3WNgL69hGLKc/uVdGMSdd03TXd/7x3yY9ed/MmzAgukuc2WC3Y7nEiO5n74Vrp0D70s2GvuEhivrvQBLxL0Tg8G7o7PZheSys8X74hzrWLFPZ+Q+RD+wgEvJL2cOtsH7MU71ujefKe6+1yf/vAy0YIhEiBRM00LHWDEm/KfEig/1FFI0KaWcSqqppZ5DjjnlnEsWRvUSSiyp5FJKLa30GmqsqeZaaq2t9uZbAMJSy62YVltrvXPTzqU7n+68o/fhRxhxpJFHGXW00SfuM+NMM88y62yzL7/CIvxXXsWsutrq221caceddt5l1912P/jaCSeedPIpp552+ofVXqv+ajX3xXJ/t5p7rSaLxfu+8tNqvFzKj0s4wUmSzbCYjw6LF1kAh/ayma0uRi/LyWa2eYIieazmkoyznCyGBeN2Ph33Ybuflvur3UyK/5Hd/J8sZ2S6/w/LGZnutdzvdvvGaqvfjBKugRSFWlMbDsDGG3btvnblpN+/jhxmWNulVcpMTJE7x7CCL2M1V/ZpmMtHU5qNdc1dbB8MqzhZoU67c+Vme4xKEJGH5sF4dXeCcI3JIJkS7jHSWbPjBCa7MXJzrk4u7io/VqzvRuH6rMIZ4YCK4POuqfvTUmnbu1bOSAym2MVq2L6GiXkd32Zee/hsuVDL0w8bZk9lKCcXC8yng1E3cGT9jD6NUsdeo7c2XR5ntJhIkL3kvfA1V89avU0Gg5eVkm0L1dUFntczAxfhf1s3s8RYqa+SFxi9nFt7ko5SLiyJj3vZHd3EVBoi6TgwznLTclgzhrwsrhBmxZ/zWKlVBhoL3jNkeIPRcJPgZ8feY43dw0jxhFjaaPn0libuVEIaMezE6FaZrt2VB8UCV9laL9aIl/0qLi+SEt5q05qpx7hL7seuA57GMsdsrlk/Jku5D/4UwsEg0/ljNwuWt/FlRc+M4/IlRVaPz5Cextihpcp4GjNvFpewpSU/SGqxrZVibMfnhHv5UvuZxpbtw7E5kTdXLnHjR9Vik7r3DqdtlhxDZjdlA9jPXqESID7aTgyQc+S7e5pACtQU0iLJpm0PCVGR0ljT7gMBdlpwwxM/vohe4Xa4ViyHIPYJ8yxcxB2T9uCu+VSy2WKNEh8+C6+Ly2HV0dyOxGlMK1blmLJjvowjAFJtKKO71SMIiSkbyXEd28YMXJRw2gf8a/4UACb6ng+M8rA+JMSRvd1g6nQn5UnEjlpDWtvgu9nht4RTIASqcCMOq+F0oMcCVy0XuO4cAcuF0TFiTnWnNlbNF1eJZRAS6+jj2xGWtcdWQNrkNigHGNUsTzkux3DmjHxbp4bTcFGM4UaoO+L+sJG1dgZjG3HmOuESGambdrJIB+wIMflZQszD41t91xkI2UgM4Kq+4kpy5BSqmc3vPEBOoOEOriwtupNTYaJdfWydRa8ON+eHzLqT9vldLoDVdkChbZMLETnYgQHIZ2XBmndfOwldaw+tW9aYKbtZu2syHpOLbiv5V1ancvMxjgHmV8DlS5osubB1BBwtHGJ4rwZ2hEMCgGMPQgYcwDs8y3Jww+7jabC4DmibDEIUTabgcrPKuQf/OX7ctebMqPqsiSSFI+qKkClWJxYfFgv3w7W9+fHN374OR5pypfUGHpKbMsYJi/+IzQU9dK4140QaQbCETeFs11RaKfL7Aji8wMyNTbpyiTQUgRYLsozWmCA4tpTFtdhOH/Lk1bb5O7dFUiRFXo1nutJdqX5EDBsWUAMCs5yZpWNcnsWaQn47AkQLz8K3oyMkbY6KwArCuHEwb2439A6es+DKkWx9MEDeGzOy8qwatrx2NAw7JZIRNJscFO0pZTEE1gWwZt3LgjdPHG2vPvda5HQyUuEfXB1ox80CX6MBbXzum+jM+Cgu6JaHFcx6do7k1WcY9XRIQuwAUnE7tyFckS8mz4JZ2IHh41BgULGCpG2uRPbDrhlC0KdghIxP7IMexHUZ2OK0BXnp/eAd4AOXcguEHDWcXZp3+CDI0Gfr5PDJbOM6Y0RXJhwLVFrkTt/jWPj9AeM7kA8irwjKBL9Nz36X4U8EKEWqiLQF/BOXnnGBAaGBUCmIagB9ECOigvCNa5Lixyr4yvAVVhuF6cTDOsA55oFOrVpAdSgal/YdGsJi4YjnBOzQSWggfw5ckCSARAFjfDOzerJMgcNs8Z+1Nx9rA0DeEZvg0jtdL9XcQmgtFvLx6X1zcXiPI2AAum2OaDtQWktnNRBGwCvJdoBcScAeO6EcGUSyE7wCKCD2R+pgZkYA3kEe8FaT6lysFutXo8/kSqiys0Rjw4H24QpetKbXTQpiccQDZqqwVC5MQkuVxDYjMJJ6Y1FIFbgyJhSpC9OFTYIvABccEA8rLPoELBZYTg4CEnvywDZwHGYhlgas1hZSLVbuQ2Rqkoz6IUnjJERNyquHzHJv/k0tSBTi544xbay/qrJjGSkbgD11kgK3XqAQqXnDgI/vWsuikgEDOhGwBkYgGN7i41l56np0UEACucXU1hlh5FIhbWgLwA9ewIxJ/mAzQQXLJREgoXQPQPIok3OJ0CthIZQCVbYhBfhpMSnJV8OwifkTBfJtrC3n5mLryhALUZoBUm4rTBRuXmBtLDuODmGfcy5IGDIO+sCQM0GaMhAERYEmjcaLoAGi4QygmKWEv6SEJsD9KoQLL2JxTWFlIbstSmeQllN3m+nGI6w+ybJwfI+D8uaRqlgf02R6iTFtSBmfUCoxXCcS5CTjzUBZBThkWLYMwjQpmbIWOBzs4oSEQwt6/YE0u+vUZMFOmnGLoBU0MLsw5RzE6YBpYiPYaE1T/iTHGaLHhHL10hdTOY1MgguPTUDABw1GIiAjhEbOjVXbSQyXEXpoXBWKVDjdhr6A9bxKEN2CV4LwL/CFiYLhndyPqTtcuUIfiFHJKuJA2oNIRVttfIkQg4SQdHG343qxTaWMiZptEteEHglyFPfGqOQ2qeCNUQ/cguI3RhkNsSP1dAbJJRdRUJEp5BSMH2ToJibkRhOkF7LDGSxIUhrA/TwDS4yOON+wSKgC1JhxgTTtrCopgfeDYmFMYARSBdghIeD/CzaAH6W1pMWyEh0ZKpEeynLACsuSvv/qzIYP2IjlYj+Y6aDNJDngH8dj3IJa8/YS6tMIUhLmQR0VYJAsRCY9yoQeYPNrZTgioMVSgUZ8HqQPds89TgFY0U3gHjDIwKL+J+OQ9PtuUEDd8pCna4H6oasQhrYuYgtVPIhi9O5AVMe1IfUBHoderDNXIjiNemdDKLpV77ySqpHm/SYRgzUFMcyM2yC0GlobWo30J30zK2TcsZhLyRT1Mn05BCgchOU7R1I0Ouhtq5ZMWbP38PSNgqoylAKQ8N45IeZIAT7dddCtUFsoE5yQOWSMY7DLBiOgWoFwTyRtzbvZsxAvUq8MEq45pcvh8agZePkAt/sM3MehTUnceRn3GDBNEvPPGT9f8cARs6p3FekOCfJyUNFzMsVBYZJnkzTNbmgR5u8KsQdzROphTxCH0MRmUilk0UMGaAcESGQs+A2WKKTPSvQyurOhSjZnmH8lO01SMOjKiGV2zQ9icEQuwB750CKeufaBcAsXud8V3XoPHoh0MOjljTwruCIRClJPNCVc5/wDswSzAhKM9NAINUs62gswJ2Lk2uTtIbJVMb0AjGWIl0UiqxmVh7UMxtUZBnz5kzuebX5xxxVA4We4XqJ6FVUMu0NcZJbRj3AvWzoDBregl+eo/NJtMo/JkKG/hyPiGePcy+aAngFTD5Iiw5Z/eCSjfn3S3OFdn0z3+q3DTAbuYpEHoFYByg6eDj8D8ll6WBuk1+KZC6n+8ar5+XLMejsaggu0lvgtUXVifLwqW0TUFz9T4eVU4UFO5jAshpyVTmFRKlqwKhOB070MCvwh8lBOp9y6TpwkGtgMJAmAOXO5hcfPaICMcYPCV/Q2xhoW8sclkCUAa/k3vKoJv02B330Z8KevifQGI7LzcmeCGXQlJ7MycwmhW86EkPeIY1ggwEX6gfbibiJQ/maoC4oa6bewCPFEViHVVKjaaHgwu2gOLEkc0EQuLhXIu5qNPqmMASIhfmHAoUBVPFIBH8Dpdm/xqm253jaP55Hrru8RAa/3QWYd3J0Fz6yMJ+FqaTv3PmSVQsyTU7xijuTmL7DlDz91109fKP3ipKAndAEGA2ur0DjxzRgWSICIlIQAmVDrhGGKcXWURMkWFpq8NCY32LhZqXm6lJHrovwNsuTmHQtEzuM/e6xh4FtTxCHAsEHB7NdGWYUANYIMcS1I6ajAMksLyYtwcbAG7EW6cznVRRB5ZRnfoXYg7IAr82fPA99GaULsJuRo4iqnFZnoBITKEQavA89FYlTxYBABTHMG6oM/9ZxI+A3ih1CuIJYLdqXMchziDhGEUOZCQ1kqAawIGQCfVQn4UZazGVXI4M8b/5WTDLQcmLsS5AzahSJNEMSCXOM9Mk9D4VicKGZ3WSBhiiBI3eAEm9TKunANVWoILi483IR5b0SRIyQHAIcglRzot5qZwPHlyclDhWUkwTIvIQRlVSvQjkISQkLYhB/41dldQpEICWiQ5FEVDgYvMD0I1inXQDkYUNoiXQK2V2WGnLLxDDwKO20GqdoYbpMyWaOiAhrKu2sbqMNcHdxea1oyU4MESgYry+IiRIM2ky7CD3LP/Kj/fgsxkyVUrOUK9YMqRLyZ+LHR9hmLVRGg5rFYzluUhZIySqgXwuBiNtA4haLDSdkia8oxR2sinz0qbSXddzl4LTwJjxZklk06uckDxbj5rLDyZD4C6UmSIth8mga7wiWqn9qYS5Lm6AKoYOPCy3FB1TPJ+Yq/7tD+JA2WC0XkCmwvkRXRxIQICmbBerNYr6JCmdiragv8V3QMjsIifsLp7NF0HvoOdUQOciES3jCD8TFZrzVilUEfFTewjvZb0e3gGlzXIosi6g+2D/9FJYzhmCdao0y/O9zWLO7REELgWL91+czU2hH1CAI5bWAQ7YhElSslEO2AtuE5AFascQLsBIn40d0TD1MA+Ow0l2fDBpEG5W7KynhiKMRzXHB3TLTR58iCWAE4aAo8dBmV5FgNfNVFiCc/XFEqHjTACRQnXpMyOjKgmxrqv2ckA2NbIzXskieeFrepJGIVlTZXLJe3FkgovGsio4j04Z+iy53BXiwggyBvauckeYfWnTCGDBlFtU6k0k6wMsiUldmhnfj1uhUX9JJgDCU3JRKDiineMzulOsJwJG0QJSNcbBGK6TumkVJhQUj/aE3JigkDBYgEPwA/Dk4UoOvtYjjonZQFNn3PYVTHBOqq5GeBhyO05/AdBajKPRpun4DXZEGPgzQ6EiK67TAFx/LAlcICupwh5ecOq18nzY0DK9ZJn/gAtBKzc0l+gzkKV0fgOlQu4MZdVGaLw+KygEo1XFlaObimuj+wFFXzqLia6j0QX1inVs8N1thefQmfByVadYjpLXK3cTNzZSo3A39tREVzY4a0b+Cy3lO6kqhWUUHbPdiSxBiyY/D9kNB6Z0yM0wRWEQDjslZVVSKTaUKP+/VSic4rYAayjKSD4bbY/mzVe4iKkH2rXjGMSsDhpi2SBbIBju8TfKHPstMCmoPe1pDcZSbhXpMrBKJl45/47MErj9uGPFF2gbQhYyoRiPCYiuuhssVW+R9JCEEiYzvlELtxVRwOZ2grDpwB4TgaI6qOQFwX+fy8jtkuyF3o15olDIf24p/ka5Wk0C6mn87l0q6MAe8TF8KvirauZYehlQ2jkYtY5qiCCvN7Uro2Gd3mJ5UNwWUYV/FT8YIsXOg14K7DyIakcwNhtyoKdfoUwGoH6VPhvTwvk/WDlj1PaMIilQOI4DZs0iTk97whAb7r0lX0ZTJsZsr6Y/HiqrYktAfJLIgbVA/0hNxAEldGBNa7wQoiKATI0BaTgAGZScxlYMICXIEU3WflF0hZZS5SNHwtP94AfWt52tYMMYU7NNwhXAaDcVtWTQwtBcye536aJZC6CGfIEGloC5cgZVcfqchtrnKdHv2bfbMgytFN8WJcxi1yBuGvaXuVqgSXQ0pgkqiU60kFJ8XFkA1wwoph7DwBBH+L+yraanjMhxUMXAaCBYw3EBAO2BKBOInRu6mnvSg+aIbNoxHFuEK4vGBDQxExXpNp0DfYAOS4wAAnyRH/iF0+WSJeAQuqkeyAdDOXjMmyQhEUN36moitZ1Y+ZQ1jaalMJcApggZmy7oBTv1VfL992cBKTYVjyR1y7Qb1I/AyMZSJ8GKpHMnWARJsm6lm4/k98uOz7yPgYsv3uKWvnmFU8qoSXUBZcry9tJUHuXSxRtBZtELQzS55ENMHCiBKV2FhXbKNSDpkmQrR6WUQu3jDAI9Ek7U0SJDYnT+gpmoY7DLSvrEkUUgQD7EpbaGGwLS9ETS4BP1Iso6Gs3FrhTNJkcKBhVg0YdyHlkTzEbkaKrjSlyJQj3BymBQmsxgERA42SQZfq1q2acpsC756SEsxGWxcHPgV9hokkdR+IzwnBLQvuYMpHZWgxqzkB8CE8hz+SdDejUSnSw/CdmGmP5PuJuOPSEl54gurjquxP2RdxXLTL8Nah64DETrtLU5JZBYNFFRQmtrmbCAQqeMXiYAKnlDbHFfZ2myxujD+sASkmMaGnB2KfxABA+A7fLtGTsSMujb1UWSd7dBCT1AazH9rB76GbgEg4aO/BLDqmr9iYdB+VVkEpdwlPJi6JjqEWNW1s2qyE29GSqocxqhQNklK8sjpt6xaL5LCo9Vt9VK0O+e7/XHz8VHs0/6fi46fao/m3io/47rsJq31v2MGzCesB6B67txBQc3dhrdz03YWFLlvutTc4AcZG2L3TVjrcFxglhw1CBluEvNFUmHZg4TQMGVDtBMBnEe8uHfhol9dDiFB8fR/pAkDLq/YGKVtObRagNdIMr8UXtCFlIKV5gy6wXuk8FWy0MXdJVK53d9+/ZG55ErrK40qXGRvd3QTG6iISIqnJkKzox1tsq67XD01cyLO2g+FMTntydoRh4bfgR0eXq9wmKQX9Msg91YlIFirpDNQ8QHG2UpUSKUT6oNBxaXuzPmGD2ofwLITWtXDBx3Bes1SuXJn4xlYFGo4obqg+BDmyFwUFcEDLCIkpCg7ww9ueCgGZ6KkUIOqSifwDUcYVE0IfDo8v+0seyLQHnkaM7hUBqHa0A/RICRRlafFzFcV8LquoRsS4SFsiPUHwG1PTPjfu/WyOpW0l3gshBEqtu1d01MNhCDVtzka1Yojsk9IYdNsYRUVSkGjeElhSHlMy9IAHuILPakukRGEikGNUWZ24174NWAvBwqi7yjUVW1YEVEo2bpSSdq9VBSXHiE/OW1Eq6hBSKdbAPlKaKtS7hvojAEHeC21w8YOi0yzbj9IzieOjEBtwLS6sPcl197JRDwDwhLKiuLTrBuiL8HuIB+KnLURCYh2CEiuThXDNLmnt1G3AKLQvjcziV66uPIFk8AvrF3SBtkaHmnierdHMEsLGtBGrsk1BQdjyVJnzmvLDbK4bag9wQPARixA98Iy0hbVRqAR30w6N7PRtPKIlCkYOhmgmXZ3Yrk1yIsLAOqQHb3yKelB5vFts7JHaTxWXz5I+y0cJ13zUcmGSU4VEtZ4c1WzdVd5gdSfcUCFAIvAP3y9PhaLeWi0JTN1IqGxmiJ7rQX58TUreJe6xAGCOH61Vn9JZic8Hq+g+Vk77qes+MYOEuCHzBAzxEovEmNNesTa5DsmciT8zGAsL1u8L07cnQgzsKbk6WWDdejIiK/7Vv+HR7U5Gdt8G9yvqpWLcqmL95rEfDpsvTRaJh4jz7q6Zqaxfbwee4UZl3FKHmhb8emofZD9W7CmwQK6A268FdnWRBC1+UJPWHoawwTBiz6+XvT6m5c0/nYwsKJ+AatRboOKHrV5J5DnMFhw0tZBWWRPoGgr0O5drO2uvAUdrBXOOe0kUgAbdSKF3nysZ5dAV6m/l9VLI6u0JA38Nf8ScjlAGGEw/0foBa/MrWt/C/IHjqo1EJGfDyAk/7zpvmzVvlX5h9fpMxB8SlAafgbD/xeVuHYxlllKx+/rxFHd40w2zZTg/pmB+nxOs+1Fv7twbEC3ar6jAbCebg70aW9EmSFf5hb9AEqx23rnol8pBMPde+s2oAkkVVJCx4vKanP8MkL84m3nhsbQboh8AuWDd4OXwqvPnN3WgVctXs7i1btnZCPEhRtfxEYsX+lXwK9ffrP3wuJ8Oh4hMcogBKVDZQNrwGOeRNlm1gQpJH8rjSZUSkJ/0rMp6R2zs8fRmam9mB/KpuOhAHzLTLO2yTAxFrRcqFdiIUZgeQhNZBj+axPFtSoL1spbC4BK1nUdEq7seHpK1Nd+bR0GiXXGPery6N5nGiUuhR2SkFkjo/SntCmLSfnrBsn/qpED5GrdOWrvZsSRcFnEw+hUdXg0IP+qsOuYB2Z+SIEmtA1KjKizc7XoQlQQRciYbGyzDeLVzo6iBSi51YeAGMQGRGtG5lRZ/yaRTAVO9ZFCMsn7sCahRyPwViyFC6lZRn1fNPqkdpql7FXx36gCCVasnGuanIgvciruQlmeKQ9WFgsiGQop/oIXilpOClHWiBmOCsRxVIVUc505JFSuIoOGd6tYTaVIKYsas4XIqmsNIwSFYmtq9SZEql8I1DpoezFFPKx6l+CF/JdManPIqlyt1M+q9yCnHFSYZVYTTBUUnRDMX7NZu+R5QhgN1CzX06iIymF0thT1YoEXQHBg6RpMSxpuApbVfvAxtQPjgXuBLOCRNQegY6j6E+Rd/eztm9415AP+91kYKxdtO+bWBKTZIeJS+4yeVhDPSXR2eSJZqGgJoP508ExKO4lXHc8lNHOlu9eF/nzhe8E8vzUcrDZwNEj1NEQT5Is5N2kC/DNVFWYldfvbSSMNWKIz6xTMLSopgmigg/B2QUV+xWfIR9fv4lx958bOsHVSVxII6UmH9EBSy40IHghTQjEBOhRjnaDFmQxoYiLp65gh7lpPxeKsOCO2yNMZhUVzhsELwl7vTp2aqPEnNp1REgVNYZolNaRHt0TcISlU5Uw1sDDaBIVtsAj7pex42dhLCIj2oh2v3qX7mzyhpfuZk/gPOCCK13a8mWgqUkJeZsdUeXdNYjhjUUZxvdZjlCIoCr/jR6ur7taqlit9K/cDRVJsDqYuqd32JT8xp1e63pWSIZ8C5tReCgfZuLn1P0pMwA+S+ahr73c5zKWbtqW0uU92IDaIHZ4fc8P2AonpeACEcViGv9RhuL1RcqoVop8a56Kc2FbIkmPbztRUHRtRbnlKDW1B5wjPCCN9ijNbgRaoJTWSQZkIMjrv5r7NLpQVE/vJOhYim/V+1avF34SsCyKXCcY6lgNlz3tMTs2SoMSsDwiPthhpt/PapbmFaVFdn87gSy2TDVYI6XoXTEhbkyn5MZbULiYBQc6RnzKqSJBTeYw8gBEXglA4yAVKJjyjN7ywZv+EjzYq1wOmr4W+v0eVapcZDS1GnLQhs1V0TN2GVty/qm7Kyj7qwPP4eRyhWe5ADCp6sN2qcAtWbemGgnzEH7YswWVbIlopo7ORIkRCijvEuBlNU7lSbr02sHNg7yib6T3B+M/1xDQzpw3XSYtHQ30h8SAqSWKENUqosh8v31pktmVYFZbU0tm4Ci1BwfuxSI2wdi2cSelHvOLSylASVBAnx2KhuNL8n4VeVtaPHB/D7TWKEsXUHwxgqmTaUTJXbL+YfZBPYQZCHlVtEh8JY9cApcDHp4POZUE6+kmBMj0Q0YB4zDh/hADrrpg6qqaqE8KRoK1DHpMTrWNsEZce/VNAdASpRArkW80OVgXfHB3KYI0TtGxy1eZNPxoxaKtKVGxAtVUu7d9oSJ/vhsKOqt7lMm6PxzCALpKFpSZDbtp9qDvKqC/qpSI4qWu6DBpPChBGA+5EFmU+PFMi2CdqFTOb+xI+LbXpJXe5LvigdEat+naadkRYX1yYpJthxUi8G4YSe0WkGMrDSUX86jhDapQJUat/OUjBzq5ByWygX1ntay4tTz7AqIF4n/G6DF6Mr09yClnfalofxP0iNR/lVRsSH0IR8v2UK9TCqBxcfUQ1DBWJ1NkndQggJWt+XeqAZTibxaacZsB1FAAVLCnhuGtNpk+XhPUW1C1Zg33p7kQXsVj07qmkwQlbUBZsBVbyl2q1C6MK9IFggkDiFy1792d4zMutI2jAd4X5iqaT7cR93TRwthAAeLUHaobUVTViTqse8vEgMXpknPx2RArziI8T+1meDcc6hVMrlRtrrULPtP/TakpEVCEAyfsN8awjFiR4XhriRaF1EHzDaOoJCpiDXkXch3H9qaFtoqOzgc1JHFnpF5lQ/l9j0ZBxdu1nFPzvwDXrT1fHX1dmqYrQOHfnlkWMQg1WHpBbiWFikbYAblldWASqAFWHUgQW1tniEVlDT20fPm79lK/glYSrvIHjN1vkrrhg0JW1wkQq5Ml4xbnZTvwGUSYUvPIelb9nyhsCgtS+Yta3cCFyjTl2IHNjfdeJMWT9VsPE2kKsdAnrj5Ue9W3WoDG0o3719xNOdgVWrQjQ7aavzTJ12ruTQ5DwEu7hwN4l5J64Y716sT9qK1b4Wnr6eZSBl13LblA26IKiyA5KosOzVtpu0p9IenQ9/z0HLXtNUazwZ+Gl8kgH4RV46u7OQEKhep2LgVNOwwsYqL6n3oGrjjPUFQzuzxpBbhCIO0kBJVifeJJgiqXZbMy+RzVxFW6Go6hwGxBTb65igWu1Ey0FQIsWLf7BUEdGjnd9AlEAYIx8rxFr2JDAQDdCIaj7IHV2EZ/WkFiDeO9U7DxroiEY4aitS9Obk8HOdt9IhRGu0zvh0x7+Pwn1e0OHK6lEX0gk/slJEV71QvtMD3ixCqw0iCCMxg6jZgAqhRbYDV2CGAji8ZV+NRk66iq+HC6GItUgmb8QPngV0QUi69sSd90YBrdMEsaCDWqtKXyh6+MxdE1LA03pFWJOINHy57IAZ+hU2TOjWOJAQlcXGQcpoT/sTFAKdjCvAKO8JK2isP5BgJqQhgq46i1X4rZrlVwXmERjazBSCCvAsbAzug79Y7VN6tVEhwtTAhlFd0TblgfU0AKYJ0gF4xlefE12aGjPARYOa0iFNtuepc0cTtGi16lCiCk+EqIQn7qF6si23n1vnPrS7uo4zSW39Ot12yxkZGtvu/gXM24aJAFCdTz6uU5fh6dzX2RkdN2UoKkJ15Ggz4HzQVgV3JK1u+WFSz3nW8UCBFB4Lk29DrXILEqKzm6kilNOFFVEwHRcz93jMN93NQjobpJKceuE7dkeKABwQP5YIbe1EWiaxrRNQMLbZe1EW56+6n8u/0/1sGfpbYhU1OSyouYUgbaMpcamf9NZpbj/pbSe9ZaC3vzk1tSMtqTgQdzptB8yw7FM+xC+DTu6+jU8Q/3m7ZgZrAk8HhO+BNYg81DzC1XOv0Kc+30IznqxCsxGqqtMOHYGmuU0Zqhnp3BfUYMGPkioGs2iri+XwdpJCnUi0cnKxLHvZeLbyiTbxCE51bDpI5tCxCwsG6pQa8RDJY3uRjgJ8XDQipVYCDE4Jouo4DNTOsEDoqKZzlgog5X8dex865BeJAtCkYEo0CT6sFru4VecrkhPqDAZHvA4ZGyUnVTlgy5raOneruxEXakGHPcnduAWD5BNcRc3CSVQUBA63T8SrxRyV3eMSVUZKjqqtBeCtqjIGGkRdktgaMGj530PPtBOmuqo98TWSuuq/aZF9O2QVMB89suINqpz8sU/W/LFRVmdms44H6FQq6txt1QOVDTq2QhowUEwzPAoOUWrImzoYr8dsqHpWPhqvn7brT13XjOfpu2bi+be+a/OPjddv37UaFn7rvP7Rd43tbhPzN43XfwyUt/N6f+1+NV+ar39pvRZS3+brf+693uZn67XOcP/SfP3pOMB7GiC9l/+m9/pO7Wv7tUqbvzVgf379mw5s8x+0YP/Vv8x/3Ij99GF/dGGrAKo+bPNNI/ZHGzY2eRuxWaOfrdjfdmKbX17AQv/UTj2hxLbBvIZb6j1gndWg0nSkquhgLrhCqlpqYVTjL6AADZhSknA9skDTkX/cGr8oz4lbqcAiH78nbk3QWe083yO3CMV6j9y257g1Uph4ieee6k7oBRW74W2Av8qJIKWY51io7KRTvDtkFlpUImvnSkVsDUitsqS1JTrcVYQRC1VHiyrh7p4pYxhCyjZMJyMkKJxamVp1Uz2EIsDxREJVB0W8jr8M9ZjmHEScovJDuFVjPRwC5kmeNpAztEfQozV+lnCJXmUT6VH1z8WM7tvWq8+Bd2rft1q1zaljJxSV1aOeOKB6nlWJx6qjIekIcPy1E8v96MT6cyOWsSIctyxDZD2N5Dq22eDt6n7bQWcOh0j961CwIscipACpi1uNROR1t7VP631dS82YOos8UQQ6pu6qtjfA7MIvtFmCGuk6KqldKTXD7IU1wlaDLbyiG7Xx7O3X7Uyyt8soqTqoLiOGo/OTalzS8XXMtq6ACDpNpEG1mKKHYRKGBjuxwH2qPSOlCl+1Ou6r8lO7rUzr3TdsDwi9LUbuc4uRzGXc0kkntZBkpS0od8msMCCatQ1S8ZmuStFBbtXbLqUdpPs4iq3KsLtVuU6mDXkyaxSr6uAbNQ7bvK1TkEWHuSLm6AiF+2ynrFp+dyKoqLGo2vrCd1gXQiRNtVjfk9SEPc6Z3PrnXAI12HpAR9Yx96pO30wU2SrGdI9sK0txd1U99ICjcBtQggomZAfVEKd2l8EB8i5CuKuzx+lAZZRygGjWBUQTEmHeM4Vdu6zqA6p/OwXyYmhmlUy4eRQjq1lidNBjCqsJA9Lg1DlIUJGJaHEhR7BuqE1zaq9vxA88TTKLdAS5vY9SeIl3INbIiHLApTpXwX9YV1x/VjUQAP/N65EnLZDwVNzKKgnYoCdXOK9uJLiHjgrfo7+OBUa1b4tv7MvlEU416WkY+CzCGuIcCUWrZml/H3ZiWOmlBz5xdciJOgBP1r4HoXyrf2QLxAbMz+noJBOqQ0UX0rDOUTL72lDbBTy6ELXv6RvJHiVHZjjvwzbmLTZU9UmBo1qv2Fi/osdtiHcVrzMV1oEbpuhwM0JWtWOcXW2f0jTQBZWkpGnIr+qETR0+t55SHNaBnwmXdWbUKg4MulOHF462kiKB44J66JGwbbpb33p0v1flhd/yQX4Zt5rvEVVBlcApDmJSZk0wqED8wo22iAFVVhd1s0RPj7aI/W1sezpetdrdqpbe1HbpRALMyV97XpN6XvX0FqTUVuGw6XEeRI2ayKFNEWFSquwICRgKF/XGGGhVVWMTah9sRw4ggq/6UXv+LeLhLqqdp6lP6JSvWvC29CNYgBl1dkSlsaGHWcwkxcowT70lp3wCjF+EH7HQ73OndL5l5Bxz1lPZtEFW9cgC8maSrxheGzi6HimDEhXX0wkRIRCUDOM76WNCSE+CijHBjOSDmK8o2VhVmjI2r4Z1UC87GVX39+5kHX/Bwu0+7wO6XfF9Fbe2qgBIQPXdqZEUzEtTD47RKaxpbN7ubu5YCS0FC/5RlA21a32ze6yEd5tvckeIqMvtJveohitlnVqMNv9z1RmZfB+lgEJhPouAGkSXyBnaqt0TW/n2nulUjg7SwwGE4w44C/c8Lcvas04t967jFZJfOLhTy+7S0xjurpha7Lea6lVFhI7vktSo21g95Oq6tVpF5srqfIMx6vRv0JmtqLoP7kyA6lCDhzAQE7aoCtpVzdMeN+yL3Jj0cAzAfwj7QTcyKqzjVmCjYvVW1gi7rJZ66B5y5lZsPXnqU3s7wkf4603RYyz0cAm4lzZl0Pqkg1v87UcHrr2eAAYTGDoL5eFVLV1f33okDAEgfB+hmzYH5LqJ/eq0PDBBmLGO2m3WQeYi6arutnP3C8jk4eZibQs71RJJgCm3fIM22OdIWqpLz95a5x6FIDlPPSblPrMHD4DVaY87d7R0LPikqmYVP1+qOJitdmWWrhGdkSTFO6qe86Qn5BxYvaqkon3iB0UbiYClTtqPtA4JIgKeaMWdTbktk4ItWFPTMweGHlYGFU5ektLqKUZg9HJVBMir3IQhIAZ6JJ/2+CrYWbpReDi1bzKJdZn2XPhd6Dg0lJqEECIzzDpVxi/Qgl4PndFuJ+40XZR5glQ2igLeEloVmUbjhws66Gnn4lD3WJTs1a6NjqHo+QZYqt5mCT1yMZZ7bCUbFdeWygWh/PVM+R/PmnuNaWWIlkp8Sa1PTz+r+kx9yG8/K2EZy+1nha6rswpJOfS0lKgH8ngR7SMpQPSrkgdf0mnMlpEyRA/ZkmjoHb4NMDsivx5+lk7d+whUcF0wlzDTaZHbgWPUHgvny3pykTY7kX8LV0JrEElJxRVAleFdJULi1zOMktjImnq0kKKnTEZq9Hi+pBbGDFBr8arObLKCTj8hujz+6XUOQkdy1rwN0EsdNFmPb4reeTIHPJt4UXu9G1b9h6LOXoVYkkPuOqQ3VGsE4JIdI0IF8goe4MtEc87OBZCPT4CQelzYfXQGhlSztx5YdvvDVlevDJkfbCUf9BvquGgi6NbtTsQGyaqNiLSWzdqCfpULC74N2WrSe5D1pLGExGgUdUHP4NnquXF69IfXRlQ4sz6PwlR7vr6gPrpA9Hcn0WajaJi0tEpZkgCEMcmebAV9b8Q2DHV2cj8BmfUUka1GALejvcz6njQT/zqFOMtO50cPl65qeooqSEFAYwpQAgaIsNWjnbRXrXb/g6Ooe5m36dj5rbkR4duqDqaSE8SNNag716fJYjbtBbMMetDky0yqdpNZC4Q0tBmqBLMARTrEBn+5pWCnXvmpXOP0gDQ9CAQorAm+VhyeTZJFApPU5DP3qW2wG66Ky7ASC0M0opwlmrDBSPKYMpmoUPHaNUfyMJ9jdO639XyrnzCXgdTbejaZhQupkKUzQC3qdCBEZk5xIh1MHZK8STUm9bng6kaKU8fKWDnuqWco4ALIndiAkXZQjkHZixhTzYz04rRPlvVsFXCUMDzaXIaxOa9zUowk6nFLXFv7nNnriQH3lF089wlHW1D9twdJ/egZVbteM/8DMkqs4Jum7VgAAAAGYktHRAD/AP8A/6C9p5MAAAAJcEhZcwAALiMAAC4jAXilP3YAAAAHdElNRQfmCwoLJQGHBYzaAAAgAElEQVR42u2deXxURbr+nz69nSaJIEYHo4zshgFHUCAEAknAGRkdd+cKghsw9+eM4DKK7AISFkXH/Y73XgEdwRW3URm4oySENSwKgxEEIXEQgoIQSKBPn95+f1QHl2Hp7XTXOf18//KDSed0VZ16qt636n1s4XAYhBiEA8BIANMBLAUwDsDXbBYSQY2MiQcAPAtgNoB6NgsxAhvFjhhECYAnAVz8g39rBPAIgMcAaGyijGYwgDkAzv/Bv+0DMBnAC2weQrEjstMmskK/6RQ/UwtgPIDX2FwZR4/IIqjvKX5mI4B7AaxkcxGKHZGNbIiQ1P0Q4aloWB6Z1Dax+SxPKwBlAEbE8DuvQ4Q4GfomFDsiBcMAzMKPQ1LREgDwUkQoD7ApLYcaWdCMBdAijt/XIELfs8HQN6HYkTTRGyIkVZCEz6oHMCPyeQE2rSX4baQ/2yfhs74GMAYMfROKHUkhrSIr7dsM+OwvIjuBJWxm05IPcbpyoAGfvSoyPjawmUksKGwCEgMqgEkAdhgkdABwIYC/R8Qun01uKlpERG6LQUIHiIMt6yFObLZikxPu7EiyuTGym2ufwr8ZAPAUxMEG3r+Sl6b7lLMQX14uXurx/VUWhr4JxY4kRFeIvMvAND7DAXx//4qTmlxcFhkfXdL4DDshQpsfsDsIxY7ESi6+PyrukOSZNkcmtQp2T9rpENlRXSPRM30MYBSAbewe8lOYsyM/xRGZMHYA+H8SCR0gqrGUA1gEcXmdpJ4WEOHsLZIJHSCiD1sg8oYt2FWEOztyMgZBhKQuNMGzagAej0y8jey6lHA7RF7ODAdD6iGq9DD0TSh25DgdIiJ3pQmf/evIpLaA3WgYvSO7pUtN+OzVEKHvj9iNmQ3DmJlNC4i8y1aTCh0gqra8DGBtZFImyW3bBQDWmFToAHFw5h8Qoe8O7FLu7Ehm4YAISU2H9e4qNZUe28dujhsVoiblRERf59QMaPj+KgtD3xQ7YnGKIEKWl1r4O9JKKH4GQ+Tl2lj4O+6DCH2/yO6m2BHr0Qant96xGjsju7xF7P7T0g0iL9c3g77zRoiTx2vZ/daHOTvrowKYCpGXuynDvnt7AG9C3MvryqFwQlpBnFhcn2FCB4joxhqIvOT5HArc2RHzkoj1jtUIAJgLUduTVkIib3svRF6Od9JEuHsGGPqm2BFTEY0bdKZSD1F67Hlk7v2rQRAhy/YcDv9GLUQ+j1ZCFDsiMUZa71iNTLQSyo8sgi5n95+W5ZHxsYlNYQ2Ys7MGKsRBjK0UuqhpshL6ANa/f9UiInJbKHRRU4zvrYRy2Rzc2ZH0k0w36EzFqlZCTdY70zlhJ0Q9RD7vSbD0GHd2JOV0hSiB9L7MQheoqULjvCugrZwLaIdlFoX7IzvjkZCr+HW8lECE4P4irdCFgtC3LEbj/xZB3/QuENRl3hnPgXBTGMSphzs7kroXrwzyORL8eB47sAveymcRqHnl+5WVmgd1wBw4LywBFLvMbbwZ4v7VShOOjw4QedsbZH7I4J5qeD+ahOCBNcf/zd6yAGrJBDjaFsjexksh8nm0EqLYEYN2H3dChKSkPSoe9h6Cb92r8G14+KQ/Yz+nFJ6Bk2DP6yJ7m78OkQutNcH4yI486/2QuMRXqH4PtFXz4N/23El/xtluGNTiUVBatpG5vQMAnoO4w2ql0DfFjqQVGdygTzOLBaFv+RC+lVMR0vZG9SvOzqPhKRoO2xnnytz2GkTpsdmQ9/7VMIgwm7x1TvVG+D55D7414xEOnT5caVNccPWcArXHjYDaXObxcQDiKguthCh2JAFkdIP+N4K7/wnvsik/CklFPQAVF9x9H4G721WAK1vmrymjlVDvyCJI3rhfKAj/9kpoFRMQOloT868rah7c/cvg6nK5GULf90JU6yEUOxIlLSBCUvdA9pBU5X/Bv2Nuwp+l5ORDLZkKZ4d+sk9qqyKT2oY0PkOryCJoqNSLoLrPoVU8hsDexQl/lv2cUngGTIL9POlD329BOEbUchqj2JFTcztkd4PWG6Gtfwv6uslRhaRiwdH6OniK74Pys06y91M6rISarHfGQuTopCTcuB/a6nnQtzyR9M925t8Fte9wKC3Ok3lsaAAehwh900qIYkd+gvzWO00hqY/vjzovFy+ui8dC7T0MtuyzZe6zeoh83pMwPp93I0Rero20reH3Qt/8AbRV4xEOGDfH2xQX3IWz4L7kGtlD3/sAjIFcoW+KHUkb50dWgHKHpPZWQyufg8C+1FXXsjmyofZ7FK6LfwvYXTI3z87IjutdAz67K0Qdy2KZGyCwcw28H49HqCF1p/GVrLZQS2bC2am/7KHvKojQN62EKHYZSVOJr7GQOC8XPlIHbfV86NVPp+0ZlObd4Bk4zQz3rz6OTGqfJeGzciHuU46AzPcp9++Ed/kzCHyVvrrJjrwroJY8APu5v5B9fCyMLIr2gVDsMgT53aD9Xvg+fRe+NZMNDUnFNKm1vRme/qOg5LaTepMD4L8hrITiuX/lgLjQPgWy36esegW+jdOleSaThL4bIULftBKi2FkaU7hB+3eshFY+KaUhqVhw93gI7l5DYPOcKXMzxmMlNAgi/3ehtN8qqEPfshjaigkI6wflm9Ac2VD7zhKhb6dH5vGxEyKys4jTIsXOSrSCCEndBtlDUuWPIbD7HekbVFHz4C6aClfXQbLn86ohQpsfneJnOkQWQVI7EgRq10FbPiuu+5QpHx/Nu8FTOgWO9oWyP+ryyE7+MxCKnYkxhRt0+Oh30KoWQv90puka2J5bCM+AabC3/qXsj/phZCx8+YN/awER7rxH6kXQod3QKp6Cf5f5DhU6LhgMT/FoKGdLbQoSADA3MhYOcNqk2JkN+a13mkJSyx+QJi8XL86OI6D2uxPKma1lfkwNwkroMQDXQuRt5bXe0Q5D27AI+vppSb9PmWrcl06Gu+BmM4S+p0V2+Sw9RrGTHlO4QQdqqqBVzETwYJV1BrPigqvXdKg9b5D9/pUGiU/gIhSEf+s/RIkvg+9TpnR8uFpC7TcTrouukD30/UUkCrAEhGInIeaw3jlYC2/F0z+y3rEaipoHdeDjZrh/Jd9mf081vMvKEPy23LLf0Z5bCLV4PBxtesn+qEsh8nlfcmRS7GTAHG7Q2mGRl/tktulDUlF3TKtBUEvHmMFKKO2Ej9TBu3Ie/FufyZjvbJLQdwAi9F0GWglR7NJICUR8XW7rneql8FVOslRIKhZcXe6G2ucO2a2E0kOM1juWmwDNYyW0D+Iqy4tgPo9il0JM6wadsQPdkQ134XQzWAmlbBHk/3IFtIqp0t6nTCWKmgd1wBw4Lywxg5XQKAArOYgpdkZiGTfojJ3UcvKhlpbB2bEoc3Xum+3wLpudFOsdq2EiK6HXI3NRLXuNYpdsbocJrHd8G96Gr2pSRoakYsFEVkJJI9y4H9raBdA3P8IBcBqcnUfDUzRc9tB3k5VQGVh6jGKXBCzvBp3JuLpPgFowFLass6z7JYO6sN5Z8aDp71OmdHI0j5XQ1wDGg1ZCFLs4MYf1Tt3n0JY9mlLrHcu9BI5sqMWPmeH+VcwEdq6Bt3waQoc3saPjRMnJh1oyFc4O/WTP562CuJ+3gb1GsYuGjHeDzlTsLQuglkwwg5XQ6Tf7B3bBW/mspe9TphoThb5fgsjn0UqIYndScgGsB92gM3tSa3szPCV3Q2nZxnTPLqP1jtUwiZVQPYDrAFSwxyh2J6INAGmTXulwg87YF0NxwXXJODNYCQmCOvTPlsC3cmrG3qdM6fhwZEPt96iwEpI39H0HxL08QrEzh9jJ4AadqShqHtz9y+Dqcrm0+ZrAVxuhVZTxPmU6xofcVkIUO4qdOcQu7D0Ebc3LprTesRoyWgmFDu2GtuJ5+HfMZQelGUfbm+HpPwpKbjuKHcWOYhc1krtBZzLO/Lug9h0OpcV56XsIvRHa+regr5vM+5SSIZmVEMWOYiev2AVq10Ern2Ep6x3LvTSKC+6CMrh7XJ/a+1ehIPxfVEBbNoZ5OYlR1Dy4i6bC1XVQuvN5FDuKnXxiZ2Y36Iyd1LLaQi2ZmRIroeDeamjlc3if0kRIEPqm2FHsJBI7C7lBZyqOVoOgDngQ9nN/kfTPzkTrHauRRishih3FTgKxs6gbdCbjuug+qL1vTU49Rb0Rvk3vw7dmMu9TWmGiVVxw9ZoOtecNqQx9U+wodukVu0xwg87YF8qRDbXvLHH/yumJ6zP82ytovWNRUmwlRLGj2KVH7MJH6uBd8QKtdzJhUovDSij0zXZ4lz+BwO532IAWx9FqENTSMbDnGWolRLGj2KVY7DLcDTqjJ7ULBsNTPBrK2e1Pvgg6+h20qoW8T5mBuLrcDbXPHUZZCVHsKHapE7vQ/p04+tYwWu9kOGrRbLgLbv+3fw/s3oJjb1/HvFwmT8KObDS7+nU42l5KsTMQhU1gLKH6OgodQXDP+hP/+8FvKXQZTjjQiOCRejYExY4QQgih2BFCCCEUO0IIIRQ7QgghhGJHCCGEUOwIIYQQih0hhBBCsSOEEEIodoQQQgjFjhBCCKHYEUIIodgRQgghFDtCCCGEYkcIIYRQ7AghhBCKHSGEEEKxI4QQQih2hBBCCMWOEEIIxY4QQgih2BFCCCEUO0IIIYRiRwghhFDsCCGEEIodIYQQQrEjhBBCKHaEEEIodoQQQgjFjhBCCKHYEUIIIRQ7QgghhGJHCCGEUOwIIYQQih0hhBBCsSOEEEKxI4QQQih2hBBCCMWOEEIIodgRQgghFDtCCCGEYkcIIYRQ7AghhFDs2ASEEEIodoQQQgjFjhBCCKHYEUIIIRQ7QgghhGJHCCGEUOwIIYQQih0hhBCKHSHEsJfMkwdX9ztO+P8c53WC/ZxSNhIhFDtCzIlNccPd+xHkjKyEo22PE/6MPbc1soctQLMrFkLx5LHRCDEIB5uAkOTj7DQSav8/QGl+XhSqaIez80A421ZA2/Am9PUPIxzysREJodgRIif23D7wDJgKe+tfxv7L6hlQi0bA1fVyaBVPwb/zZTYoIUmCYUxCkvEiefLg+dX/IvvWN+MTuh9+Vovz0ezaOci64X3Yc/uwcQnhzo6Q9GJT3HBdMg7uXoNh85yZ3JezTU9kt34N+pbF0FZMRFj/jg1OCMWOkNTibDsUav9RUHLbGvdH7C64ul0L54XF8FW9Ct/Gh9nwhFDsCDEepXk3eAY+DEfbXqnbQXrOhFryR7i6DIK38hkEal9lRxASy3vLJiAkSsFx5MBT+hfk3PG3lArdj17Ys9sh64YnkHXtO1Cad2OnEMKdHSHJw9VtHNTet8CWdZYcL277QuT8/B3omz+AtmoCwoEGdhIh3NkREqeotL4eObdUwjPw3oSELnyo5sT/3rgfCAfj+1CnB64ev0POiNVwXfQndhYhFDtCYnwxcjqj2VWvIes//gvKOZ3iF7kjdTj24XR4yx874f/Xd/4TR18diWDd53H/DVv22fD8+kHkDC2HI+9Kdh4hFDtCTiMcihtqvyeQc/v7cHYqif+D9Eb4ql5Bw9ze8G977pQ/Gqj7OxpfGQDvklkIH6mL/2Vu1RlZg/8Hza58DUpWW3YmIT+AOTtCIjg73w1P0R2wnXFu/B8SDsK/YwW0imkINWyNTR+rn4L/i3lwFz4Md7erAFd2HGpthzO/BM52/4Dv07/Bt3o8S48Rwp0dIYD9nFJk37wMza6YkJDQhb7djqOv/SeOvT84ZqE7rpWBBmgr7kPDi1fB/+Wq+L+UKxvugpuRPXw1nPl3sZMJd3Zsgh9xPpsgg1Z6njyopXPgzC8BbPb4N3ON+6FVLYS+aXbSni3UsBXH3rsBjtbXw1Nyb9x5Q6X5eWh25WQEu10P77IyBL8tZ8dnDi3YBNzZnWhQPAmAM0EGYFPccBfMQM7ISjg7D4xf6II69A1vomFun6QK3Q8J7H4bDS/3h3fZMwgfjb9cmP28LsgetgCey+fTSihzeALACwBasSkodg4AdwLYAeAe7nStj7PTSGTfsQpq0Yj4cmJNIrRzDRrmXw3v8tEpueOmfzoDDS/0hr7pXSCox6nydri6/gY5wyvg7jEFNsXNAWF9RgDYCmBcps9vmSx2JQA2APgLgFy+E9bGntsHWb9bjGZXlUFpEX+0OnSgBkffug9H370OocObUvodwoEGeD++E41//Q8EatbF/0HqGVCL/4Ds25bD2f4WDg7r0wLALADbAPyWYpc5tAGwCCJkeTHfA2tjc50lrHeGvQbHzy+JX2i8h6BV/BcaXipMe13K4MG1OPr21Tj29v0IHayN/+Vv2UZYCV3/N9hb9uZgsT7tAbwP4CMA+RQ765INoCyypb+B4976uC99CDkjV8L1y6sAuytOZdGh//N9NM4fKJ3jgL9mIRpfKoa2/C8Iew/F/TmOtr2Qfesb8Ax8HjbXWRw41mcggC0AnkUGHWLJFLEbBpGXmwhA5Vi3No42Q5Bz2xqoJX9MyGMu8K9P0LhgMLz/+D1C3r1SftdwyAffhmlonD8Q+md/j7/0WMRKKGd4JVzdJ3IQZcBrAuAuADUQ5xYsn8+zutj1BrAWwMvgiSTrr9yad0PWte8g64YnEvKYC9V/jWPvT8LRN69A8MBqU3z3kHcvvEvvQONff4fg7n/G/Tm2rLPgGTAaObeuhqPNEA4q69MC4tzCJgCXUezMRysACwCsAVCQzgexZbWAzZHNV8rINnbkwFP8jLDeaV8Y/wfpjdBWzkXj/L7wb38huS9aixOLr5KVldS/EzywGo1v/BrHPpyO0OE98T9vxEqo2TVvQcnpzEFm9ESspv1kbBcA/wDwLoAOlpwnwuGwlb6PCuABAGMhcnRSED5SB23tX6FveYJvdZJxdRsHtWAobNlnJ9BBQfi3VUArH5P0cKUwep0GR9uTr7lCB3bBW/E0Al+9ltyXW3HD3Xs63Jden9A1C/i98H36LnxrHqKVUJJx5F0Bz4BxUH7WSabH0gA8BXHGoZFiJx83ApgNceJISoJ7q6GVz0Fg3xK+5QlPElfCM3BsQo4EABCs+xzej6YnvbKIzZENtd+jcF3826gPxwR2roG3fFrSrzQoWW2hlsyC88J+iVWKOVIHbe3L0Lf8mQMwGX0yYBacHfoBil3Wx9wHYDyAFyl2ctAV4lRRsSmeNhSEf3sltIoJCB2t4Vsf7yTRMfGJ27tyPvxbn07+bvPisVALb43P/87vjRiyjkc4kNxFtePc38Az4EEorRILSwbrPheLtrq/c0DGvNt2wV04C+5Lrklst51aNgIYBXH+gWKXBnIj2+wRMONJIr0R2vq3oK+bjHBI5yxw2knCDXefWXB3vzqxSUJvhG/T+4aE5Bytr4On+L6khKTCjfuhrV0AffMjyRfji/4kXNcTdXf4YgW0ivFctEWJM/8uePqNTKzd08tCiEosX1PsUoMjssqYAgvcEQnV74G2at5pPc84SSQ+Sfi3V8RlvXPa3WZOPtSSqYn5351qF1XxGAJ7Fyf3xXfkQO07U4RZnZ4kLNoeopXQSbCfUwrPgEmwn9fFCl9HAzADwGOR/6bYGcQgiILNF0r7hEEd+rblcOReENMKP7j7n/Aum4LggTWcHZI8SYS+3Q5vxZMI7H47yYKRDXfh9Pi956L+AkH4v1wBbVnyd1FKTmd4Bs5M7BQrgNDhPdBWctH2o7ZV86CWzISz86+iz8tph+H/ajOc7XomtggxnlqIfN5rZukPs4hdh4jIXSnzQwZq10FbPuu4YLkuHgu197DoTwqGgtC3fAjfyqkIaXszd5Lw5EEtngXnLy5LLC939DtxoMIARwJn59HwFA1PbUhKb4Tvk/fgWzM+6aFvR5sh8PQfDeXsdomt9Xb/E95lU01zP9GQSVVxwdVzCtQeNwJq8+gXNF9UQFs2BiFtr4gWlJbB2bFI9q+7CiLStkn6fpFc7FoAmATJHQlCh3ZDW/E8/DvmnnD1H+upvLD3EHzrXoX+yeyMyufZFDdcPR+C2uN3gHpGYrvrzR9CW/Fg0vNy9nNK4Rk4Cfa89IWkwkfq4F3xgiG7KFf3iVALhyVUeQbhIPQti+FbOUXayjNG4Ww3DGrxKCgt20Q/XPdUn9Rr0HHBYHiKR0M5u73MXzsA4CWIfN4Bil2MC00AtwOYDpkrn2iHoW1YBH39tNOKUjT3rf5NRA/sgrfyWQRqXrH+JNH+Fqgl9yTkSAAAgZp18H78UPKP76t5UAfMgfPCEmmOip9qkkxoUnCdBbXfDLguuiL+mqLHF22vRRZt1s7n2VsWQC2dCEebXrEtWlbOg3/rM1EsQiaI+6RZUtcurYfI5z0ZEUCK3WkogrhKIK8jwU9CDjGpeNub4ek/Ckpu9OGiQE0VtIqZCB6ssuAk0TsySfRMrEsO1ECrfBb+moVJ3m1GQlK9bpLzqHgoCL16KXyVk5Ie+pa9b6SYQF0tofabGdvCIM5wdFx/Kz3shAhtSnWhWCaxawNxKfwmmXsxWatpd4+H4O41JPpwUVAX969WPJj0+1fpmSTk3z04O46A2u9OKGe2lr9BY4gyxLXr7n9XTKG5k+26xaJtLayAq/sEqIW3RP8ONx00qpiKUMO2xHaRJRNiihKliaUA7oXw0aPYQZT4mgTgfkjsSBBLyCFaFDUP7qKpcHUdFH0+7+h30KoWQv90poknCbnzQvbcQqglk+C44FLTtW3oYC205c/Cv2tBkne48udTU0U8ebTQN9vhXf4EArvfSd4iJI78YBoIAHgOwFSIMGfGit0wCAfd86XtqqZLyKvGGnZYxJ5bCM+AabC3/mVaXx7DJwnJT/zFs/iQdoapXQetfEbSQ99mOClrFEpOPjwDZ8V0TcPI4gBiERLHyc/0cADAZAAvIE35vHSJXQ+IJGZfeZfIyQk5xLRSiyNsJi5Kp+4Z45skkniXq/IvSXckAAD3pZPhLrg5sd2mbAR16FsWQ1sxAWH9YHIXaJLfgUzqJOnIhtp3VmwX8FOcdlDUPLj7l8HV5XKZa20CwGaI0GaF1cWuFURe7jaZeyOduyab4oKr13SoPW+I/kDE8RJYk6XK55mhSofjgsHwlNwd04EhsxH2HoK25mVDQt+yV7dJFNdF90HtfWtM38+ogt6pXISkgLcgHGpqrSZ2akTNx0LiEl9GhxxiXampAx+Hs1P/qFdqRuQV458k5K6/qDTvBk/plIR3m2YitH8nvMufMcZKSPK6pTEvgloNgjrgQdjP/UX07SvRVSFn/l1Q+w6H0uI8mYekBuDxyAbI8FV6KsTuWog6avLeipT4pKOj1SCopWNiusScTish2SvrHw9Jdb/G9Hm5uHdRO1ZCK5+U9NC3GRwpovoOJTNjW2R6D8FX9Qp8G6dL1c8mcljYB2AMhOG2KcWuK0RebqDMrZzOkENMO6Uud0Ptc0f0O6UE7gLGP0nI7ZkWc/k2SyuegVZCeVfCU/qAqayEbIoL7oIyuHvEYHQb1KF/tkT68n7xCHiaqIKIABpyN8UIsWsR2ZZKbb1jxuokcRUeNthKyAxu2JK6QUuBWFz8FfqWJ5K/uJDcRb6JeEJ+Zizc7si7AmrJAzGFZtPEQoh83j5Zxc4B4E6IEl/y5uUidSd9Gx427QQVT5HYU9XvTGiSKBoOpXlieQH/l6ugLZtknPWO3G7QUhCs+xzaskeTHvo+fkgp0bCx3ght3evQ1z+ctENK9txCeC4ri+kwhxHvUaoxSYSjEcAjSKKVULLE7jKIkKW8R4BMEnKIaXXR+joRLorhcmvgq43QKsoSWpHac/vAc9n0xI+d798Fb/ljybfeMacbtAThjiD82yuhVUyQ9kBQqP5rITYJXD+J65i+xcyW47pOkR52QhSYXpRusTOF9Y7VveJiLhIbp/Arnjy4+8+Aq8uvE79QXPUK9E9nJL0tLOAGnX4MnNgdbYbAU3w3lNy2CX1O4F+fQCsvi6mwgE1xwXXJuNjK9KU4951qTHQqeTlEvc3PUi12LSJqew8kLvFlhZBDTCu14sdiqjUZ7Skym+KOTBKDE7t0ffyS80SE9e+S+v0t5gYtx/tTvwfaKmMMWd2XPgR3wZDEx1P10qhKxjna3izuU8ZivZPGU82pxkRWQnMhykvGbCUUj9iNhOzWOxYLOcQ06cdRJPZUh3WcbYdCLRktbRHguNygiRSREZvrLKjFs0U4MdFi4FWvwrfx4aS8DzLdV001JqkkVA9gGoQ7TtSlx2IRuyKIkKW81XEtHnKIaaUWx0r2h9cw7C17RyaJXol1ycFaaJXPwb/z5eROlOapCWiRbZ6BVkK5faAWj0+qlVA8kQ5ZKxGlGhNZCX0BcVUhqq13NGJ3PsRVgqFSrz4zKOQQkyDEmqMI6gjUbICjbY/EBrp2RLgzGGG9026YMHo1g/WOxWg6zSz6NclWQp1GitqwiRr41m6A/ey2MRmdGnXR3szYcwsji5Besj/qUoh83pfxip0KkZcbC8mtd7TV86FXP83ReRJSWiQ2HIRe/X/wVU40xnrHHC+f9Td6B2vhrXg66fdUj1sJpcgs14zuIanGJL6OAQBPASjDSayETiZ2gyGsd9pI+9UYcohLLGK9VxTT7npPNbwfTU669Y6JwioZR6CmKpKLNcBKqHQOnPklCZ38PemazAK+kKnERGmDfRBWQi/iJ/m8n4qd/NY7DDkkvlJLcpHY0OE90FYac2ovZjdoknoMrC1rP6cUnssmJ6/qh8R1cM2AouZBHTAHzgtLzGAlNArAyp+KXavI9u82yFziiyGHpK7UYq4FeKLd9ad/g2/1eGOsd+Q/Ck1StFtydr4bnqI7Ero/adQuNBMx0VWf1yHScbW2cDjclJdrkYkvUcav1JqKxOaXxrbw2L8DR9+6NfmVNuJwgyaZsSi1KW40+81cOPIvi+15Dv5LGMSaqA6uWXB2Hg1P0XDZizhoAB63hdNkVR51yGHLYtGTG1AAACAASURBVGjLH2DIwWCa3x97zdXgnmp4l5Uh+G154hOZecoXkShJZrohHn/HJo69czf8u95ghxiEWcrzSSt2DDnIL3Zi2Zz43UbXRfdB7TOc1jtWJMGDZDbFBVev6VB73hD3RHrs7VHw1yxiXxiM7IXXpRM7o440E4PE7nig4DC0DYugr58W9f0rE1mOkASJ54qQs+MIqP3/mPBBKopdanG0vg6e4vuks9SSRuyMvKxKUiB2TYuVQ7uhVTwF/66Tmw6byEySJJloij/YcwvhGTAN9ta/TMrfpNilB9mshNIvdgaWISJJFLtwGLDZov68QO06aMtn/aieYlJOgBLzc5LQt6LmwV00Fa6ug5J6n5Jil0aBcWRD7feoyMWn+Y5sWsXO6tY7lhK7hjp4178Z25234y4HE+BoNySpd/uIBfhBwfa4rHe2V0LxZMN+QU+KneTIYCWUFrEz0jqEGCd2h/+ne3zVTPxenrAkpxgfxwBns+gXyT8IhWZdvQiOjkUUO5PgaHszPP1HQcltl/q/neqVnG/D2/BVTWJezqSE9YPwfnwn9E8LoJZOjK5OJYWOnHJ8RCd04SN10Nb+FfqWJ9hmJiVQ8woaal5Ji5VQasQuEnLQKiYk/RIySQ/Bg1U4+tbVwoGgeFTCfneEnCoyoG/+ANqq8bxvaxF8G6fDXz3XkBxt2sQuWPc5tGWP0nrHqvPQrgUI1L5BbzlizPhiHVzLEtL2wvvRf0LflNzTtydDMeqDw0fq4P2/R9D4ygAKncUJh3T4qiaiYW4p/NVLgFCQjUISmwj378TRRffi2N9upNBZnOCBNWh849c49reJCB3abaKdHUMOGb1SO7bkdtg/MU2RWCLbwol1cDN4Fz8XgZ0vJ1wxJ2U7u9CBHfAuH02hy+SV2rfl8C4ZxYYgMeNb/yqFLpMXOyEdvrVj4dua/DKRCpuXEEKI1aHYEUIIodgRQgghFDtCCCGEYkcIIYRQ7AghhBCKHSGEEEKxI4QQQih2hBBCKHaEEEIIxY4QQgih2BFCCCEUO0IIIYRiRwghhFDsCCGEEIodIYQQQrEjhBBCsSOEEEIodoQQQgjFjhBCCKHYEUIIIRQ7QgghhGJHCCGEUOwIIYQQih0hhBCKHSGEEEKxI4QQQih2hBBCCMWOEEIIodgRQgghFDtCCCGEYkcIIYRQ7AghhFDsCCGEEIodIYQQQrEjhBBCKHaEEEIIxY4QQgih2BFCCCEUO0IIIYRiRwghhGJHCCGEUOwIIYQQih0hhBBCsSOEEEIodoQQQgjFjhBCCKHYEUIIodgRQgghFDtCCCGEYkcIIYRQ7AghhBCKHSGEEEKxI4QQQih2hBBCCMWOEEIIxY4QQgih2BFCCCEUO0IIIYRiRwghhFDsCCGEEIodIYQQQrEjhBBCKHaEEEIodoQQQgjFjhBCCKHYEUIIIRQ7QgghhGJHCCGEUOwIIYQQih0hhBBCsSOEEEKxI4QQQih2hBBCSCaLnfKzLvBc9j9Q1Dy2bobiuGAwml39AhuCxIzr4mvg7DiCDZHJY+Ci++Bq/8vkz0vJl087XBdfDWenfvCtexX6J7MRDunswUxYOeXkQy0tg7NjERuDxDeGzmyNZlfPQKD2GmjLZyF4YA0bJVMWya0GQS0dA3teF2M+36gHt3nOhFr8R7i6DIK38lkEal5hb1oUmyMbat9ZcF38W8DpYYOQxCemNr2Q3fp16FsWQ1sxAWH9IBvFqgucrLZQS2bC2ak/oNiNG1OGf5Hcdsi6/s8I1NwErWImgger2LsWCzmovW+F7Yxz2RgkudhdcHW7Fs4Li+GregW+jdPZJlZaJCsuuHpNh9rzBsCVbfwCKmUrtbYFyP75m9A3fwBtxYMIBxrZ2ww5EHL6SdFzJtSSu0SUaPkzCHz1GhvF5Djz74LadziUFuelbgeZ8pXaJdcjZ2QVXBePZY+bNOTQ7MpXkTVkblRCF/pmO469cx/0Te8CQeZuyY8J1FTh2Bt3wL9j5enH3tntkXXjk8i69h0ozbux8cy4Wc8tRPZ//B+aXTk5pUIHALZwOBxO1xcPfbMd3uVPILD7HY6CNNP8/n2n/oHGfdA2L4065BBu3A9t7QLomx/50UBXi8fD0aYXGzzDCR2shbfi6R/l8h2tr4On9AEoZ7c//Qf4vdA3fwDlzPPhaF94yh899vYo+GsWsdHTuUhW8+DuXwZXl8sNzctJK3bHx+32CmgVUxFq2MZRIavYIQzAdvoPCuqnDVU7O46A2u9OKGe2ZsNnGtphaFULT3lK29V9AtSCobBlnZWUP0mxSx82xQXXJePg7jUENs+Z6X0WGcQOAKA3wrfpffjWTGY+T0qxOz2BnWvgLZ+G0OFN0b0EPadA7XEjoDZnB1h+KxeEXr0UvspJCGl7Tz8+HNlQix+D66IrALuLYmdCHG1vhqf/KCi57eQQXmnErmn/cKQO3pXz4N/6DEeLScQudGBX3NdLFDUP6oA5cF5YkrbwBjGW4J5qeD+aFNedOXvLAqglE+BoW0CxMwnJ6LOMELvjL8jeamjlcxDYt4SjR1KxC3sPwbfuVfg2PJz4C3JOKTwDJsF+Hk93WmYzV78H2qp58G97LuHPcrYbBrV4FJSWbSh2kmJzZEPt96i4b5vgbjyjxK4p9OH/ogLasjFRhT5IisQu6If+2d/hWzk16f3i7DwanqLhvLdnZvRG+Da8DV/VpKRWT2rK/6i9hwHuMyh2EpHsPKsRKAB+D2CfnE9nh7PzQOT8vhLughmwKS6OKgNCDlnXvxfjLzmhnNEKtmY/T/rz+Lc+g4a5BfCtXQjozN2aaysXhH9bORrm/QramgeTXybQkQOleR7gUGP6NXffe2A/p5T9YwCO1tchZ1glPAPullnoAgDm2iIbuxYAxgG4Hym8aB7zu3RoN7QVz8O/Yy5HmQwhh6AOffOHkZOXDclf6+TkQy2ZCmeHfsznSU6w7nNoyx41LO3gvvQhuAsSONEX4wEZEsW7aY46uKsA3Atgg+0nUcwOAJ4EcKXMTx/4aiO0ijIWiZUk5BA++h20qlegfzrDsNWjp/g+KD/rxM6TjHDjfmir50Hf8oQxfd9mCDz9R0M5O0kn+rTD0DYsgr5+GgvUx7lIdhdOh7vbVSkp8ZUAXwMYA+B4uR3bSVJ2lwF4FsCF8i4ldeifLTEkb2TlkIORohH6dju8FU8isPttY0T64rFQew+DLftsdma6iVzq1laNN+SqkJLTGZ6BM097YTzusXqwFtryZ+HftYB9GSUmyadrAB4BMDvy3zid2AEinHkngOkQYU45V5beQywSG03IoWQqnJ1KUjMPfrkK2rJJCDVsNWRlKfOJr0wgsHMNvB+PN6QIhM2RA7XvzJQ5aARqqlig/nSLZPPUwX0dwAORXd2/j60oDmO2iKjkCMicz0vgrhdDDpGFw5E6aGtegtLi53B3vzqxMMXxIgEPGZPPa94NntIphq38yQnesf07DS3E7LroT1D73JHYzj0chP+LFfBXL4K7zx9hP/cXp/+doE4roRO9Y+a5A7sRIi93ygKrthhuHnSFyOcNlH7VGWUVD4YcfipM31evER5Ts+C8sB9gi3+gh4/UQVv9IvTqp4xZdUpWpcGKhL2HoK15GfqnM43pw7wrRU3MVp0T+pxg3efibm7d338goPdB7TM8KgEVueeFhn1P0yySU2y9kwD7AEwG8EJU3yuOa3Y3RnZ67aVtgqAO/dP3DMsnWCnk4N+xElr5pJOGpIyciJKJ+9LJcBfcnPb6e5bC4B1PqhZUsZoLG72DlXqRbI66tRqApyI6VB+1iMd5p1yNbBsnApBW+k9UeZ8hh8gLHaPjhKvbOHGCM9EQ07YKaOVjEPLuNaQN3EVT4eo6iPm8RCMkteuglc8wJJdlU9xw95mV8lC5kpMPz8BZUYe+T7cQtBL23EJ4BkyDvfUvZX/UDyPa82XM4y7BAiqtIup6m8ytE/pmO7zLZiOwd3HGhxwSCdUk7fCA3ght/VvQ1z2EcMiXyS+ufO/Kod3QKp4y7JSiM/8uqEXDoTRPzMsskUNQjgsGw1M8OiYrIatGiUy0QPwCwCgAH8U9VyapWlgPiKsKBfK+xUH4v1xhKSuhmEIOUVjvRP2CJOlwSKj+a1EkYPsL6W+fTMfg+2f23D7wXDY94dqnof274C1/LCnXW2IJfYeP1EFb+1fD7hOmA5OE/ush8nLPQ1RCiX9jkOTSmMMAzAJwvrRNpzfC98l78K0Zb9pLpfbcQqglk+C44NKoft6o49XJuvAb3P1PeJdNRfDA6rTvfDNvKxeEf+s/oFVMMOS+quLJg7v/DLi6/DqxvJxBhQtsrpZQ+82M2krICgXqTXKoKwBgLkRlr/qk9LUBdaBVAJMgSo+psrakGa2EYg05nMgN2pgVYoKlnJp2ntVL4Vs5xbB8Hq2EftLke6rhXVaG4LflBiwy3KJoc8FQQD0jsXGxZTG05WMMucLyowVk8Xg42vSKboGwvVIsEI7WmGf+MM91nY8h8nKfJXVMGmh60AYin3dTpr7w6Qo5NFnvnMoNOumTm+ssqP1mJGy2KZ79Nfg2TDNmVWueC7LGLvRWvJAU650T4Wx/C9T+d8Vlx/PjiMS6SERibcraxtluGNSSe6ILfR/PPU+WOkpkokIMOyEuhb9rSDukwOGnBOJ+3sWZGspJWchBgmK39tw+kRVyz8S65EANtMpn4a9ZaMyklolWQgaH8O0te0dMO3sl1vcHa6FVPGNY359+V+qCq+cUqD1uBNTmp3/eJPr2JRuTlNirhyjx9SR+UuLLbGIHiMort0Pk83KlbXKJisTGGnIQea8p0hTHdnYaKQ6HtEgsfWtkkQATFbVNfDH35Qpoy8YbEnZL9q5eRCR8aW82Rc2DWjITzs6/iir0LdM7aKLi6S9B5OUMt5mzpdi7tQVEPu8eyG4lZODx62SGHGReVdoUN1w9H4La43eJ522MthIyh11J7GPZ4Gs3ru4ToRbcnJiDRjgIvfr/4KucaEi+NuEd6zml8AyYFN1J0jRHV0xki1UFcZVgQ8rmozQZlXeAuKpwucy9EahdB235rJSt1GIKOZgkXwCIE3lq6Rw480sSO5HXuF/cEdw0O9NXw9G1lYEFFRytrxeVdRI9ibunGt6PJhtyEjfp0YoYQt+pzpvbFBfchbPgvuQaM1jvjAeQ8p1EusSuiUEQcVq5rYQMLhLryLsCngHjoptkTXoSLOYV8qmawGgroST7/aV8vBpYKk/J6Qx1QBmcHfom1oeH90BbKWdEIpmikooC9Say3nkcQBkMzMvJLHaACGc2lR6T2koo2cVwYw05GO0GnboV8t3wFN2R2MsZDsK/YwW0imm0EmqKRBia38yBu/BhuLtfm3D1HN/Gt+FbO1mKvFyq3l0j7roma/GYAl6HyMvVpnWhIoHYNZEbUX25rYSSUCQ21tWhFas32BQ33H1nJ344RG+E79O/wbd6vDGlx1oWRE4YSlwc6MAucZ/SSOud3rckvjj5YgW0ivGmi0gkLSqTpCpGJrozuhkiL7dSijlHIrFrohtEaLNY+lV0HAaWMYUcLF6XT6yQO0MtmQJnx8Qr33tXzod/69PGTGoSVp0w2rjYce5vxJ3EaDzhTiXG+7bCu+xRwxwvZCCWfHu89WljvRKRRg5A5OVeRIIlvqwudk3cCGAOxOV0OYlBjGINOWRSxXUgcuCh5F4o5yR2OMTYqiAuuC4ZB3evIemtJxjUoX+2BFrlOLmtdxr3Q1s9H/qWP2fEGD5uJdT9muhOUsfgPGKSOq8BCOudMiSpxFemiB0gyo09AGAsZLcSWj3vhGHGmK13MthLCzCRlVD/Mri6XJ7yMFLgq43QKsoMOSFsU9xw9Xo48TqixxeBEwwt8SVttCLGO7KnWtjGVMYsvSyFCFl+KesDyi52TbQC8BiAoTI/ZLDuc2gVjyGwd3HMIQe6JP9whZwTORxyZWKHQ7Qj0Da8CX39w6a3Egod2i0cInbMNeTznZ1GQu3/h4Std0R4f4Ihh4ZMF62IJfR93JtvMsKBxpgLVKeRLyAOGEp/as4sYtdEb4h8ntxWQrvWw37WedFb7xh8tSFTVsgn7RKjrYTy74LadziUFucl/8P1RmjrXjfWemfA1IQFO7R/F7yVzyBQ+yoH7k+I1UpI374Wri4lZrDemQZxXzpghn4wm9g1cTtE6bFWZn4JjHSDthLOtkOh9h8FJbdtgu29PlIkwARWQqEg/F9UQFs2xjjrnaJpYueQSF7OewjamgVJt96x3MLNPCapp32NIKx3JkEcRDENZhU7QOTwxkFyK6ETzmMHa6EtfzYt5chMvULuMQXuXoMTtxLashjaiokI698lf1LLaivqKXbqH3c+L7i3Gt6PjbXekb0drUqsXpSSsRwiL/eZGR/ezGLXRAcIK6EbpH9SiQpNm3aF3LQj6XJ54kWHq16Fb+PDhjxnPFZCRnssJnWHXD4jpdY7lotWmON0ZRO1AMYAWGTmNreC2DVRAhE/lq+cgATWO9ZbIZsj1+S66D6ovW899b3KpsMJq8YasghSmneDZ+DDiVvv1H8tCqTvfJkDMCm77Mghtl43yVrPshHCeucxpKnEF8XuFAtqACMBTIckVkKh+r049v790pvDmnaFbBIrIc/Ap+HsesW//b/gvh049rffG3Kf0iynWjM+WqHmwXP9a3CcK1UB8oUQ1772WaadLTZuAgCeB9AR4nJj2k8JhfbvotAZiH/7C2ic3xfaqpcAPf4qM472hci57R14ip+BzZGT1GcMBxrh3/7hiQfsN/8yROhc3cYhZ+RauC65Ln6hCwfhr16Khnkl8FVNpNAZNUdoexH8drcsj1MFoBDAMCsJnRXFrol6iLsfF0FcdiQWJhzywbd2LBpe6A//1o+BcDDObaIHrh6/Q86I1XB1G2fO0Ebr65FzSyU8A+9NyLUhuKcajQuG4diS26T0mCNJZx+AWyCud1kyGatYvAO3QdgIXQVgJ8ezxVfI3r04tngojr46EsG6z+P+HFv22fAMvBc5Q8vhyLvSHC9yTmc0u+o1ZP3HfyVUci18pA7HPpyOxtcGMiKRGWgAZkBEwyx9PFzJkA79AEA+xImieo5vaxOo+zsaXxkA75JZCB+pi//laNUZWYP/B82ufA1KVlspv6vIyz2BnNvfh7NTSfwfpDfCV/UKGub2Np3HHImbtwB0hrgz12j1L6tkUMcGIE4VdYa4FBngWLc2evVTaJjfH751r8afz7PZ4cwvQc7wf0At+jNsilua7+fsfDdy7qiEu9eQ+E/zhYPwb69Aw7xfQVv5J+blMoNqAKUQxfZrM+VLKxnY0fsgTmz2BLCK497ahAMN0Fbch4YXr4L/ywS625UNd8HNyB6+Gs78u9L6neznlCL75mVodsWEhDzmQt9ux9HX/hPH3h9sKY85clIOAPgDhI1aRaZ9eSWDO34TgCIAQzJpdZOphBq24th7N+DoG39E6Nvt8b8wzc9DsysnI3vwx7CfU5ral9WTh2ZXLET2sAUJecyFG/fD+/GTaHi5PwJ7P+TgsD5N1jsdIU6rZ2RUS+E4wGsQoc3JsMDFSXKat37322h4uT+8y55B+Gj8Za7s53VB9rAF8Fw+H4onz9BntiluuAtmIGdkJZydB8ZfyzKoQ9/wJhrm9oG+aTYHQ2awFOJU+r3I8PMKFDuBBmE4WMimyAz0T2eg4YXe0D95BwjGWbXEZoer62+QM7wC7oIZhuTznJ1GIvuOVVCLRiRUZSOwcw0a5l8N7/LRGekxl6FMhjiNvo1NISqOkO/hSc0MIhxogLf8D9A394ZaMiH+clrqGVCLRsD1i4HQKp9LSjkte24fqKWT4Pj5JQl9TuhADbzLn6b1TmbyNZuAYkfIcYIH1+Lo21eLQsklo6G0bBPX5ygt26DZtXMQqPkdtIqZcRVKNkuha0IodoSYFH/NQgS+WpSwBY6jbS9k//yNmC1w3Jc+BHfBkMStd6qXQls+jtY7hFDsCDnJjijkg2/DNPir/xfu/jPg6vLr+A6E2F1wdbsWzo79oFW9gnD9ydMmjjZD4Cm+O3HrnX99Aq28zBBzWkIodoRYkJB3L7xL74C+MTErIVvWWfAMGI1ww4lr6ro6dIP74oGJPWv919BWPA//9hfYcYRQ7AiJneCB1Wh849dw5t8FtWg4lObnxSd6Oa1OKoZxozdCW/c6rXcIodgRkhz8255DYPsLcPeeDvel16fXbDMchH9bBbTyMXQkICRKeM+OkGg1JuSDtvpBNMz7FfzbKuK3Ekpkp1n3ubDeWTyUQkcId3aEGEfoaA2OfTgYjk9+A8+AB6G06my80B6pg3flfPi3Ps0OIIRiR0jqCNT9HQ0L/w7XRX+C2vuWhIoynxS9Eb5N78O3ahzzcoQkAMOYhCSqR1v+jIb5/aFveBPwe5P2uf7tFWh48SpoK+6j0BFCsSMk/YQDDfAuH42G+VckZiWEiPXOG38U1jsNW9m4hCQBhjEJSSJNVkKONkPg6T8aytntohfMo99BW/syHQkIodgRYg4Cta+iofZVuLpPhFo47NQlwII69M0fQlvxIB0JCDEIhjEJMRBhJVQE/xflJ9a5b2uE9U75Hyh0hFDsCDEvYf07+KsXnXgHWLcLocOb2EiEUOwIIYQQih0hhBBCsSOEEEKxI4QQQih2hBBCCMWOEEIIodgRQgghFDtCCCGEYkcIIYRQ7AghhBCKHSGEEIodIYQQQrEjhBBCKHaEEEIIxY4QQgih2BFCCCEUO0IIIYRiRwghhFDsCCGEUOwIIYQQih0hhBBCsSOEEEIodoQQQgjFjhBCCKHYEUIIIRQ7QgghhGJHCCGEYkcIIYRQ7AghhBCKHSGEEEKxI4QQQih2hBBCCMWOEEIIodgRQgghFDtCCCEUO0IIIYRiRwghhFDsCCGEEIodIYQQQrEjhBBCKHaEEEIIxY4QQgjFjk1ACCGEYkcIIYRQ7AghhBCKHSGEEEKxI4QQQih2hBBCCMWOEEIIodilDZvLzUYgsKktT/zvTgcbh8DmsLMRKHbmxn5BT+TcugqOCwazMTLxBVPz4Pn1PHgGTT3h/3f9ohhZN34Ie24hGysTx0fzbsi69h24upSwMYxeUITDYbbC97QBUGPUh/t3rIRWPgmhhm1saau/WIoLrkvGwd1rCGyeM0//C0Ed+mdLoFWOQ1g/yAa0/E4uG2rfWXB1vwawu4z6M3cAeJGtTbFLudgJxfNC3/wBtFXjEQ40ssUtiKPtzfD0HwUlt13Mvxv2HoKv6hX4Nk5nQ1oU18VjofYeBlv22Ub/KYodxS6NYtc0qR2pg7b2r9C3PMFWtwj2lgVQSybA0bYg4c8KHdgFb8XTCHz1GhvWKougvCvgGTAOys86pepPUuwodukXuyaCdZ9DW/YoAvuWsPXN+hI5sqH2exSui3+b9JBUYOcaeMunIXR4ExvapCg5+VBLpsLZoR+gpPQgCsWOYieP2IllfBD+7ZXQKiYgdLSGvWAiXN0nQC0YClvWWQauiHTon77H0LfZJlfFBXfhLLgvuQZwZafjESh2FDvJxK4JvRHa+regr5uMcEhnb0iMo/V18BTfl8qQFMKN+6GtXQB98yPsAMlxdh4NT9Fw2M44N52PQbGj2Ekqdk0bvfo90FbNg3/bc+wRyVBy8qGWlsHZsSh94+Ob7fAum43A3sXsEMmwn1MKz4BJsJ/XRYbHodhR7OQWuyaCu/8J77IpCB5Yw55J94viyIa7cDrc3a5KV0jqJ4oXhP/LFdCWjWfoW4ZFkJoHtWQmnJ1/leq8HMWOYmd+sWua1PTqpfBVTkJI28seSgOShKROjN4I3yfvwbdmPEPf6ZhAFRdcPadA7XEjoDaX7fEodhQ7E4ldhLD3EHzrXoX+yWxOainC0WoQ1NIxsOd1kf5Zw0fq4F3xAkPfqVwEtRsGteQeKGe2lvURKXYUu5NyfkTspC1YGDpYK+5f1bzC3jIIRc2DOmAOnBeWyBSSiorgnmp4l5Uh+G05O9Ig7LmFUIvHw9Gml+yPOgQAL2pS7E5KPoBnAQyU+SEDNVXQKmYieLCKPZasl0FxwdVrOtSeN8iRl4t7RRSEf+s/xFUWhr6TNz5cLaH2mwnXRVcYWeIrGXwB4F4AvLxLsYuK3wJ4EkB7eZfxuig9tuJB3r9KEGfHEVD73SlzSCp2tMPQNiyCvn4aQ98J4uo+AWrhLdHVOU0f9QCmRRbrAfYaxS4WHAAeADAWQAtZHzJ89DtoVQuhfzqTPRYj9txCeAZMg731Ly37HUOHdkOreAr+XQvY4bFOABcMhqd4NJSz28v8mAEAcwFMAnCAvUaxS4RWAMoA3AaZ83nfbId3+RMI7H6HPXYaFDUP7qKpcHUdJHtIKnkzYu06aOUzGPqOZnzk5MMzcBYc7aW3XloOEbJkPTmKXVLpARHa7CvzQ9JK6NS4L50Md8HNsoekjCGoQ9+yGNqKCbQSOtGE2GS9c/FvAadH5ketBTAGwCL2GsXOSAYDmAVxVUFO9Eb4Nr0P35rJzOdFSMR6x2qEvYegrXmZoe8f4LroPqh9hqfCeicRGgE8AuAxABp7jWKXClQA4yDyeaq0k9qROmir50OvfjpjO0pp3g2e0ilmCEmlnND+nfAufyajrYQceVdALXkA9nN/IfujLoQ4Q7CPI5dilw7Oj6yybpL5IYN7q6GVz8koKyEjrXesRmDnGng/Hp9RoW8lq60o8dWpv+z3Kasg8nJrOVIpdjJQBJHPu1TeZXwQ/i8qoC0bY/n7Vyl0g7YOfq+4ymJxKyGb4oK7oAzuHtfLfp9yH0RejsdoKXZSMhLAdIgTnHJiYSuhdFjvWI1w435oq+dB3/KE5b6bM/8uqH2HQ2lxnsyPqQF4HMBsiBwdodhJSwuIfN49kDifFzq0G9qK5+HfMdf0DZ5GN+hYlQEaFwAABupJREFUqQIwFcAwAENlftBg3efQlj1qidC3PbcQnsvKZLHeORVvReaOLzmNUuzMRAeI0OaVUk9qJrYSksANOlq+BjAePw5J9Y6MjwJpnzoUhH97pSg9ZkIrIUXNg7t/GVxdLpd9EVQNYBSACk6bFDszc1lkUpN3WRnUoX+2BL6VU02Tz5Paeud7mkJSZTj5UfHbIa6ySB369m14G76qSaYIfdsUF1yXjINaMFRG650fcgDAZAAvgCW+KHYWwQHgToh8nrylxyJWQr4ND0vbkJK5QZ+K1yFCUrVR/Gx25Gfvh8yh7/o90FbNk9pKyNluGNTiUVBatpF5bAQAPAcR0q7n9EixsyItIBLPIyBz6bEDu+CtfFYqKyETWe9shghJrYzjdztExscNMn/B4J5qeD+aJFXo296yAGrJBDjaFsg+ByyFuErAEkcUu4ygK0RoU24roZ1r4C2fhtDh9JXek9wN+ofsgwhJvYjEQ1IlENXr5d2+hoLQq5fCVzkpraFvmyMbavFjZrDe2RkRuQ84/VHsMpFrIS6l00roBJjEeicA4CmIvFwyQ1IOfH+VJVfab68dFq4bn8xOeT7P1X0C1IKhsGWdJfP4qAcwI7K4ZV6OYpfRqJEVn9xWQo37oa1dAH3zI4b/LRO5QS+FCFkaeVS8RURI/x9kDn0frIW34umUhL4dra+Dp/QBM1jvvARhvcMSXxQ78gNaQeRrbpP5IY20EqIb9CnJj+wOLpd6hq+pglYx0xArISUnH2ppGZwdi2R/l1dFFkG03qHYkVMgv5VQKAj/lyugVUxNWj1Fk1jvyOAG/dvI+JA79L1lMbTlDyQl9G1zZMNdOB3u7teawXpnPIDMraxNsSNxMAzi/tX50j5hk5XQqrFx52voBh1fs0V2lhMhc+j76Hcin5eAlZDrovug9r7VDPcpZ4DWOxQ7EjdqZIKV+v5V+EgdvCvnwb/1mah/x0TWO8shQlKfSfhsrSDyebdB5nze/p3wlj8WU+jb0WoQ1NIxsOdJf59yIcQdya85XVHsSOK0gcjnyW0ltKca3mVlCH5bfvJBZx436J2RScwMbtDdIEKrfWV+SP+OldDKJ50y9K2oeVAHPm4G652Nkd31ShCKHUk6RZFJ7WJpn/AUVkImsd4xsxv0YIjQdxt5Fc8L36fvwrdm8o/yeTbFBVev6VB73mAG653xEPcpCcWOGIgDop6i3FZC2mFoGxZBXz8N9laX0Q06daiRHelYSB761lbPh179tLhP2f+PZrDeeQoiwsISXxQ7kkJaQOTz7oHE+ZpwwzewZeXSDTr1nB+ZmKW2Egof/hq25ufL3pbvRRZBtN6h2JE0YgorIUnJBDfoosj4uJTdHTPVkUXQR2wKc6OwCSzBlxB3r34DcdmZnJ6mo+IdLS50gDhA0QPAHWAlj2ipB/AHiIM/FDru7IiEOCCOyU+BxPev0sxbECGp2gz87i0g8nn3QOJ8XhoJAPhviPQA83IUO2ICciHuX0ltJZRi6Ab9PR0gTptew6Y4zscQIcvP2BQUO2I+ukJcVSjO4DagG/TJuQwin9clg9uA1jsZAHN21uczCG+030Ve6kyiyXqnI4DnKXQn5COIvNRoZF7Yrh7ivlxXCh13dsRaqBC5qrEAsi3+XekGHTumsBJKEk11Tnlgh2JHLIwprITiZCdEXm4JuzluukKENgda8LutiiyCNrCbMwuGMTOTfRAVWAohLlNbgXqI+3L5FLqE+Qwil3cVrBP6/hrAEIg7hxQ67uxIhjIMwBzIXHrs5DS5QY+DHNY7VkON7ITGwpxXWTSIOqezQesdih0hEDm8cZDcSugn0A06dZgx9P16ZEzXsvsIxY78lDYQ969ukPgZa0E36HTRAyKfJ7OVEK13yL/BnB05kZDcCKAUwGbJnk2DuC/XmUKXNjZA5L1ugXxmpfsA/B5Abwod4c6OxIIDwEgIK6HcND8L3aDlQxYroQCAx0HrHUKxIwmSTiuhjRB5ubXsBmlpExGam9Lwtz+ECFnSeodQ7EjSyIfI11yegr9FN2jzkUoroS8iiyA6EpCoYM6OxMI2AIMgrISMun/VdFS8I4XOdKyEyJf9HsZVJqmHKG3WlUJHuLMjqcABET6aiOTdv6IbtHVIdug7gO9LfPE+JaHYkZSTi+/vX8U7qdEN2rp0gAhtXpnAZ9B6h1DsiDR0i0xqsVgJNVWdp/WO9RkUGR8XxvA7OyFOey5i85FEYc6OJItNEFZCQ3D6ihUBAM8BaAta72QKSyDybNFYCTXie+sdCh3hzo5Iy6mshD6GOEVH653MJRfCSmgE/j303VTnlNY7hGJHTMP5EPm8oaAbNPl3fmglVBUZH7xPSQzh/wNJkLxGJlCDhAAAAABJRU5ErkJggg==;" parent="1" vertex="1">
          <mxGeometry x="-20" y="-376" width="58.18" height="57" as="geometry" />
        </mxCell>
        <mxCell id="_H5qRs6Hh-SQ7Uu5_9nw-94" style="edgeStyle=orthogonalEdgeStyle;curved=1;rounded=0;sketch=1;orthogonalLoop=1;jettySize=auto;html=1;entryX=0;entryY=0.5;entryDx=0;entryDy=0;strokeColor=#666666;strokeWidth=1;fontFamily=Helvetica;fontSize=21;fontColor=#808080;dashed=1;fillColor=#f5f5f5;endArrow=block;endFill=1;exitX=0.5;exitY=1;exitDx=0;exitDy=0;endSize=10;curveFitting=1;jiggle=2;" parent="1" source="_H5qRs6Hh-SQ7Uu5_9nw-91" edge="1" target="_H5qRs6Hh-SQ7Uu5_9nw-129">
          <mxGeometry relative="1" as="geometry">
            <Array as="points">
              <mxPoint x="-10" y="-263" />
              <mxPoint x="-10" y="43" />
            </Array>
            <mxPoint x="361.2499999999468" y="42.5" as="targetPoint" />
            <mxPoint x="447.25" y="-280" as="sourcePoint" />
          </mxGeometry>
        </mxCell>
        <mxCell id="_H5qRs6Hh-SQ7Uu5_9nw-95" value="&lt;font style=&quot;font-size: 36px;&quot; face=&quot;Caveat&quot; data-font-src=&quot;https://fonts.googleapis.com/css?family=Caveat&quot;&gt;&lt;b style=&quot;font-size: 36px;&quot;&gt;Data Product Descriptor&lt;/b&gt;&lt;/font&gt;" style="text;html=1;strokeColor=none;fillColor=none;align=center;verticalAlign=middle;whiteSpace=wrap;rounded=0;labelBackgroundColor=none;sketch=0;fillStyle=auto;fontSize=36;fontFamily=Helvetica;fontColor=#4D4D4D;" parent="1" vertex="1">
          <mxGeometry x="-172.32999999999998" y="-502.5" width="362.84" height="55" as="geometry" />
        </mxCell>
        <mxCell id="_H5qRs6Hh-SQ7Uu5_9nw-96" value="" style="shape=curlyBracket;whiteSpace=wrap;html=1;rounded=1;labelPosition=left;verticalLabelPosition=middle;align=right;verticalAlign=middle;strokeWidth=3;size=0.5;strokeColor=#CC6600;sketch=1;curveFitting=1;jiggle=2;" parent="1" vertex="1">
          <mxGeometry x="-340" y="80" width="60" height="800" as="geometry" />
        </mxCell>
        <mxCell id="_H5qRs6Hh-SQ7Uu5_9nw-97" value="" style="shape=image;verticalLabelPosition=bottom;labelBackgroundColor=default;verticalAlign=top;aspect=fixed;imageAspect=0;image=data:image/png,iVBORw0KGgoAAAANSUhEUgAAAbsAAAGyCAYAAAB9ZmrWAAAts3pUWHRSYXcgcHJvZmlsZSB0eXBlIGV4aWYAAHjarZxpdhw5koT/4xR9BOzLcbC+NzeY489niBBFUZSqe2ZKJZFMZkYAcHdzM4cjzP7v/zrmX//6l3PWexNTqbnlbPkvtth855tqn/+er87G++/9b4z3O/fr62b491t9DXwNzy/yfr66zuvp5wdKfF8fv75uyny+8fW90PuLHxcMurPnm/d99b1Q8M/r7v3ZtPdzPX6azvv3TH9/ncbzq68/x8JirMT1gjd+Bxcs/1bdJeivD53X3P1Xb3L3lRAy/6bgv1878/Htl8U7/R3hl7Wz/X1H+HUpjM3vG/KXNXpfd+n7tbsr9HlEzn5Y7ZdfnOp/LN/va3dWPWc/s+sxs1LZvJOy7yXud7yR5Yzhfizzp/A38X25fxp/KlOcWGxhzcGfaVxznjU9Lrrlujtu36/TTYYY/faFr95PH+5rNRTf/AwyQdQfd3wJLSwTKjaZWC3wsv8Yi7v3bfd+01XuvBzv9I6LuWvZL3/Mdy/+b/58XOgcuS7xV6/p3WNgL69hGLKc/uVdGMSdd03TXd/7x3yY9ed/MmzAgukuc2WC3Y7nEiO5n74Vrp0D70s2GvuEhivrvQBLxL0Tg8G7o7PZheSys8X74hzrWLFPZ+Q+RD+wgEvJL2cOtsH7MU71ujefKe6+1yf/vAy0YIhEiBRM00LHWDEm/KfEig/1FFI0KaWcSqqppZ5DjjnlnEsWRvUSSiyp5FJKLa30GmqsqeZaaq2t9uZbAMJSy62YVltrvXPTzqU7n+68o/fhRxhxpJFHGXW00SfuM+NMM88y62yzL7/CIvxXXsWsutrq221caceddt5l1912P/jaCSeedPIpp552+ofVXqv+ajX3xXJ/t5p7rSaLxfu+8tNqvFzKj0s4wUmSzbCYjw6LF1kAh/ayma0uRi/LyWa2eYIieazmkoyznCyGBeN2Ph33Ybuflvur3UyK/5Hd/J8sZ2S6/w/LGZnutdzvdvvGaqvfjBKugRSFWlMbDsDGG3btvnblpN+/jhxmWNulVcpMTJE7x7CCL2M1V/ZpmMtHU5qNdc1dbB8MqzhZoU67c+Vme4xKEJGH5sF4dXeCcI3JIJkS7jHSWbPjBCa7MXJzrk4u7io/VqzvRuH6rMIZ4YCK4POuqfvTUmnbu1bOSAym2MVq2L6GiXkd32Zee/hsuVDL0w8bZk9lKCcXC8yng1E3cGT9jD6NUsdeo7c2XR5ntJhIkL3kvfA1V89avU0Gg5eVkm0L1dUFntczAxfhf1s3s8RYqa+SFxi9nFt7ko5SLiyJj3vZHd3EVBoi6TgwznLTclgzhrwsrhBmxZ/zWKlVBhoL3jNkeIPRcJPgZ8feY43dw0jxhFjaaPn0libuVEIaMezE6FaZrt2VB8UCV9laL9aIl/0qLi+SEt5q05qpx7hL7seuA57GMsdsrlk/Jku5D/4UwsEg0/ljNwuWt/FlRc+M4/IlRVaPz5Cextihpcp4GjNvFpewpSU/SGqxrZVibMfnhHv5UvuZxpbtw7E5kTdXLnHjR9Vik7r3DqdtlhxDZjdlA9jPXqESID7aTgyQc+S7e5pACtQU0iLJpm0PCVGR0ljT7gMBdlpwwxM/vohe4Xa4ViyHIPYJ8yxcxB2T9uCu+VSy2WKNEh8+C6+Ly2HV0dyOxGlMK1blmLJjvowjAFJtKKO71SMIiSkbyXEd28YMXJRw2gf8a/4UACb6ng+M8rA+JMSRvd1g6nQn5UnEjlpDWtvgu9nht4RTIASqcCMOq+F0oMcCVy0XuO4cAcuF0TFiTnWnNlbNF1eJZRAS6+jj2xGWtcdWQNrkNigHGNUsTzkux3DmjHxbp4bTcFGM4UaoO+L+sJG1dgZjG3HmOuESGambdrJIB+wIMflZQszD41t91xkI2UgM4Kq+4kpy5BSqmc3vPEBOoOEOriwtupNTYaJdfWydRa8ON+eHzLqT9vldLoDVdkChbZMLETnYgQHIZ2XBmndfOwldaw+tW9aYKbtZu2syHpOLbiv5V1ancvMxjgHmV8DlS5osubB1BBwtHGJ4rwZ2hEMCgGMPQgYcwDs8y3Jww+7jabC4DmibDEIUTabgcrPKuQf/OX7ctebMqPqsiSSFI+qKkClWJxYfFgv3w7W9+fHN374OR5pypfUGHpKbMsYJi/+IzQU9dK4140QaQbCETeFs11RaKfL7Aji8wMyNTbpyiTQUgRYLsozWmCA4tpTFtdhOH/Lk1bb5O7dFUiRFXo1nutJdqX5EDBsWUAMCs5yZpWNcnsWaQn47AkQLz8K3oyMkbY6KwArCuHEwb2439A6es+DKkWx9MEDeGzOy8qwatrx2NAw7JZIRNJscFO0pZTEE1gWwZt3LgjdPHG2vPvda5HQyUuEfXB1ox80CX6MBbXzum+jM+Cgu6JaHFcx6do7k1WcY9XRIQuwAUnE7tyFckS8mz4JZ2IHh41BgULGCpG2uRPbDrhlC0KdghIxP7IMexHUZ2OK0BXnp/eAd4AOXcguEHDWcXZp3+CDI0Gfr5PDJbOM6Y0RXJhwLVFrkTt/jWPj9AeM7kA8irwjKBL9Nz36X4U8EKEWqiLQF/BOXnnGBAaGBUCmIagB9ECOigvCNa5Lixyr4yvAVVhuF6cTDOsA55oFOrVpAdSgal/YdGsJi4YjnBOzQSWggfw5ckCSARAFjfDOzerJMgcNs8Z+1Nx9rA0DeEZvg0jtdL9XcQmgtFvLx6X1zcXiPI2AAum2OaDtQWktnNRBGwCvJdoBcScAeO6EcGUSyE7wCKCD2R+pgZkYA3kEe8FaT6lysFutXo8/kSqiys0Rjw4H24QpetKbXTQpiccQDZqqwVC5MQkuVxDYjMJJ6Y1FIFbgyJhSpC9OFTYIvABccEA8rLPoELBZYTg4CEnvywDZwHGYhlgas1hZSLVbuQ2Rqkoz6IUnjJERNyquHzHJv/k0tSBTi544xbay/qrJjGSkbgD11kgK3XqAQqXnDgI/vWsuikgEDOhGwBkYgGN7i41l56np0UEACucXU1hlh5FIhbWgLwA9ewIxJ/mAzQQXLJREgoXQPQPIok3OJ0CthIZQCVbYhBfhpMSnJV8OwifkTBfJtrC3n5mLryhALUZoBUm4rTBRuXmBtLDuODmGfcy5IGDIO+sCQM0GaMhAERYEmjcaLoAGi4QygmKWEv6SEJsD9KoQLL2JxTWFlIbstSmeQllN3m+nGI6w+ybJwfI+D8uaRqlgf02R6iTFtSBmfUCoxXCcS5CTjzUBZBThkWLYMwjQpmbIWOBzs4oSEQwt6/YE0u+vUZMFOmnGLoBU0MLsw5RzE6YBpYiPYaE1T/iTHGaLHhHL10hdTOY1MgguPTUDABw1GIiAjhEbOjVXbSQyXEXpoXBWKVDjdhr6A9bxKEN2CV4LwL/CFiYLhndyPqTtcuUIfiFHJKuJA2oNIRVttfIkQg4SQdHG343qxTaWMiZptEteEHglyFPfGqOQ2qeCNUQ/cguI3RhkNsSP1dAbJJRdRUJEp5BSMH2ToJibkRhOkF7LDGSxIUhrA/TwDS4yOON+wSKgC1JhxgTTtrCopgfeDYmFMYARSBdghIeD/CzaAH6W1pMWyEh0ZKpEeynLACsuSvv/qzIYP2IjlYj+Y6aDNJDngH8dj3IJa8/YS6tMIUhLmQR0VYJAsRCY9yoQeYPNrZTgioMVSgUZ8HqQPds89TgFY0U3gHjDIwKL+J+OQ9PtuUEDd8pCna4H6oasQhrYuYgtVPIhi9O5AVMe1IfUBHoderDNXIjiNemdDKLpV77ySqpHm/SYRgzUFMcyM2yC0GlobWo30J30zK2TcsZhLyRT1Mn05BCgchOU7R1I0Ouhtq5ZMWbP38PSNgqoylAKQ8N45IeZIAT7dddCtUFsoE5yQOWSMY7DLBiOgWoFwTyRtzbvZsxAvUq8MEq45pcvh8agZePkAt/sM3MehTUnceRn3GDBNEvPPGT9f8cARs6p3FekOCfJyUNFzMsVBYZJnkzTNbmgR5u8KsQdzROphTxCH0MRmUilk0UMGaAcESGQs+A2WKKTPSvQyurOhSjZnmH8lO01SMOjKiGV2zQ9icEQuwB750CKeufaBcAsXud8V3XoPHoh0MOjljTwruCIRClJPNCVc5/wDswSzAhKM9NAINUs62gswJ2Lk2uTtIbJVMb0AjGWIl0UiqxmVh7UMxtUZBnz5kzuebX5xxxVA4We4XqJ6FVUMu0NcZJbRj3AvWzoDBregl+eo/NJtMo/JkKG/hyPiGePcy+aAngFTD5Iiw5Z/eCSjfn3S3OFdn0z3+q3DTAbuYpEHoFYByg6eDj8D8ll6WBuk1+KZC6n+8ar5+XLMejsaggu0lvgtUXVifLwqW0TUFz9T4eVU4UFO5jAshpyVTmFRKlqwKhOB070MCvwh8lBOp9y6TpwkGtgMJAmAOXO5hcfPaICMcYPCV/Q2xhoW8sclkCUAa/k3vKoJv02B330Z8KevifQGI7LzcmeCGXQlJ7MycwmhW86EkPeIY1ggwEX6gfbibiJQ/maoC4oa6bewCPFEViHVVKjaaHgwu2gOLEkc0EQuLhXIu5qNPqmMASIhfmHAoUBVPFIBH8Dpdm/xqm253jaP55Hrru8RAa/3QWYd3J0Fz6yMJ+FqaTv3PmSVQsyTU7xijuTmL7DlDz91109fKP3ipKAndAEGA2ur0DjxzRgWSICIlIQAmVDrhGGKcXWURMkWFpq8NCY32LhZqXm6lJHrovwNsuTmHQtEzuM/e6xh4FtTxCHAsEHB7NdGWYUANYIMcS1I6ajAMksLyYtwcbAG7EW6cznVRRB5ZRnfoXYg7IAr82fPA99GaULsJuRo4iqnFZnoBITKEQavA89FYlTxYBABTHMG6oM/9ZxI+A3ih1CuIJYLdqXMchziDhGEUOZCQ1kqAawIGQCfVQn4UZazGVXI4M8b/5WTDLQcmLsS5AzahSJNEMSCXOM9Mk9D4VicKGZ3WSBhiiBI3eAEm9TKunANVWoILi483IR5b0SRIyQHAIcglRzot5qZwPHlyclDhWUkwTIvIQRlVSvQjkISQkLYhB/41dldQpEICWiQ5FEVDgYvMD0I1inXQDkYUNoiXQK2V2WGnLLxDDwKO20GqdoYbpMyWaOiAhrKu2sbqMNcHdxea1oyU4MESgYry+IiRIM2ky7CD3LP/Kj/fgsxkyVUrOUK9YMqRLyZ+LHR9hmLVRGg5rFYzluUhZIySqgXwuBiNtA4haLDSdkia8oxR2sinz0qbSXddzl4LTwJjxZklk06uckDxbj5rLDyZD4C6UmSIth8mga7wiWqn9qYS5Lm6AKoYOPCy3FB1TPJ+Yq/7tD+JA2WC0XkCmwvkRXRxIQICmbBerNYr6JCmdiragv8V3QMjsIifsLp7NF0HvoOdUQOciES3jCD8TFZrzVilUEfFTewjvZb0e3gGlzXIosi6g+2D/9FJYzhmCdao0y/O9zWLO7REELgWL91+czU2hH1CAI5bWAQ7YhElSslEO2AtuE5AFascQLsBIn40d0TD1MA+Ow0l2fDBpEG5W7KynhiKMRzXHB3TLTR58iCWAE4aAo8dBmV5FgNfNVFiCc/XFEqHjTACRQnXpMyOjKgmxrqv2ckA2NbIzXskieeFrepJGIVlTZXLJe3FkgovGsio4j04Z+iy53BXiwggyBvauckeYfWnTCGDBlFtU6k0k6wMsiUldmhnfj1uhUX9JJgDCU3JRKDiineMzulOsJwJG0QJSNcbBGK6TumkVJhQUj/aE3JigkDBYgEPwA/Dk4UoOvtYjjonZQFNn3PYVTHBOqq5GeBhyO05/AdBajKPRpun4DXZEGPgzQ6EiK67TAFx/LAlcICupwh5ecOq18nzY0DK9ZJn/gAtBKzc0l+gzkKV0fgOlQu4MZdVGaLw+KygEo1XFlaObimuj+wFFXzqLia6j0QX1inVs8N1thefQmfByVadYjpLXK3cTNzZSo3A39tREVzY4a0b+Cy3lO6kqhWUUHbPdiSxBiyY/D9kNB6Z0yM0wRWEQDjslZVVSKTaUKP+/VSic4rYAayjKSD4bbY/mzVe4iKkH2rXjGMSsDhpi2SBbIBju8TfKHPstMCmoPe1pDcZSbhXpMrBKJl45/47MErj9uGPFF2gbQhYyoRiPCYiuuhssVW+R9JCEEiYzvlELtxVRwOZ2grDpwB4TgaI6qOQFwX+fy8jtkuyF3o15olDIf24p/ka5Wk0C6mn87l0q6MAe8TF8KvirauZYehlQ2jkYtY5qiCCvN7Uro2Gd3mJ5UNwWUYV/FT8YIsXOg14K7DyIakcwNhtyoKdfoUwGoH6VPhvTwvk/WDlj1PaMIilQOI4DZs0iTk97whAb7r0lX0ZTJsZsr6Y/HiqrYktAfJLIgbVA/0hNxAEldGBNa7wQoiKATI0BaTgAGZScxlYMICXIEU3WflF0hZZS5SNHwtP94AfWt52tYMMYU7NNwhXAaDcVtWTQwtBcye536aJZC6CGfIEGloC5cgZVcfqchtrnKdHv2bfbMgytFN8WJcxi1yBuGvaXuVqgSXQ0pgkqiU60kFJ8XFkA1wwoph7DwBBH+L+yraanjMhxUMXAaCBYw3EBAO2BKBOInRu6mnvSg+aIbNoxHFuEK4vGBDQxExXpNp0DfYAOS4wAAnyRH/iF0+WSJeAQuqkeyAdDOXjMmyQhEUN36moitZ1Y+ZQ1jaalMJcApggZmy7oBTv1VfL992cBKTYVjyR1y7Qb1I/AyMZSJ8GKpHMnWARJsm6lm4/k98uOz7yPgYsv3uKWvnmFU8qoSXUBZcry9tJUHuXSxRtBZtELQzS55ENMHCiBKV2FhXbKNSDpkmQrR6WUQu3jDAI9Ek7U0SJDYnT+gpmoY7DLSvrEkUUgQD7EpbaGGwLS9ETS4BP1Iso6Gs3FrhTNJkcKBhVg0YdyHlkTzEbkaKrjSlyJQj3BymBQmsxgERA42SQZfq1q2acpsC756SEsxGWxcHPgV9hokkdR+IzwnBLQvuYMpHZWgxqzkB8CE8hz+SdDejUSnSw/CdmGmP5PuJuOPSEl54gurjquxP2RdxXLTL8Nah64DETrtLU5JZBYNFFRQmtrmbCAQqeMXiYAKnlDbHFfZ2myxujD+sASkmMaGnB2KfxABA+A7fLtGTsSMujb1UWSd7dBCT1AazH9rB76GbgEg4aO/BLDqmr9iYdB+VVkEpdwlPJi6JjqEWNW1s2qyE29GSqocxqhQNklK8sjpt6xaL5LCo9Vt9VK0O+e7/XHz8VHs0/6fi46fao/m3io/47rsJq31v2MGzCesB6B67txBQc3dhrdz03YWFLlvutTc4AcZG2L3TVjrcFxglhw1CBluEvNFUmHZg4TQMGVDtBMBnEe8uHfhol9dDiFB8fR/pAkDLq/YGKVtObRagNdIMr8UXtCFlIKV5gy6wXuk8FWy0MXdJVK53d9+/ZG55ErrK40qXGRvd3QTG6iISIqnJkKzox1tsq67XD01cyLO2g+FMTntydoRh4bfgR0eXq9wmKQX9Msg91YlIFirpDNQ8QHG2UpUSKUT6oNBxaXuzPmGD2ofwLITWtXDBx3Bes1SuXJn4xlYFGo4obqg+BDmyFwUFcEDLCIkpCg7ww9ueCgGZ6KkUIOqSifwDUcYVE0IfDo8v+0seyLQHnkaM7hUBqHa0A/RICRRlafFzFcV8LquoRsS4SFsiPUHwG1PTPjfu/WyOpW0l3gshBEqtu1d01MNhCDVtzka1Yojsk9IYdNsYRUVSkGjeElhSHlMy9IAHuILPakukRGEikGNUWZ24174NWAvBwqi7yjUVW1YEVEo2bpSSdq9VBSXHiE/OW1Eq6hBSKdbAPlKaKtS7hvojAEHeC21w8YOi0yzbj9IzieOjEBtwLS6sPcl197JRDwDwhLKiuLTrBuiL8HuIB+KnLURCYh2CEiuThXDNLmnt1G3AKLQvjcziV66uPIFk8AvrF3SBtkaHmnierdHMEsLGtBGrsk1BQdjyVJnzmvLDbK4bag9wQPARixA98Iy0hbVRqAR30w6N7PRtPKIlCkYOhmgmXZ3Yrk1yIsLAOqQHb3yKelB5vFts7JHaTxWXz5I+y0cJ13zUcmGSU4VEtZ4c1WzdVd5gdSfcUCFAIvAP3y9PhaLeWi0JTN1IqGxmiJ7rQX58TUreJe6xAGCOH61Vn9JZic8Hq+g+Vk77qes+MYOEuCHzBAzxEovEmNNesTa5DsmciT8zGAsL1u8L07cnQgzsKbk6WWDdejIiK/7Vv+HR7U5Gdt8G9yvqpWLcqmL95rEfDpsvTRaJh4jz7q6Zqaxfbwee4UZl3FKHmhb8emofZD9W7CmwQK6A268FdnWRBC1+UJPWHoawwTBiz6+XvT6m5c0/nYwsKJ+AatRboOKHrV5J5DnMFhw0tZBWWRPoGgr0O5drO2uvAUdrBXOOe0kUgAbdSKF3nysZ5dAV6m/l9VLI6u0JA38Nf8ScjlAGGEw/0foBa/MrWt/C/IHjqo1EJGfDyAk/7zpvmzVvlX5h9fpMxB8SlAafgbD/xeVuHYxlllKx+/rxFHd40w2zZTg/pmB+nxOs+1Fv7twbEC3ar6jAbCebg70aW9EmSFf5hb9AEqx23rnol8pBMPde+s2oAkkVVJCx4vKanP8MkL84m3nhsbQboh8AuWDd4OXwqvPnN3WgVctXs7i1btnZCPEhRtfxEYsX+lXwK9ffrP3wuJ8Oh4hMcogBKVDZQNrwGOeRNlm1gQpJH8rjSZUSkJ/0rMp6R2zs8fRmam9mB/KpuOhAHzLTLO2yTAxFrRcqFdiIUZgeQhNZBj+axPFtSoL1spbC4BK1nUdEq7seHpK1Nd+bR0GiXXGPery6N5nGiUuhR2SkFkjo/SntCmLSfnrBsn/qpED5GrdOWrvZsSRcFnEw+hUdXg0IP+qsOuYB2Z+SIEmtA1KjKizc7XoQlQQRciYbGyzDeLVzo6iBSi51YeAGMQGRGtG5lRZ/yaRTAVO9ZFCMsn7sCahRyPwViyFC6lZRn1fNPqkdpql7FXx36gCCVasnGuanIgvciruQlmeKQ9WFgsiGQop/oIXilpOClHWiBmOCsRxVIVUc505JFSuIoOGd6tYTaVIKYsas4XIqmsNIwSFYmtq9SZEql8I1DpoezFFPKx6l+CF/JdManPIqlyt1M+q9yCnHFSYZVYTTBUUnRDMX7NZu+R5QhgN1CzX06iIymF0thT1YoEXQHBg6RpMSxpuApbVfvAxtQPjgXuBLOCRNQegY6j6E+Rd/eztm9415AP+91kYKxdtO+bWBKTZIeJS+4yeVhDPSXR2eSJZqGgJoP508ExKO4lXHc8lNHOlu9eF/nzhe8E8vzUcrDZwNEj1NEQT5Is5N2kC/DNVFWYldfvbSSMNWKIz6xTMLSopgmigg/B2QUV+xWfIR9fv4lx958bOsHVSVxII6UmH9EBSy40IHghTQjEBOhRjnaDFmQxoYiLp65gh7lpPxeKsOCO2yNMZhUVzhsELwl7vTp2aqPEnNp1REgVNYZolNaRHt0TcISlU5Uw1sDDaBIVtsAj7pex42dhLCIj2oh2v3qX7mzyhpfuZk/gPOCCK13a8mWgqUkJeZsdUeXdNYjhjUUZxvdZjlCIoCr/jR6ur7taqlit9K/cDRVJsDqYuqd32JT8xp1e63pWSIZ8C5tReCgfZuLn1P0pMwA+S+ahr73c5zKWbtqW0uU92IDaIHZ4fc8P2AonpeACEcViGv9RhuL1RcqoVop8a56Kc2FbIkmPbztRUHRtRbnlKDW1B5wjPCCN9ijNbgRaoJTWSQZkIMjrv5r7NLpQVE/vJOhYim/V+1avF34SsCyKXCcY6lgNlz3tMTs2SoMSsDwiPthhpt/PapbmFaVFdn87gSy2TDVYI6XoXTEhbkyn5MZbULiYBQc6RnzKqSJBTeYw8gBEXglA4yAVKJjyjN7ywZv+EjzYq1wOmr4W+v0eVapcZDS1GnLQhs1V0TN2GVty/qm7Kyj7qwPP4eRyhWe5ADCp6sN2qcAtWbemGgnzEH7YswWVbIlopo7ORIkRCijvEuBlNU7lSbr02sHNg7yib6T3B+M/1xDQzpw3XSYtHQ30h8SAqSWKENUqosh8v31pktmVYFZbU0tm4Ci1BwfuxSI2wdi2cSelHvOLSylASVBAnx2KhuNL8n4VeVtaPHB/D7TWKEsXUHwxgqmTaUTJXbL+YfZBPYQZCHlVtEh8JY9cApcDHp4POZUE6+kmBMj0Q0YB4zDh/hADrrpg6qqaqE8KRoK1DHpMTrWNsEZce/VNAdASpRArkW80OVgXfHB3KYI0TtGxy1eZNPxoxaKtKVGxAtVUu7d9oSJ/vhsKOqt7lMm6PxzCALpKFpSZDbtp9qDvKqC/qpSI4qWu6DBpPChBGA+5EFmU+PFMi2CdqFTOb+xI+LbXpJXe5LvigdEat+naadkRYX1yYpJthxUi8G4YSe0WkGMrDSUX86jhDapQJUat/OUjBzq5ByWygX1ntay4tTz7AqIF4n/G6DF6Mr09yClnfalofxP0iNR/lVRsSH0IR8v2UK9TCqBxcfUQ1DBWJ1NkndQggJWt+XeqAZTibxaacZsB1FAAVLCnhuGtNpk+XhPUW1C1Zg33p7kQXsVj07qmkwQlbUBZsBVbyl2q1C6MK9IFggkDiFy1792d4zMutI2jAd4X5iqaT7cR93TRwthAAeLUHaobUVTViTqse8vEgMXpknPx2RArziI8T+1meDcc6hVMrlRtrrULPtP/TakpEVCEAyfsN8awjFiR4XhriRaF1EHzDaOoJCpiDXkXch3H9qaFtoqOzgc1JHFnpF5lQ/l9j0ZBxdu1nFPzvwDXrT1fHX1dmqYrQOHfnlkWMQg1WHpBbiWFikbYAblldWASqAFWHUgQW1tniEVlDT20fPm79lK/glYSrvIHjN1vkrrhg0JW1wkQq5Ml4xbnZTvwGUSYUvPIelb9nyhsCgtS+Yta3cCFyjTl2IHNjfdeJMWT9VsPE2kKsdAnrj5Ue9W3WoDG0o3719xNOdgVWrQjQ7aavzTJ12ruTQ5DwEu7hwN4l5J64Y716sT9qK1b4Wnr6eZSBl13LblA26IKiyA5KosOzVtpu0p9IenQ9/z0HLXtNUazwZ+Gl8kgH4RV46u7OQEKhep2LgVNOwwsYqL6n3oGrjjPUFQzuzxpBbhCIO0kBJVifeJJgiqXZbMy+RzVxFW6Go6hwGxBTb65igWu1Ey0FQIsWLf7BUEdGjnd9AlEAYIx8rxFr2JDAQDdCIaj7IHV2EZ/WkFiDeO9U7DxroiEY4aitS9Obk8HOdt9IhRGu0zvh0x7+Pwn1e0OHK6lEX0gk/slJEV71QvtMD3ixCqw0iCCMxg6jZgAqhRbYDV2CGAji8ZV+NRk66iq+HC6GItUgmb8QPngV0QUi69sSd90YBrdMEsaCDWqtKXyh6+MxdE1LA03pFWJOINHy57IAZ+hU2TOjWOJAQlcXGQcpoT/sTFAKdjCvAKO8JK2isP5BgJqQhgq46i1X4rZrlVwXmERjazBSCCvAsbAzug79Y7VN6tVEhwtTAhlFd0TblgfU0AKYJ0gF4xlefE12aGjPARYOa0iFNtuepc0cTtGi16lCiCk+EqIQn7qF6si23n1vnPrS7uo4zSW39Ot12yxkZGtvu/gXM24aJAFCdTz6uU5fh6dzX2RkdN2UoKkJ15Ggz4HzQVgV3JK1u+WFSz3nW8UCBFB4Lk29DrXILEqKzm6kilNOFFVEwHRcz93jMN93NQjobpJKceuE7dkeKABwQP5YIbe1EWiaxrRNQMLbZe1EW56+6n8u/0/1sGfpbYhU1OSyouYUgbaMpcamf9NZpbj/pbSe9ZaC3vzk1tSMtqTgQdzptB8yw7FM+xC+DTu6+jU8Q/3m7ZgZrAk8HhO+BNYg81DzC1XOv0Kc+30IznqxCsxGqqtMOHYGmuU0Zqhnp3BfUYMGPkioGs2iri+XwdpJCnUi0cnKxLHvZeLbyiTbxCE51bDpI5tCxCwsG6pQa8RDJY3uRjgJ8XDQipVYCDE4Jouo4DNTOsEDoqKZzlgog5X8dex865BeJAtCkYEo0CT6sFru4VecrkhPqDAZHvA4ZGyUnVTlgy5raOneruxEXakGHPcnduAWD5BNcRc3CSVQUBA63T8SrxRyV3eMSVUZKjqqtBeCtqjIGGkRdktgaMGj530PPtBOmuqo98TWSuuq/aZF9O2QVMB89suINqpz8sU/W/LFRVmdms44H6FQq6txt1QOVDTq2QhowUEwzPAoOUWrImzoYr8dsqHpWPhqvn7brT13XjOfpu2bi+be+a/OPjddv37UaFn7rvP7Rd43tbhPzN43XfwyUt/N6f+1+NV+ar39pvRZS3+brf+693uZn67XOcP/SfP3pOMB7GiC9l/+m9/pO7Wv7tUqbvzVgf379mw5s8x+0YP/Vv8x/3Ij99GF/dGGrAKo+bPNNI/ZHGzY2eRuxWaOfrdjfdmKbX17AQv/UTj2hxLbBvIZb6j1gndWg0nSkquhgLrhCqlpqYVTjL6AADZhSknA9skDTkX/cGr8oz4lbqcAiH78nbk3QWe083yO3CMV6j9y257g1Uph4ieee6k7oBRW74W2Av8qJIKWY51io7KRTvDtkFlpUImvnSkVsDUitsqS1JTrcVYQRC1VHiyrh7p4pYxhCyjZMJyMkKJxamVp1Uz2EIsDxREJVB0W8jr8M9ZjmHEScovJDuFVjPRwC5kmeNpAztEfQozV+lnCJXmUT6VH1z8WM7tvWq8+Bd2rft1q1zaljJxSV1aOeOKB6nlWJx6qjIekIcPy1E8v96MT6cyOWsSIctyxDZD2N5Dq22eDt6n7bQWcOh0j961CwIscipACpi1uNROR1t7VP631dS82YOos8UQQ6pu6qtjfA7MIvtFmCGuk6KqldKTXD7IU1wlaDLbyiG7Xx7O3X7Uyyt8soqTqoLiOGo/OTalzS8XXMtq6ACDpNpEG1mKKHYRKGBjuxwH2qPSOlCl+1Ou6r8lO7rUzr3TdsDwi9LUbuc4uRzGXc0kkntZBkpS0od8msMCCatQ1S8ZmuStFBbtXbLqUdpPs4iq3KsLtVuU6mDXkyaxSr6uAbNQ7bvK1TkEWHuSLm6AiF+2ynrFp+dyKoqLGo2vrCd1gXQiRNtVjfk9SEPc6Z3PrnXAI12HpAR9Yx96pO30wU2SrGdI9sK0txd1U99ICjcBtQggomZAfVEKd2l8EB8i5CuKuzx+lAZZRygGjWBUQTEmHeM4Vdu6zqA6p/OwXyYmhmlUy4eRQjq1lidNBjCqsJA9Lg1DlIUJGJaHEhR7BuqE1zaq9vxA88TTKLdAS5vY9SeIl3INbIiHLApTpXwX9YV1x/VjUQAP/N65EnLZDwVNzKKgnYoCdXOK9uJLiHjgrfo7+OBUa1b4tv7MvlEU416WkY+CzCGuIcCUWrZml/H3ZiWOmlBz5xdciJOgBP1r4HoXyrf2QLxAbMz+noJBOqQ0UX0rDOUTL72lDbBTy6ELXv6RvJHiVHZjjvwzbmLTZU9UmBo1qv2Fi/osdtiHcVrzMV1oEbpuhwM0JWtWOcXW2f0jTQBZWkpGnIr+qETR0+t55SHNaBnwmXdWbUKg4MulOHF462kiKB44J66JGwbbpb33p0v1flhd/yQX4Zt5rvEVVBlcApDmJSZk0wqED8wo22iAFVVhd1s0RPj7aI/W1sezpetdrdqpbe1HbpRALMyV97XpN6XvX0FqTUVuGw6XEeRI2ayKFNEWFSquwICRgKF/XGGGhVVWMTah9sRw4ggq/6UXv+LeLhLqqdp6lP6JSvWvC29CNYgBl1dkSlsaGHWcwkxcowT70lp3wCjF+EH7HQ73OndL5l5Bxz1lPZtEFW9cgC8maSrxheGzi6HimDEhXX0wkRIRCUDOM76WNCSE+CijHBjOSDmK8o2VhVmjI2r4Z1UC87GVX39+5kHX/Bwu0+7wO6XfF9Fbe2qgBIQPXdqZEUzEtTD47RKaxpbN7ubu5YCS0FC/5RlA21a32ze6yEd5tvckeIqMvtJveohitlnVqMNv9z1RmZfB+lgEJhPouAGkSXyBnaqt0TW/n2nulUjg7SwwGE4w44C/c8Lcvas04t967jFZJfOLhTy+7S0xjurpha7Lea6lVFhI7vktSo21g95Oq6tVpF5srqfIMx6vRv0JmtqLoP7kyA6lCDhzAQE7aoCtpVzdMeN+yL3Jj0cAzAfwj7QTcyKqzjVmCjYvVW1gi7rJZ66B5y5lZsPXnqU3s7wkf4603RYyz0cAm4lzZl0Pqkg1v87UcHrr2eAAYTGDoL5eFVLV1f33okDAEgfB+hmzYH5LqJ/eq0PDBBmLGO2m3WQeYi6arutnP3C8jk4eZibQs71RJJgCm3fIM22OdIWqpLz95a5x6FIDlPPSblPrMHD4DVaY87d7R0LPikqmYVP1+qOJitdmWWrhGdkSTFO6qe86Qn5BxYvaqkon3iB0UbiYClTtqPtA4JIgKeaMWdTbktk4ItWFPTMweGHlYGFU5ektLqKUZg9HJVBMir3IQhIAZ6JJ/2+CrYWbpReDi1bzKJdZn2XPhd6Dg0lJqEECIzzDpVxi/Qgl4PndFuJ+40XZR5glQ2igLeEloVmUbjhws66Gnn4lD3WJTs1a6NjqHo+QZYqt5mCT1yMZZ7bCUbFdeWygWh/PVM+R/PmnuNaWWIlkp8Sa1PTz+r+kx9yG8/K2EZy+1nha6rswpJOfS0lKgH8ngR7SMpQPSrkgdf0mnMlpEyRA/ZkmjoHb4NMDsivx5+lk7d+whUcF0wlzDTaZHbgWPUHgvny3pykTY7kX8LV0JrEElJxRVAleFdJULi1zOMktjImnq0kKKnTEZq9Hi+pBbGDFBr8arObLKCTj8hujz+6XUOQkdy1rwN0EsdNFmPb4reeTIHPJt4UXu9G1b9h6LOXoVYkkPuOqQ3VGsE4JIdI0IF8goe4MtEc87OBZCPT4CQelzYfXQGhlSztx5YdvvDVlevDJkfbCUf9BvquGgi6NbtTsQGyaqNiLSWzdqCfpULC74N2WrSe5D1pLGExGgUdUHP4NnquXF69IfXRlQ4sz6PwlR7vr6gPrpA9Hcn0WajaJi0tEpZkgCEMcmebAV9b8Q2DHV2cj8BmfUUka1GALejvcz6njQT/zqFOMtO50cPl65qeooqSEFAYwpQAgaIsNWjnbRXrXb/g6Ooe5m36dj5rbkR4duqDqaSE8SNNag716fJYjbtBbMMetDky0yqdpNZC4Q0tBmqBLMARTrEBn+5pWCnXvmpXOP0gDQ9CAQorAm+VhyeTZJFApPU5DP3qW2wG66Ky7ASC0M0opwlmrDBSPKYMpmoUPHaNUfyMJ9jdO639XyrnzCXgdTbejaZhQupkKUzQC3qdCBEZk5xIh1MHZK8STUm9bng6kaKU8fKWDnuqWco4ALIndiAkXZQjkHZixhTzYz04rRPlvVsFXCUMDzaXIaxOa9zUowk6nFLXFv7nNnriQH3lF089wlHW1D9twdJ/egZVbteM/8DMkqs4Jum7VgAAAAGYktHRAD/AP8A/6C9p5MAAAAJcEhZcwAALiMAAC4jAXilP3YAAAAHdElNRQfmCwoLJQGHBYzaAAAgAElEQVR42u2deXxURbr+nz69nSaJIEYHo4zshgFHUCAEAknAGRkdd+cKghsw9+eM4DKK7AISFkXH/Y73XgEdwRW3URm4oySENSwKgxEEIXEQgoIQSKBPn95+f1QHl2Hp7XTXOf18//KDSed0VZ16qt636n1s4XAYhBiEA8BIANMBLAUwDsDXbBYSQY2MiQcAPAtgNoB6NgsxAhvFjhhECYAnAVz8g39rBPAIgMcAaGyijGYwgDkAzv/Bv+0DMBnAC2weQrEjstMmskK/6RQ/UwtgPIDX2FwZR4/IIqjvKX5mI4B7AaxkcxGKHZGNbIiQ1P0Q4aloWB6Z1Dax+SxPKwBlAEbE8DuvQ4Q4GfomFDsiBcMAzMKPQ1LREgDwUkQoD7ApLYcaWdCMBdAijt/XIELfs8HQN6HYkTTRGyIkVZCEz6oHMCPyeQE2rSX4baQ/2yfhs74GMAYMfROKHUkhrSIr7dsM+OwvIjuBJWxm05IPcbpyoAGfvSoyPjawmUksKGwCEgMqgEkAdhgkdABwIYC/R8Qun01uKlpERG6LQUIHiIMt6yFObLZikxPu7EiyuTGym2ufwr8ZAPAUxMEG3r+Sl6b7lLMQX14uXurx/VUWhr4JxY4kRFeIvMvAND7DAXx//4qTmlxcFhkfXdL4DDshQpsfsDsIxY7ESi6+PyrukOSZNkcmtQp2T9rpENlRXSPRM30MYBSAbewe8lOYsyM/xRGZMHYA+H8SCR0gqrGUA1gEcXmdpJ4WEOHsLZIJHSCiD1sg8oYt2FWEOztyMgZBhKQuNMGzagAej0y8jey6lHA7RF7ODAdD6iGq9DD0TSh25DgdIiJ3pQmf/evIpLaA3WgYvSO7pUtN+OzVEKHvj9iNmQ3DmJlNC4i8y1aTCh0gqra8DGBtZFImyW3bBQDWmFToAHFw5h8Qoe8O7FLu7Ehm4YAISU2H9e4qNZUe28dujhsVoiblRERf59QMaPj+KgtD3xQ7YnGKIEKWl1r4O9JKKH4GQ+Tl2lj4O+6DCH2/yO6m2BHr0Qant96xGjsju7xF7P7T0g0iL9c3g77zRoiTx2vZ/daHOTvrowKYCpGXuynDvnt7AG9C3MvryqFwQlpBnFhcn2FCB4joxhqIvOT5HArc2RHzkoj1jtUIAJgLUduTVkIib3svRF6Od9JEuHsGGPqm2BFTEY0bdKZSD1F67Hlk7v2rQRAhy/YcDv9GLUQ+j1ZCFDsiMUZa71iNTLQSyo8sgi5n95+W5ZHxsYlNYQ2Ys7MGKsRBjK0UuqhpshL6ANa/f9UiInJbKHRRU4zvrYRy2Rzc2ZH0k0w36EzFqlZCTdY70zlhJ0Q9RD7vSbD0GHd2JOV0hSiB9L7MQheoqULjvCugrZwLaIdlFoX7IzvjkZCr+HW8lECE4P4irdCFgtC3LEbj/xZB3/QuENRl3hnPgXBTGMSphzs7kroXrwzyORL8eB47sAveymcRqHnl+5WVmgd1wBw4LywBFLvMbbwZ4v7VShOOjw4QedsbZH7I4J5qeD+ahOCBNcf/zd6yAGrJBDjaFsjexksh8nm0EqLYEYN2H3dChKSkPSoe9h6Cb92r8G14+KQ/Yz+nFJ6Bk2DP6yJ7m78OkQutNcH4yI486/2QuMRXqH4PtFXz4N/23El/xtluGNTiUVBatpG5vQMAnoO4w2ql0DfFjqQVGdygTzOLBaFv+RC+lVMR0vZG9SvOzqPhKRoO2xnnytz2GkTpsdmQ9/7VMIgwm7x1TvVG+D55D7414xEOnT5caVNccPWcArXHjYDaXObxcQDiKguthCh2JAFkdIP+N4K7/wnvsik/CklFPQAVF9x9H4G721WAK1vmrymjlVDvyCJI3rhfKAj/9kpoFRMQOloT868rah7c/cvg6nK5GULf90JU6yEUOxIlLSBCUvdA9pBU5X/Bv2Nuwp+l5ORDLZkKZ4d+sk9qqyKT2oY0PkOryCJoqNSLoLrPoVU8hsDexQl/lv2cUngGTIL9POlD329BOEbUchqj2JFTcztkd4PWG6Gtfwv6uslRhaRiwdH6OniK74Pys06y91M6rISarHfGQuTopCTcuB/a6nnQtzyR9M925t8Fte9wKC3Ok3lsaAAehwh900qIYkd+gvzWO00hqY/vjzovFy+ui8dC7T0MtuyzZe6zeoh83pMwPp93I0Rero20reH3Qt/8AbRV4xEOGDfH2xQX3IWz4L7kGtlD3/sAjIFcoW+KHUkb50dWgHKHpPZWQyufg8C+1FXXsjmyofZ7FK6LfwvYXTI3z87IjutdAz67K0Qdy2KZGyCwcw28H49HqCF1p/GVrLZQS2bC2am/7KHvKojQN62EKHYZSVOJr7GQOC8XPlIHbfV86NVPp+0ZlObd4Bk4zQz3rz6OTGqfJeGzciHuU46AzPcp9++Ed/kzCHyVvrrJjrwroJY8APu5v5B9fCyMLIr2gVDsMgT53aD9Xvg+fRe+NZMNDUnFNKm1vRme/qOg5LaTepMD4L8hrITiuX/lgLjQPgWy36esegW+jdOleSaThL4bIULftBKi2FkaU7hB+3eshFY+KaUhqVhw93gI7l5DYPOcKXMzxmMlNAgi/3ehtN8qqEPfshjaigkI6wflm9Ac2VD7zhKhb6dH5vGxEyKys4jTIsXOSrSCCEndBtlDUuWPIbD7HekbVFHz4C6aClfXQbLn86ohQpsfneJnOkQWQVI7EgRq10FbPiuu+5QpHx/Nu8FTOgWO9oWyP+ryyE7+MxCKnYkxhRt0+Oh30KoWQv90puka2J5bCM+AabC3/qXsj/phZCx8+YN/awER7rxH6kXQod3QKp6Cf5f5DhU6LhgMT/FoKGdLbQoSADA3MhYOcNqk2JkN+a13mkJSyx+QJi8XL86OI6D2uxPKma1lfkwNwkroMQDXQuRt5bXe0Q5D27AI+vppSb9PmWrcl06Gu+BmM4S+p0V2+Sw9RrGTHlO4QQdqqqBVzETwYJV1BrPigqvXdKg9b5D9/pUGiU/gIhSEf+s/RIkvg+9TpnR8uFpC7TcTrouukD30/UUkCrAEhGInIeaw3jlYC2/F0z+y3rEaipoHdeDjZrh/Jd9mf081vMvKEPy23LLf0Z5bCLV4PBxtesn+qEsh8nlfcmRS7GTAHG7Q2mGRl/tktulDUlF3TKtBUEvHmMFKKO2Ej9TBu3Ie/FufyZjvbJLQdwAi9F0GWglR7NJICUR8XW7rneql8FVOslRIKhZcXe6G2ucO2a2E0kOM1juWmwDNYyW0D+Iqy4tgPo9il0JM6wadsQPdkQ134XQzWAmlbBHk/3IFtIqp0t6nTCWKmgd1wBw4Lywxg5XQKAArOYgpdkZiGTfojJ3UcvKhlpbB2bEoc3Xum+3wLpudFOsdq2EiK6HXI3NRLXuNYpdsbocJrHd8G96Gr2pSRoakYsFEVkJJI9y4H9raBdA3P8IBcBqcnUfDUzRc9tB3k5VQGVh6jGKXBCzvBp3JuLpPgFowFLass6z7JYO6sN5Z8aDp71OmdHI0j5XQ1wDGg1ZCFLs4MYf1Tt3n0JY9mlLrHcu9BI5sqMWPmeH+VcwEdq6Bt3waQoc3saPjRMnJh1oyFc4O/WTP562CuJ+3gb1GsYuGjHeDzlTsLQuglkwwg5XQ6Tf7B3bBW/mspe9TphoThb5fgsjn0UqIYndScgGsB92gM3tSa3szPCV3Q2nZxnTPLqP1jtUwiZVQPYDrAFSwxyh2J6INAGmTXulwg87YF0NxwXXJODNYCQmCOvTPlsC3cmrG3qdM6fhwZEPt96iwEpI39H0HxL08QrEzh9jJ4AadqShqHtz9y+Dqcrm0+ZrAVxuhVZTxPmU6xofcVkIUO4qdOcQu7D0Ebc3LprTesRoyWgmFDu2GtuJ5+HfMZQelGUfbm+HpPwpKbjuKHcWOYhc1krtBZzLO/Lug9h0OpcV56XsIvRHa+regr5vM+5SSIZmVEMWOYiev2AVq10Ern2Ep6x3LvTSKC+6CMrh7XJ/a+1ehIPxfVEBbNoZ5OYlR1Dy4i6bC1XVQuvN5FDuKnXxiZ2Y36Iyd1LLaQi2ZmRIroeDeamjlc3if0kRIEPqm2FHsJBI7C7lBZyqOVoOgDngQ9nN/kfTPzkTrHauRRishih3FTgKxs6gbdCbjuug+qL1vTU49Rb0Rvk3vw7dmMu9TWmGiVVxw9ZoOtecNqQx9U+wodukVu0xwg87YF8qRDbXvLHH/yumJ6zP82ytovWNRUmwlRLGj2KVH7MJH6uBd8QKtdzJhUovDSij0zXZ4lz+BwO532IAWx9FqENTSMbDnGWolRLGj2KVY7DLcDTqjJ7ULBsNTPBrK2e1Pvgg6+h20qoW8T5mBuLrcDbXPHUZZCVHsKHapE7vQ/p04+tYwWu9kOGrRbLgLbv+3fw/s3oJjb1/HvFwmT8KObDS7+nU42l5KsTMQhU1gLKH6OgodQXDP+hP/+8FvKXQZTjjQiOCRejYExY4QQgih2BFCCCEUO0IIIRQ7QgghhGJHCCGEUOwIIYQQih0hhBBCsSOEEEIodoQQQgjFjhBCCKHYEUIIodgRQgghFDtCCCGEYkcIIYRQ7AghhBCKHSGEEEKxI4QQQih2hBBCCMWOEEIIxY4QQgih2BFCCCEUO0IIIYRiRwghhFDsCCGEEIodIYQQQrEjhBBCKHaEEEIodoQQQgjFjhBCCKHYEUIIIRQ7QgghhGJHCCGEUOwIIYQQih0hhBBCsSOEEEKxI4QQQih2hBBCCMWOEEIIodgRQgghFDtCCCGEYkcIIYRQ7AghhFDs2ASEEEIodoQQQgjFjhBCCKHYEUIIIRQ7QgghhGJHCCGEUOwIIYQQih0hhBCKHSHEsJfMkwdX9ztO+P8c53WC/ZxSNhIhFDtCzIlNccPd+xHkjKyEo22PE/6MPbc1soctQLMrFkLx5LHRCDEIB5uAkOTj7DQSav8/QGl+XhSqaIez80A421ZA2/Am9PUPIxzysREJodgRIif23D7wDJgKe+tfxv7L6hlQi0bA1fVyaBVPwb/zZTYoIUmCYUxCkvEiefLg+dX/IvvWN+MTuh9+Vovz0ezaOci64X3Yc/uwcQnhzo6Q9GJT3HBdMg7uXoNh85yZ3JezTU9kt34N+pbF0FZMRFj/jg1OCMWOkNTibDsUav9RUHLbGvdH7C64ul0L54XF8FW9Ct/Gh9nwhFDsCDEepXk3eAY+DEfbXqnbQXrOhFryR7i6DIK38hkEal9lRxASy3vLJiAkSsFx5MBT+hfk3PG3lArdj17Ys9sh64YnkHXtO1Cad2OnEMKdHSHJw9VtHNTet8CWdZYcL277QuT8/B3omz+AtmoCwoEGdhIh3NkREqeotL4eObdUwjPw3oSELnyo5sT/3rgfCAfj+1CnB64ev0POiNVwXfQndhYhFDtCYnwxcjqj2VWvIes//gvKOZ3iF7kjdTj24XR4yx874f/Xd/4TR18diWDd53H/DVv22fD8+kHkDC2HI+9Kdh4hFDtCTiMcihtqvyeQc/v7cHYqif+D9Eb4ql5Bw9ze8G977pQ/Gqj7OxpfGQDvklkIH6mL/2Vu1RlZg/8Hza58DUpWW3YmIT+AOTtCIjg73w1P0R2wnXFu/B8SDsK/YwW0imkINWyNTR+rn4L/i3lwFz4Md7erAFd2HGpthzO/BM52/4Dv07/Bt3o8S48Rwp0dIYD9nFJk37wMza6YkJDQhb7djqOv/SeOvT84ZqE7rpWBBmgr7kPDi1fB/+Wq+L+UKxvugpuRPXw1nPl3sZMJd3Zsgh9xPpsgg1Z6njyopXPgzC8BbPb4N3ON+6FVLYS+aXbSni3UsBXH3rsBjtbXw1Nyb9x5Q6X5eWh25WQEu10P77IyBL8tZ8dnDi3YBNzZnWhQPAmAM0EGYFPccBfMQM7ISjg7D4xf6II69A1vomFun6QK3Q8J7H4bDS/3h3fZMwgfjb9cmP28LsgetgCey+fTSihzeALACwBasSkodg4AdwLYAeAe7nStj7PTSGTfsQpq0Yj4cmJNIrRzDRrmXw3v8tEpueOmfzoDDS/0hr7pXSCox6nydri6/gY5wyvg7jEFNsXNAWF9RgDYCmBcps9vmSx2JQA2APgLgFy+E9bGntsHWb9bjGZXlUFpEX+0OnSgBkffug9H370OocObUvodwoEGeD++E41//Q8EatbF/0HqGVCL/4Ds25bD2f4WDg7r0wLALADbAPyWYpc5tAGwCCJkeTHfA2tjc50lrHeGvQbHzy+JX2i8h6BV/BcaXipMe13K4MG1OPr21Tj29v0IHayN/+Vv2UZYCV3/N9hb9uZgsT7tAbwP4CMA+RQ765INoCyypb+B4976uC99CDkjV8L1y6sAuytOZdGh//N9NM4fKJ3jgL9mIRpfKoa2/C8Iew/F/TmOtr2Qfesb8Ax8HjbXWRw41mcggC0AnkUGHWLJFLEbBpGXmwhA5Vi3No42Q5Bz2xqoJX9MyGMu8K9P0LhgMLz/+D1C3r1SftdwyAffhmlonD8Q+md/j7/0WMRKKGd4JVzdJ3IQZcBrAuAuADUQ5xYsn8+zutj1BrAWwMvgiSTrr9yad0PWte8g64YnEvKYC9V/jWPvT8LRN69A8MBqU3z3kHcvvEvvQONff4fg7n/G/Tm2rLPgGTAaObeuhqPNEA4q69MC4tzCJgCXUezMRysACwCsAVCQzgexZbWAzZHNV8rINnbkwFP8jLDeaV8Y/wfpjdBWzkXj/L7wb38huS9aixOLr5KVldS/EzywGo1v/BrHPpyO0OE98T9vxEqo2TVvQcnpzEFm9ESspv1kbBcA/wDwLoAOlpwnwuGwlb6PCuABAGMhcnRSED5SB23tX6FveYJvdZJxdRsHtWAobNlnJ9BBQfi3VUArH5P0cKUwep0GR9uTr7lCB3bBW/E0Al+9ltyXW3HD3Xs63Jden9A1C/i98H36LnxrHqKVUJJx5F0Bz4BxUH7WSabH0gA8BXHGoZFiJx83ApgNceJISoJ7q6GVz0Fg3xK+5QlPElfCM3BsQo4EABCs+xzej6YnvbKIzZENtd+jcF3826gPxwR2roG3fFrSrzQoWW2hlsyC88J+iVWKOVIHbe3L0Lf8mQMwGX0yYBacHfoBil3Wx9wHYDyAFyl2ctAV4lRRsSmeNhSEf3sltIoJCB2t4Vsf7yTRMfGJ27tyPvxbn07+bvPisVALb43P/87vjRiyjkc4kNxFtePc38Az4EEorRILSwbrPheLtrq/c0DGvNt2wV04C+5Lrklst51aNgIYBXH+gWKXBnIj2+wRMONJIr0R2vq3oK+bjHBI5yxw2knCDXefWXB3vzqxSUJvhG/T+4aE5Bytr4On+L6khKTCjfuhrV0AffMjyRfji/4kXNcTdXf4YgW0ivFctEWJM/8uePqNTKzd08tCiEosX1PsUoMjssqYAgvcEQnV74G2at5pPc84SSQ+Sfi3V8RlvXPa3WZOPtSSqYn5351qF1XxGAJ7Fyf3xXfkQO07U4RZnZ4kLNoeopXQSbCfUwrPgEmwn9fFCl9HAzADwGOR/6bYGcQgiILNF0r7hEEd+rblcOReENMKP7j7n/Aum4LggTWcHZI8SYS+3Q5vxZMI7H47yYKRDXfh9Pi956L+AkH4v1wBbVnyd1FKTmd4Bs5M7BQrgNDhPdBWctH2o7ZV86CWzISz86+iz8tph+H/ajOc7XomtggxnlqIfN5rZukPs4hdh4jIXSnzQwZq10FbPuu4YLkuHgu197DoTwqGgtC3fAjfyqkIaXszd5Lw5EEtngXnLy5LLC939DtxoMIARwJn59HwFA1PbUhKb4Tvk/fgWzM+6aFvR5sh8PQfDeXsdomt9Xb/E95lU01zP9GQSVVxwdVzCtQeNwJq8+gXNF9UQFs2BiFtr4gWlJbB2bFI9q+7CiLStkn6fpFc7FoAmATJHQlCh3ZDW/E8/DvmnnD1H+upvLD3EHzrXoX+yeyMyufZFDdcPR+C2uN3gHpGYrvrzR9CW/Fg0vNy9nNK4Rk4Cfa89IWkwkfq4F3xgiG7KFf3iVALhyVUeQbhIPQti+FbOUXayjNG4Ww3DGrxKCgt20Q/XPdUn9Rr0HHBYHiKR0M5u73MXzsA4CWIfN4Bil2MC00AtwOYDpkrn2iHoW1YBH39tNOKUjT3rf5NRA/sgrfyWQRqXrH+JNH+Fqgl9yTkSAAAgZp18H78UPKP76t5UAfMgfPCEmmOip9qkkxoUnCdBbXfDLguuiL+mqLHF22vRRZt1s7n2VsWQC2dCEebXrEtWlbOg3/rM1EsQiaI+6RZUtcurYfI5z0ZEUCK3WkogrhKIK8jwU9CDjGpeNub4ek/Ckpu9OGiQE0VtIqZCB6ssuAk0TsySfRMrEsO1ECrfBb+moVJ3m1GQlK9bpLzqHgoCL16KXyVk5Ie+pa9b6SYQF0tofabGdvCIM5wdFx/Kz3shAhtSnWhWCaxawNxKfwmmXsxWatpd4+H4O41JPpwUVAX969WPJj0+1fpmSTk3z04O46A2u9OKGe2lr9BY4gyxLXr7n9XTKG5k+26xaJtLayAq/sEqIW3RP8ONx00qpiKUMO2xHaRJRNiihKliaUA7oXw0aPYQZT4mgTgfkjsSBBLyCFaFDUP7qKpcHUdFH0+7+h30KoWQv90poknCbnzQvbcQqglk+C44FLTtW3oYC205c/Cv2tBkne48udTU0U8ebTQN9vhXf4EArvfSd4iJI78YBoIAHgOwFSIMGfGit0wCAfd86XtqqZLyKvGGnZYxJ5bCM+AabC3/mVaXx7DJwnJT/zFs/iQdoapXQetfEbSQ99mOClrFEpOPjwDZ8V0TcPI4gBiERLHyc/0cADAZAAvIE35vHSJXQ+IJGZfeZfIyQk5xLRSiyNsJi5Kp+4Z45skkniXq/IvSXckAAD3pZPhLrg5sd2mbAR16FsWQ1sxAWH9YHIXaJLfgUzqJOnIhtp3VmwX8FOcdlDUPLj7l8HV5XKZa20CwGaI0GaF1cWuFURe7jaZeyOduyab4oKr13SoPW+I/kDE8RJYk6XK55mhSofjgsHwlNwd04EhsxH2HoK25mVDQt+yV7dJFNdF90HtfWtM38+ogt6pXISkgLcgHGpqrSZ2akTNx0LiEl9GhxxiXampAx+Hs1P/qFdqRuQV458k5K6/qDTvBk/plIR3m2YitH8nvMufMcZKSPK6pTEvgloNgjrgQdjP/UX07SvRVSFn/l1Q+w6H0uI8mYekBuDxyAbI8FV6KsTuWog6avLeipT4pKOj1SCopWNiusScTish2SvrHw9Jdb/G9Hm5uHdRO1ZCK5+U9NC3GRwpovoOJTNjW2R6D8FX9Qp8G6dL1c8mcljYB2AMhOG2KcWuK0RebqDMrZzOkENMO6Uud0Ptc0f0O6UE7gLGP0nI7ZkWc/k2SyuegVZCeVfCU/qAqayEbIoL7oIyuHvEYHQb1KF/tkT68n7xCHiaqIKIABpyN8UIsWsR2ZZKbb1jxuokcRUeNthKyAxu2JK6QUuBWFz8FfqWJ5K/uJDcRb6JeEJ+Zizc7si7AmrJAzGFZtPEQoh83j5Zxc4B4E6IEl/y5uUidSd9Gx427QQVT5HYU9XvTGiSKBoOpXlieQH/l6ugLZtknPWO3G7QUhCs+xzaskeTHvo+fkgp0bCx3ght3evQ1z+ctENK9txCeC4ri+kwhxHvUaoxSYSjEcAjSKKVULLE7jKIkKW8R4BMEnKIaXXR+joRLorhcmvgq43QKsoSWpHac/vAc9n0xI+d798Fb/ljybfeMacbtAThjiD82yuhVUyQ9kBQqP5rITYJXD+J65i+xcyW47pOkR52QhSYXpRusTOF9Y7VveJiLhIbp/Arnjy4+8+Aq8uvE79QXPUK9E9nJL0tLOAGnX4MnNgdbYbAU3w3lNy2CX1O4F+fQCsvi6mwgE1xwXXJuNjK9KU4951qTHQqeTlEvc3PUi12LSJqew8kLvFlhZBDTCu14sdiqjUZ7Skym+KOTBKDE7t0ffyS80SE9e+S+v0t5gYtx/tTvwfaKmMMWd2XPgR3wZDEx1P10qhKxjna3izuU8ZivZPGU82pxkRWQnMhykvGbCUUj9iNhOzWOxYLOcQ06cdRJPZUh3WcbYdCLRktbRHguNygiRSREZvrLKjFs0U4MdFi4FWvwrfx4aS8DzLdV001JqkkVA9gGoQ7TtSlx2IRuyKIkKW81XEtHnKIaaUWx0r2h9cw7C17RyaJXol1ycFaaJXPwb/z5eROlOapCWiRbZ6BVkK5faAWj0+qlVA8kQ5ZKxGlGhNZCX0BcVUhqq13NGJ3PsRVgqFSrz4zKOQQkyDEmqMI6gjUbICjbY/EBrp2RLgzGGG9026YMHo1g/WOxWg6zSz6NclWQp1GitqwiRr41m6A/ey2MRmdGnXR3szYcwsji5Besj/qUoh83pfxip0KkZcbC8mtd7TV86FXP83ReRJSWiQ2HIRe/X/wVU40xnrHHC+f9Td6B2vhrXg66fdUj1sJpcgs14zuIanGJL6OAQBPASjDSayETiZ2gyGsd9pI+9UYcohLLGK9VxTT7npPNbwfTU669Y6JwioZR6CmKpKLNcBKqHQOnPklCZ38PemazAK+kKnERGmDfRBWQi/iJ/m8n4qd/NY7DDkkvlJLcpHY0OE90FYac2ovZjdoknoMrC1rP6cUnssmJ6/qh8R1cM2AouZBHTAHzgtLzGAlNArAyp+KXavI9u82yFziiyGHpK7UYq4FeKLd9ad/g2/1eGOsd+Q/Ck1StFtydr4bnqI7Ero/adQuNBMx0VWf1yHScbW2cDjclJdrkYkvUcav1JqKxOaXxrbw2L8DR9+6NfmVNuJwgyaZsSi1KW40+81cOPIvi+15Dv5LGMSaqA6uWXB2Hg1P0XDZizhoAB63hdNkVR51yGHLYtGTG1AAACAASURBVGjLH2DIwWCa3x97zdXgnmp4l5Uh+G154hOZecoXkShJZrohHn/HJo69czf8u95ghxiEWcrzSSt2DDnIL3Zi2Zz43UbXRfdB7TOc1jtWJMGDZDbFBVev6VB73hD3RHrs7VHw1yxiXxiM7IXXpRM7o440E4PE7nig4DC0DYugr58W9f0rE1mOkASJ54qQs+MIqP3/mPBBKopdanG0vg6e4vuks9SSRuyMvKxKUiB2TYuVQ7uhVTwF/66Tmw6byEySJJloij/YcwvhGTAN9ta/TMrfpNilB9mshNIvdgaWISJJFLtwGLDZov68QO06aMtn/aieYlJOgBLzc5LQt6LmwV00Fa6ug5J6n5Jil0aBcWRD7feoyMWn+Y5sWsXO6tY7lhK7hjp4178Z25234y4HE+BoNySpd/uIBfhBwfa4rHe2V0LxZMN+QU+KneTIYCWUFrEz0jqEGCd2h/+ne3zVTPxenrAkpxgfxwBns+gXyT8IhWZdvQiOjkUUO5PgaHszPP1HQcltl/q/neqVnG/D2/BVTWJezqSE9YPwfnwn9E8LoJZOjK5OJYWOnHJ8RCd04SN10Nb+FfqWJ9hmJiVQ8woaal5Ji5VQasQuEnLQKiYk/RIySQ/Bg1U4+tbVwoGgeFTCfneEnCoyoG/+ANqq8bxvaxF8G6fDXz3XkBxt2sQuWPc5tGWP0nrHqvPQrgUI1L5BbzlizPhiHVzLEtL2wvvRf0LflNzTtydDMeqDw0fq4P2/R9D4ygAKncUJh3T4qiaiYW4p/NVLgFCQjUISmwj378TRRffi2N9upNBZnOCBNWh849c49reJCB3abaKdHUMOGb1SO7bkdtg/MU2RWCLbwol1cDN4Fz8XgZ0vJ1wxJ2U7u9CBHfAuH02hy+SV2rfl8C4ZxYYgMeNb/yqFLpMXOyEdvrVj4dua/DKRCpuXEEKI1aHYEUIIodgRQgghFDtCCCGEYkcIIYRQ7AghhBCKHSGEEEKxI4QQQih2hBBCKHaEEEIIxY4QQgih2BFCCCEUO0IIIYRiRwghhFDsCCGEEIodIYQQQrEjhBBCsSOEEEIodoQQQgjFjhBCCKHYEUIIIRQ7QgghhGJHCCGEUOwIIYQQih0hhBCKHSGEEEKxI4QQQih2hBBCCMWOEEIIodgRQgghFDtCCCGEYkcIIYRQ7AghhFDsCCGEEIodIYQQQrEjhBBCKHaEEEIIxY4QQgih2BFCCCEUO0IIIYRiRwghhGJHCCGEUOwIIYQQih0hhBBCsSOEEEIodoQQQgjFjhBCCKHYEUIIodgRQgghFDtCCCGEYkcIIYRQ7AghhBCKHSGEEEKxI4QQQih2hBBCCMWOEEIIxY4QQgih2BFCCCEUO0IIIYRiRwghhFDsCCGEEIodIYQQQrEjhBBCKHaEEEIodoQQQgjFjhBCCKHYEUIIIRQ7QgghhGJHCCGEUOwIIYQQih0hhBBCsSOEEEKxI4QQQih2hBBCSCaLnfKzLvBc9j9Q1Dy2bobiuGAwml39AhuCxIzr4mvg7DiCDZHJY+Ci++Bq/8vkz0vJl087XBdfDWenfvCtexX6J7MRDunswUxYOeXkQy0tg7NjERuDxDeGzmyNZlfPQKD2GmjLZyF4YA0bJVMWya0GQS0dA3teF2M+36gHt3nOhFr8R7i6DIK38lkEal5hb1oUmyMbat9ZcF38W8DpYYOQxCemNr2Q3fp16FsWQ1sxAWH9IBvFqgucrLZQS2bC2ak/oNiNG1OGf5Hcdsi6/s8I1NwErWImgger2LsWCzmovW+F7Yxz2RgkudhdcHW7Fs4Li+GregW+jdPZJlZaJCsuuHpNh9rzBsCVbfwCKmUrtbYFyP75m9A3fwBtxYMIBxrZ2ww5EHL6SdFzJtSSu0SUaPkzCHz1GhvF5Djz74LadziUFuelbgeZ8pXaJdcjZ2QVXBePZY+bNOTQ7MpXkTVkblRCF/pmO469cx/0Te8CQeZuyY8J1FTh2Bt3wL9j5enH3tntkXXjk8i69h0ozbux8cy4Wc8tRPZ//B+aXTk5pUIHALZwOBxO1xcPfbMd3uVPILD7HY6CNNP8/n2n/oHGfdA2L4065BBu3A9t7QLomx/50UBXi8fD0aYXGzzDCR2shbfi6R/l8h2tr4On9AEoZ7c//Qf4vdA3fwDlzPPhaF94yh899vYo+GsWsdHTuUhW8+DuXwZXl8sNzctJK3bHx+32CmgVUxFq2MZRIavYIQzAdvoPCuqnDVU7O46A2u9OKGe2ZsNnGtphaFULT3lK29V9AtSCobBlnZWUP0mxSx82xQXXJePg7jUENs+Z6X0WGcQOAKA3wrfpffjWTGY+T0qxOz2BnWvgLZ+G0OFN0b0EPadA7XEjoDZnB1h+KxeEXr0UvspJCGl7Tz8+HNlQix+D66IrALuLYmdCHG1vhqf/KCi57eQQXmnErmn/cKQO3pXz4N/6DEeLScQudGBX3NdLFDUP6oA5cF5YkrbwBjGW4J5qeD+aFNedOXvLAqglE+BoW0CxMwnJ6LOMELvjL8jeamjlcxDYt4SjR1KxC3sPwbfuVfg2PJz4C3JOKTwDJsF+Hk93WmYzV78H2qp58G97LuHPcrYbBrV4FJSWbSh2kmJzZEPt96i4b5vgbjyjxK4p9OH/ogLasjFRhT5IisQu6If+2d/hWzk16f3i7DwanqLhvLdnZvRG+Da8DV/VpKRWT2rK/6i9hwHuMyh2EpHsPKsRKAB+D2CfnE9nh7PzQOT8vhLughmwKS6OKgNCDlnXvxfjLzmhnNEKtmY/T/rz+Lc+g4a5BfCtXQjozN2aaysXhH9bORrm/QramgeTXybQkQOleR7gUGP6NXffe2A/p5T9YwCO1tchZ1glPAPullnoAgDm2iIbuxYAxgG4Hym8aB7zu3RoN7QVz8O/Yy5HmQwhh6AOffOHkZOXDclf6+TkQy2ZCmeHfsznSU6w7nNoyx41LO3gvvQhuAsSONEX4wEZEsW7aY46uKsA3Atgg+0nUcwOAJ4EcKXMTx/4aiO0ijIWiZUk5BA++h20qlegfzrDsNWjp/g+KD/rxM6TjHDjfmir50Hf8oQxfd9mCDz9R0M5O0kn+rTD0DYsgr5+GgvUx7lIdhdOh7vbVSkp8ZUAXwMYA+B4uR3bSVJ2lwF4FsCF8i4ldeifLTEkb2TlkIORohH6dju8FU8isPttY0T64rFQew+DLftsdma6iVzq1laNN+SqkJLTGZ6BM097YTzusXqwFtryZ+HftYB9GSUmyadrAB4BMDvy3zid2AEinHkngOkQYU45V5beQywSG03IoWQqnJ1KUjMPfrkK2rJJCDVsNWRlKfOJr0wgsHMNvB+PN6QIhM2RA7XvzJQ5aARqqlig/nSLZPPUwX0dwAORXd2/j60oDmO2iKjkCMicz0vgrhdDDpGFw5E6aGtegtLi53B3vzqxMMXxIgEPGZPPa94NntIphq38yQnesf07DS3E7LroT1D73JHYzj0chP+LFfBXL4K7zx9hP/cXp/+doE4roRO9Y+a5A7sRIi93ygKrthhuHnSFyOcNlH7VGWUVD4YcfipM31evER5Ts+C8sB9gi3+gh4/UQVv9IvTqp4xZdUpWpcGKhL2HoK15GfqnM43pw7wrRU3MVp0T+pxg3efibm7d338goPdB7TM8KgEVueeFhn1P0yySU2y9kwD7AEwG8EJU3yuOa3Y3RnZ67aVtgqAO/dP3DMsnWCnk4N+xElr5pJOGpIyciJKJ+9LJcBfcnPb6e5bC4B1PqhZUsZoLG72DlXqRbI66tRqApyI6VB+1iMd5p1yNbBsnApBW+k9UeZ8hh8gLHaPjhKvbOHGCM9EQ07YKaOVjEPLuNaQN3EVT4eo6iPm8RCMkteuglc8wJJdlU9xw95mV8lC5kpMPz8BZUYe+T7cQtBL23EJ4BkyDvfUvZX/UDyPa82XM4y7BAiqtIup6m8ytE/pmO7zLZiOwd3HGhxwSCdUk7fCA3ght/VvQ1z2EcMiXyS+ufO/Kod3QKp4y7JSiM/8uqEXDoTRPzMsskUNQjgsGw1M8OiYrIatGiUy0QPwCwCgAH8U9VyapWlgPiKsKBfK+xUH4v1xhKSuhmEIOUVjvRP2CJOlwSKj+a1EkYPsL6W+fTMfg+2f23D7wXDY94dqnof274C1/LCnXW2IJfYeP1EFb+1fD7hOmA5OE/ush8nLPQ1RCiX9jkOTSmMMAzAJwvrRNpzfC98l78K0Zb9pLpfbcQqglk+C44NKoft6o49XJuvAb3P1PeJdNRfDA6rTvfDNvKxeEf+s/oFVMMOS+quLJg7v/DLi6/DqxvJxBhQtsrpZQ+82M2krICgXqTXKoKwBgLkRlr/qk9LUBdaBVAJMgSo+psrakGa2EYg05nMgN2pgVYoKlnJp2ntVL4Vs5xbB8Hq2EftLke6rhXVaG4LflBiwy3KJoc8FQQD0jsXGxZTG05WMMucLyowVk8Xg42vSKboGwvVIsEI7WmGf+MM91nY8h8nKfJXVMGmh60AYin3dTpr7w6Qo5NFnvnMoNOumTm+ssqP1mJGy2KZ79Nfg2TDNmVWueC7LGLvRWvJAU650T4Wx/C9T+d8Vlx/PjiMS6SERibcraxtluGNSSe6ILfR/PPU+WOkpkokIMOyEuhb9rSDukwOGnBOJ+3sWZGspJWchBgmK39tw+kRVyz8S65EANtMpn4a9ZaMyklolWQgaH8O0te0dMO3sl1vcHa6FVPGNY359+V+qCq+cUqD1uBNTmp3/eJPr2JRuTlNirhyjx9SR+UuLLbGIHiMort0Pk83KlbXKJisTGGnIQea8p0hTHdnYaKQ6HtEgsfWtkkQATFbVNfDH35Qpoy8YbEnZL9q5eRCR8aW82Rc2DWjITzs6/iir0LdM7aKLi6S9B5OUMt5mzpdi7tQVEPu8eyG4lZODx62SGHGReVdoUN1w9H4La43eJ522MthIyh11J7GPZ4Gs3ru4ToRbcnJiDRjgIvfr/4KucaEi+NuEd6zml8AyYFN1J0jRHV0xki1UFcZVgQ8rmozQZlXeAuKpwucy9EahdB235rJSt1GIKOZgkXwCIE3lq6Rw480sSO5HXuF/cEdw0O9NXw9G1lYEFFRytrxeVdRI9ibunGt6PJhtyEjfp0YoYQt+pzpvbFBfchbPgvuQaM1jvjAeQ8p1EusSuiUEQcVq5rYQMLhLryLsCngHjoptkTXoSLOYV8qmawGgroST7/aV8vBpYKk/J6Qx1QBmcHfom1oeH90BbKWdEIpmikooC9Say3nkcQBkMzMvJLHaACGc2lR6T2koo2cVwYw05GO0GnboV8t3wFN2R2MsZDsK/YwW0imm0EmqKRBia38yBu/BhuLtfm3D1HN/Gt+FbO1mKvFyq3l0j7roma/GYAl6HyMvVpnWhIoHYNZEbUX25rYSSUCQ21tWhFas32BQ33H1nJ344RG+E79O/wbd6vDGlx1oWRE4YSlwc6MAucZ/SSOud3rckvjj5YgW0ivGmi0gkLSqTpCpGJrozuhkiL7dSijlHIrFrohtEaLNY+lV0HAaWMYUcLF6XT6yQO0MtmQJnx8Qr33tXzod/69PGTGoSVp0w2rjYce5vxJ3EaDzhTiXG+7bCu+xRwxwvZCCWfHu89WljvRKRRg5A5OVeRIIlvqwudk3cCGAOxOV0OYlBjGINOWRSxXUgcuCh5F4o5yR2OMTYqiAuuC4ZB3evIemtJxjUoX+2BFrlOLmtdxr3Q1s9H/qWP2fEGD5uJdT9muhOUsfgPGKSOq8BCOudMiSpxFemiB0gyo09AGAsZLcSWj3vhGHGmK13MthLCzCRlVD/Mri6XJ7yMFLgq43QKsoMOSFsU9xw9Xo48TqixxeBEwwt8SVttCLGO7KnWtjGVMYsvSyFCFl+KesDyi52TbQC8BiAoTI/ZLDuc2gVjyGwd3HMIQe6JP9whZwTORxyZWKHQ7Qj0Da8CX39w6a3Egod2i0cInbMNeTznZ1GQu3/h4Std0R4f4Ihh4ZMF62IJfR93JtvMsKBxpgLVKeRLyAOGEp/as4sYtdEb4h8ntxWQrvWw37WedFb7xh8tSFTVsgn7RKjrYTy74LadziUFucl/8P1RmjrXjfWemfA1IQFO7R/F7yVzyBQ+yoH7k+I1UpI374Wri4lZrDemQZxXzpghn4wm9g1cTtE6bFWZn4JjHSDthLOtkOh9h8FJbdtgu29PlIkwARWQqEg/F9UQFs2xjjrnaJpYueQSF7OewjamgVJt96x3MLNPCapp32NIKx3JkEcRDENZhU7QOTwxkFyK6ETzmMHa6EtfzYt5chMvULuMQXuXoMTtxLashjaiokI698lf1LLaivqKXbqH3c+L7i3Gt6PjbXekb0drUqsXpSSsRwiL/eZGR/ezGLXRAcIK6EbpH9SiQpNm3aF3LQj6XJ54kWHq16Fb+PDhjxnPFZCRnssJnWHXD4jpdY7lotWmON0ZRO1AMYAWGTmNreC2DVRAhE/lq+cgATWO9ZbIZsj1+S66D6ovW899b3KpsMJq8YasghSmneDZ+DDiVvv1H8tCqTvfJkDMCm77Mghtl43yVrPshHCeucxpKnEF8XuFAtqACMBTIckVkKh+r049v790pvDmnaFbBIrIc/Ap+HsesW//b/gvh049rffG3Kf0iynWjM+WqHmwXP9a3CcK1UB8oUQ1772WaadLTZuAgCeB9AR4nJj2k8JhfbvotAZiH/7C2ic3xfaqpcAPf4qM472hci57R14ip+BzZGT1GcMBxrh3/7hiQfsN/8yROhc3cYhZ+RauC65Ln6hCwfhr16Khnkl8FVNpNAZNUdoexH8drcsj1MFoBDAMCsJnRXFrol6iLsfF0FcdiQWJhzywbd2LBpe6A//1o+BcDDObaIHrh6/Q86I1XB1G2fO0Ebr65FzSyU8A+9NyLUhuKcajQuG4diS26T0mCNJZx+AWyCud1kyGatYvAO3QdgIXQVgJ8ezxVfI3r04tngojr46EsG6z+P+HFv22fAMvBc5Q8vhyLvSHC9yTmc0u+o1ZP3HfyVUci18pA7HPpyOxtcGMiKRGWgAZkBEwyx9PFzJkA79AEA+xImieo5vaxOo+zsaXxkA75JZCB+pi//laNUZWYP/B82ufA1KVlspv6vIyz2BnNvfh7NTSfwfpDfCV/UKGub2Np3HHImbtwB0hrgz12j1L6tkUMcGIE4VdYa4FBngWLc2evVTaJjfH751r8afz7PZ4cwvQc7wf0At+jNsilua7+fsfDdy7qiEu9eQ+E/zhYPwb69Aw7xfQVv5J+blMoNqAKUQxfZrM+VLKxnY0fsgTmz2BLCK497ahAMN0Fbch4YXr4L/ywS625UNd8HNyB6+Gs78u9L6neznlCL75mVodsWEhDzmQt9ux9HX/hPH3h9sKY85clIOAPgDhI1aRaZ9eSWDO34TgCIAQzJpdZOphBq24th7N+DoG39E6Nvt8b8wzc9DsysnI3vwx7CfU5ral9WTh2ZXLET2sAUJecyFG/fD+/GTaHi5PwJ7P+TgsD5N1jsdIU6rZ2RUS+E4wGsQoc3JsMDFSXKat37322h4uT+8y55B+Gj8Za7s53VB9rAF8Fw+H4onz9BntiluuAtmIGdkJZydB8ZfyzKoQ9/wJhrm9oG+aTYHQ2awFOJU+r3I8PMKFDuBBmE4WMimyAz0T2eg4YXe0D95BwjGWbXEZoer62+QM7wC7oIZhuTznJ1GIvuOVVCLRiRUZSOwcw0a5l8N7/LRGekxl6FMhjiNvo1NISqOkO/hSc0MIhxogLf8D9A394ZaMiH+clrqGVCLRsD1i4HQKp9LSjkte24fqKWT4Pj5JQl9TuhADbzLn6b1TmbyNZuAYkfIcYIH1+Lo21eLQsklo6G0bBPX5ygt26DZtXMQqPkdtIqZcRVKNkuha0IodoSYFH/NQgS+WpSwBY6jbS9k//yNmC1w3Jc+BHfBkMStd6qXQls+jtY7hFDsCDnJjijkg2/DNPir/xfu/jPg6vLr+A6E2F1wdbsWzo79oFW9gnD9ydMmjjZD4Cm+O3HrnX99Aq28zBBzWkIodoRYkJB3L7xL74C+MTErIVvWWfAMGI1ww4lr6ro6dIP74oGJPWv919BWPA//9hfYcYRQ7AiJneCB1Wh849dw5t8FtWg4lObnxSd6Oa1OKoZxozdCW/c6rXcIodgRkhz8255DYPsLcPeeDvel16fXbDMchH9bBbTyMXQkICRKeM+OkGg1JuSDtvpBNMz7FfzbKuK3Ekpkp1n3ubDeWTyUQkcId3aEGEfoaA2OfTgYjk9+A8+AB6G06my80B6pg3flfPi3Ps0OIIRiR0jqCNT9HQ0L/w7XRX+C2vuWhIoynxS9Eb5N78O3ahzzcoQkAMOYhCSqR1v+jIb5/aFveBPwe5P2uf7tFWh48SpoK+6j0BFCsSMk/YQDDfAuH42G+VckZiWEiPXOG38U1jsNW9m4hCQBhjEJSSJNVkKONkPg6T8aytntohfMo99BW/syHQkIodgRYg4Cta+iofZVuLpPhFo47NQlwII69M0fQlvxIB0JCDEIhjEJMRBhJVQE/xflJ9a5b2uE9U75Hyh0hFDsCDEvYf07+KsXnXgHWLcLocOb2EiEUOwIIYQQih0hhBBCsSOEEEKxI4QQQih2hBBCCMWOEEIIodgRQgghFDtCCCGEYkcIIYRQ7AghhBCKHSGEEIodIYQQQrEjhBBCKHaEEEIIxY4QQgih2BFCCCEUO0IIIYRiRwghhFDsCCGEUOwIIYQQih0hhBBCsSOEEEIodoQQQgjFjhBCCKHYEUIIIRQ7QgghhGJHCCGEYkcIIYRQ7AghhBCKHSGEEEKxI4QQQih2hBBCCMWOEEIIodgRQgghFDtCCCEUO0IIIYRiRwghhFDsCCGEEIodIYQQQrEjhBBCKHaEEEIIxY4QQgjFjk1ACCGEYkcIIYRQ7AghhBCKHSGEEEKxI4QQQih2hBBCCMWOEEIIodilDZvLzUYgsKktT/zvTgcbh8DmsLMRKHbmxn5BT+TcugqOCwazMTLxBVPz4Pn1PHgGTT3h/3f9ohhZN34Ie24hGysTx0fzbsi69h24upSwMYxeUITDYbbC97QBUGPUh/t3rIRWPgmhhm1saau/WIoLrkvGwd1rCGyeM0//C0Ed+mdLoFWOQ1g/yAa0/E4uG2rfWXB1vwawu4z6M3cAeJGtTbFLudgJxfNC3/wBtFXjEQ40ssUtiKPtzfD0HwUlt13Mvxv2HoKv6hX4Nk5nQ1oU18VjofYeBlv22Ub/KYodxS6NYtc0qR2pg7b2r9C3PMFWtwj2lgVQSybA0bYg4c8KHdgFb8XTCHz1GhvWKougvCvgGTAOys86pepPUuwodukXuyaCdZ9DW/YoAvuWsPXN+hI5sqH2exSui3+b9JBUYOcaeMunIXR4ExvapCg5+VBLpsLZoR+gpPQgCsWOYieP2IllfBD+7ZXQKiYgdLSGvWAiXN0nQC0YClvWWQauiHTon77H0LfZJlfFBXfhLLgvuQZwZafjESh2FDvJxK4JvRHa+regr5uMcEhnb0iMo/V18BTfl8qQFMKN+6GtXQB98yPsAMlxdh4NT9Fw2M44N52PQbGj2Ekqdk0bvfo90FbNg3/bc+wRyVBy8qGWlsHZsSh94+Ob7fAum43A3sXsEMmwn1MKz4BJsJ/XRYbHodhR7OQWuyaCu/8J77IpCB5Yw55J94viyIa7cDrc3a5KV0jqJ4oXhP/LFdCWjWfoW4ZFkJoHtWQmnJ1/leq8HMWOYmd+sWua1PTqpfBVTkJI28seSgOShKROjN4I3yfvwbdmPEPf6ZhAFRdcPadA7XEjoDaX7fEodhQ7E4ldhLD3EHzrXoX+yWxOainC0WoQ1NIxsOd1kf5Zw0fq4F3xAkPfqVwEtRsGteQeKGe2lvURKXYUu5NyfkTspC1YGDpYK+5f1bzC3jIIRc2DOmAOnBeWyBSSiorgnmp4l5Uh+G05O9Ig7LmFUIvHw9Gml+yPOgQAL2pS7E5KPoBnAQyU+SEDNVXQKmYieLCKPZasl0FxwdVrOtSeN8iRl4t7RRSEf+s/xFUWhr6TNz5cLaH2mwnXRVcYWeIrGXwB4F4AvLxLsYuK3wJ4EkB7eZfxuig9tuJB3r9KEGfHEVD73SlzSCp2tMPQNiyCvn4aQ98J4uo+AWrhLdHVOU0f9QCmRRbrAfYaxS4WHAAeADAWQAtZHzJ89DtoVQuhfzqTPRYj9txCeAZMg731Ly37HUOHdkOreAr+XQvY4bFOABcMhqd4NJSz28v8mAEAcwFMAnCAvUaxS4RWAMoA3AaZ83nfbId3+RMI7H6HPXYaFDUP7qKpcHUdJHtIKnkzYu06aOUzGPqOZnzk5MMzcBYc7aW3XloOEbJkPTmKXVLpARHa7CvzQ9JK6NS4L50Md8HNsoekjCGoQ9+yGNqKCbQSOtGE2GS9c/FvAadH5ketBTAGwCL2GsXOSAYDmAVxVUFO9Eb4Nr0P35rJzOdFSMR6x2qEvYegrXmZoe8f4LroPqh9hqfCeicRGgE8AuAxABp7jWKXClQA4yDyeaq0k9qROmir50OvfjpjO0pp3g2e0ilmCEmlnND+nfAufyajrYQceVdALXkA9nN/IfujLoQ4Q7CPI5dilw7Oj6yybpL5IYN7q6GVz8koKyEjrXesRmDnGng/Hp9RoW8lq60o8dWpv+z3Kasg8nJrOVIpdjJQBJHPu1TeZXwQ/i8qoC0bY/n7Vyl0g7YOfq+4ymJxKyGb4oK7oAzuHtfLfp9yH0RejsdoKXZSMhLAdIgTnHJiYSuhdFjvWI1w435oq+dB3/KE5b6bM/8uqH2HQ2lxnsyPqQF4HMBsiBwdodhJSwuIfN49kDifFzq0G9qK5+HfMdf0DZ5GN+hYlQEaFwAABupJREFUqQIwFcAwAENlftBg3efQlj1qidC3PbcQnsvKZLHeORVvReaOLzmNUuzMRAeI0OaVUk9qJrYSksANOlq+BjAePw5J9Y6MjwJpnzoUhH97pSg9ZkIrIUXNg7t/GVxdLpd9EVQNYBSACk6bFDszc1lkUpN3WRnUoX+2BL6VU02Tz5Paeud7mkJSZTj5UfHbIa6ySB369m14G76qSaYIfdsUF1yXjINaMFRG650fcgDAZAAvgCW+KHYWwQHgToh8nrylxyJWQr4ND0vbkJK5QZ+K1yFCUrVR/Gx25Gfvh8yh7/o90FbNk9pKyNluGNTiUVBatpF5bAQAPAcR0q7n9EixsyItIBLPIyBz6bEDu+CtfFYqKyETWe9shghJrYzjdztExscNMn/B4J5qeD+aJFXo296yAGrJBDjaFsg+ByyFuErAEkcUu4ygK0RoU24roZ1r4C2fhtDh9JXek9wN+ofsgwhJvYjEQ1IlENXr5d2+hoLQq5fCVzkpraFvmyMbavFjZrDe2RkRuQ84/VHsMpFrIS6l00roBJjEeicA4CmIvFwyQ1IOfH+VJVfab68dFq4bn8xOeT7P1X0C1IKhsGWdJfP4qAcwI7K4ZV6OYpfRqJEVn9xWQo37oa1dAH3zI4b/LRO5QS+FCFkaeVS8RURI/x9kDn0frIW34umUhL4dra+Dp/QBM1jvvARhvcMSXxQ78gNaQeRrbpP5IY20EqIb9CnJj+wOLpd6hq+pglYx0xArISUnH2ppGZwdi2R/l1dFFkG03qHYkVMgv5VQKAj/lyugVUxNWj1Fk1jvyOAG/dvI+JA79L1lMbTlDyQl9G1zZMNdOB3u7teawXpnPIDMraxNsSNxMAzi/tX50j5hk5XQqrFx52voBh1fs0V2lhMhc+j76Hcin5eAlZDrovug9r7VDPcpZ4DWOxQ7EjdqZIKV+v5V+EgdvCvnwb/1mah/x0TWO8shQlKfSfhsrSDyebdB5nze/p3wlj8WU+jb0WoQ1NIxsOdJf59yIcQdya85XVHsSOK0gcjnyW0ltKca3mVlCH5bfvJBZx436J2RScwMbtDdIEKrfWV+SP+OldDKJ50y9K2oeVAHPm4G652Nkd31ShCKHUk6RZFJ7WJpn/AUVkImsd4xsxv0YIjQdxt5Fc8L36fvwrdm8o/yeTbFBVev6VB73mAG653xEPcpCcWOGIgDop6i3FZC2mFoGxZBXz8N9laX0Q06daiRHelYSB761lbPh179tLhP2f+PZrDeeQoiwsISXxQ7kkJaQOTz7oHE+ZpwwzewZeXSDTr1nB+ZmKW2Egof/hq25ufL3pbvRRZBtN6h2JE0YgorIUnJBDfoosj4uJTdHTPVkUXQR2wKc6OwCSzBlxB3r34DcdmZnJ6mo+IdLS50gDhA0QPAHWAlj2ipB/AHiIM/FDru7IiEOCCOyU+BxPev0sxbECGp2gz87i0g8nn3QOJ8XhoJAPhviPQA83IUO2ICciHuX0ltJZRi6Ab9PR0gTptew6Y4zscQIcvP2BQUO2I+ukJcVSjO4DagG/TJuQwin9clg9uA1jsZAHN21uczCG+030Ve6kyiyXqnI4DnKXQn5COIvNRoZF7Yrh7ivlxXCh13dsRaqBC5qrEAsi3+XekGHTumsBJKEk11Tnlgh2JHLIwprITiZCdEXm4JuzluukKENgda8LutiiyCNrCbMwuGMTOTfRAVWAohLlNbgXqI+3L5FLqE+Qwil3cVrBP6/hrAEIg7hxQ67uxIhjIMwBzIXHrs5DS5QY+DHNY7VkON7ITGwpxXWTSIOqezQesdih0hEDm8cZDcSugn0A06dZgx9P16ZEzXsvsIxY78lDYQ969ukPgZa0E36HTRAyKfJ7OVEK13yL/BnB05kZDcCKAUwGbJnk2DuC/XmUKXNjZA5L1ugXxmpfsA/B5Abwod4c6OxIIDwEgIK6HcND8L3aDlQxYroQCAx0HrHUKxIwmSTiuhjRB5ubXsBmlpExGam9Lwtz+ECFnSeodQ7EjSyIfI11yegr9FN2jzkUoroS8iiyA6EpCoYM6OxMI2AIMgrISMun/VdFS8I4XOdKyEyJf9HsZVJqmHKG3WlUJHuLMjqcABET6aiOTdv6IbtHVIdug7gO9LfPE+JaHYkZSTi+/vX8U7qdEN2rp0gAhtXpnAZ9B6h1DsiDR0i0xqsVgJNVWdp/WO9RkUGR8XxvA7OyFOey5i85FEYc6OJItNEFZCQ3D6ihUBAM8BaAta72QKSyDybNFYCTXie+sdCh3hzo5Iy6mshD6GOEVH653MJRfCSmgE/j303VTnlNY7hGJHTMP5EPm8oaAbNPl3fmglVBUZH7xPSQzh/wNJkLxGJlCDhAAAAABJRU5ErkJggg==;" parent="1" vertex="1">
          <mxGeometry x="-460" y="450.5" width="58.18" height="57" as="geometry" />
        </mxCell>
        <mxCell id="_H5qRs6Hh-SQ7Uu5_9nw-98" value="&lt;font style=&quot;font-size: 36px;&quot; data-font-src=&quot;https://fonts.googleapis.com/css?family=Caveat&quot; face=&quot;Caveat&quot;&gt;&lt;b style=&quot;font-size: 36px;&quot;&gt;Open Data Mesh Platform&lt;/b&gt;&lt;/font&gt;" style="text;html=1;strokeColor=none;fillColor=none;align=center;verticalAlign=middle;whiteSpace=wrap;rounded=0;labelBackgroundColor=none;sketch=0;fillStyle=auto;fontSize=36;fontFamily=Helvetica;fontColor=#CC6600;rotation=-90;" parent="1" vertex="1">
          <mxGeometry x="-585" y="452.5" width="430" height="55" as="geometry" />
        </mxCell>
        <mxCell id="_H5qRs6Hh-SQ7Uu5_9nw-99" value="" style="shape=hexagon;perimeter=hexagonPerimeter2;whiteSpace=wrap;html=1;fixedSize=1;size=40;strokeColor=#CC6600;strokeWidth=5;fillColor=#FFCC99;sketch=1;fillStyle=solid;" parent="1" vertex="1">
          <mxGeometry x="843.5" y="-422.5" width="200" height="160" as="geometry" />
        </mxCell>
        <mxCell id="_H5qRs6Hh-SQ7Uu5_9nw-100" value="" style="html=1;verticalLabelPosition=bottom;align=center;labelBackgroundColor=#ffffff;verticalAlign=top;strokeWidth=2;strokeColor=#CC6600;shadow=0;dashed=0;shape=mxgraph.ios7.icons.settings;sketch=0;fillColor=#ffe6cc;" parent="1" vertex="1">
          <mxGeometry x="883.5" y="-382.5" width="30" height="30" as="geometry" />
        </mxCell>
        <mxCell id="_H5qRs6Hh-SQ7Uu5_9nw-101" value="" style="html=1;verticalLabelPosition=bottom;align=center;labelBackgroundColor=#ffffff;verticalAlign=top;strokeWidth=2;strokeColor=#CC6600;shadow=0;dashed=0;shape=mxgraph.ios7.icons.settings;sketch=0;fillColor=#ffe6cc;" parent="1" vertex="1">
          <mxGeometry x="973.5" y="-372.5" width="30" height="30" as="geometry" />
        </mxCell>
        <mxCell id="_H5qRs6Hh-SQ7Uu5_9nw-102" value="" style="html=1;verticalLabelPosition=bottom;align=center;labelBackgroundColor=#ffffff;verticalAlign=top;strokeWidth=2;strokeColor=#CC6600;shadow=0;dashed=0;shape=mxgraph.ios7.icons.settings;sketch=0;fillColor=#ffe6cc;" parent="1" vertex="1">
          <mxGeometry x="943.5" y="-402.5" width="30" height="30" as="geometry" />
        </mxCell>
        <mxCell id="_H5qRs6Hh-SQ7Uu5_9nw-103" value="" style="rounded=1;whiteSpace=wrap;html=1;sketch=1;strokeColor=#CC6600;fillColor=#FF8000;fillStyle=hachure;" parent="1" vertex="1">
          <mxGeometry x="883.5" y="-312.5" width="70" height="30" as="geometry" />
        </mxCell>
        <mxCell id="_H5qRs6Hh-SQ7Uu5_9nw-104" value="" style="rounded=1;whiteSpace=wrap;html=1;sketch=1;strokeColor=#CC6600;fillColor=#FF8000;fillStyle=cross-hatch;" parent="1" vertex="1">
          <mxGeometry x="973.5" y="-312.5" width="30" height="30" as="geometry" />
        </mxCell>
        <mxCell id="_H5qRs6Hh-SQ7Uu5_9nw-105" value="" style="endArrow=none;html=1;rounded=0;sketch=1;fontFamily=Caveat;fontSource=https%3A%2F%2Ffonts.googleapis.com%2Fcss%3Ffamily%3DCaveat;fontSize=24;entryX=0.533;entryY=0.9;entryDx=0;entryDy=0;entryPerimeter=0;fillColor=#ffe6cc;strokeColor=#CC6600;strokeWidth=3;" parent="1" source="_H5qRs6Hh-SQ7Uu5_9nw-103" target="_H5qRs6Hh-SQ7Uu5_9nw-100" edge="1">
          <mxGeometry width="50" height="50" relative="1" as="geometry">
            <mxPoint x="673.5" y="-322.5" as="sourcePoint" />
            <mxPoint x="723.5" y="-372.5" as="targetPoint" />
          </mxGeometry>
        </mxCell>
        <mxCell id="_H5qRs6Hh-SQ7Uu5_9nw-106" value="" style="endArrow=none;html=1;rounded=0;sketch=1;strokeColor=#CC6600;strokeWidth=3;fontFamily=Caveat;fontSource=https%3A%2F%2Ffonts.googleapis.com%2Fcss%3Ffamily%3DCaveat;fontSize=24;entryX=0.4;entryY=1.1;entryDx=0;entryDy=0;entryPerimeter=0;exitX=0.5;exitY=0;exitDx=0;exitDy=0;" parent="1" source="_H5qRs6Hh-SQ7Uu5_9nw-103" target="_H5qRs6Hh-SQ7Uu5_9nw-102" edge="1">
          <mxGeometry width="50" height="50" relative="1" as="geometry">
            <mxPoint x="913.5" y="-312.5" as="sourcePoint" />
            <mxPoint x="723.5" y="-372.5" as="targetPoint" />
          </mxGeometry>
        </mxCell>
        <mxCell id="_H5qRs6Hh-SQ7Uu5_9nw-107" value="" style="endArrow=none;html=1;rounded=0;sketch=1;strokeColor=#CC6600;strokeWidth=3;fontFamily=Caveat;fontSource=https%3A%2F%2Ffonts.googleapis.com%2Fcss%3Ffamily%3DCaveat;fontSize=24;entryX=0.467;entryY=0.967;entryDx=0;entryDy=0;entryPerimeter=0;exitX=0.5;exitY=0;exitDx=0;exitDy=0;" parent="1" source="_H5qRs6Hh-SQ7Uu5_9nw-104" target="_H5qRs6Hh-SQ7Uu5_9nw-101" edge="1">
          <mxGeometry width="50" height="50" relative="1" as="geometry">
            <mxPoint x="673.5" y="-322.5" as="sourcePoint" />
            <mxPoint x="723.5" y="-372.5" as="targetPoint" />
          </mxGeometry>
        </mxCell>
        <mxCell id="_H5qRs6Hh-SQ7Uu5_9nw-108" value="" style="endArrow=none;html=1;rounded=0;sketch=1;strokeColor=#CC6600;strokeWidth=3;fontFamily=Caveat;fontSource=https%3A%2F%2Ffonts.googleapis.com%2Fcss%3Ffamily%3DCaveat;fontSize=24;entryX=0.085;entryY=0.256;entryDx=0;entryDy=0;entryPerimeter=0;" parent="1" target="_H5qRs6Hh-SQ7Uu5_9nw-99" edge="1">
          <mxGeometry width="50" height="50" relative="1" as="geometry">
            <mxPoint x="813.5" y="-402.5" as="sourcePoint" />
            <mxPoint x="803.5" y="-382.5" as="targetPoint" />
          </mxGeometry>
        </mxCell>
        <mxCell id="_H5qRs6Hh-SQ7Uu5_9nw-109" value="" style="endArrow=none;html=1;rounded=0;sketch=1;strokeColor=#CC6600;strokeWidth=3;fontFamily=Caveat;fontSource=https%3A%2F%2Ffonts.googleapis.com%2Fcss%3Ffamily%3DCaveat;fontSize=24;startArrow=none;" parent="1" source="_H5qRs6Hh-SQ7Uu5_9nw-115" edge="1">
          <mxGeometry width="50" height="50" relative="1" as="geometry">
            <mxPoint x="803.5" y="-297.5" as="sourcePoint" />
            <mxPoint x="863.5" y="-297.5" as="targetPoint" />
          </mxGeometry>
        </mxCell>
        <mxCell id="_H5qRs6Hh-SQ7Uu5_9nw-110" value="" style="endArrow=none;html=1;rounded=0;sketch=1;strokeColor=#CC6600;strokeWidth=3;fontFamily=Caveat;fontSource=https%3A%2F%2Ffonts.googleapis.com%2Fcss%3Ffamily%3DCaveat;fontSize=24;entryX=0;entryY=0.5;entryDx=0;entryDy=0;" parent="1" target="_H5qRs6Hh-SQ7Uu5_9nw-117" edge="1">
          <mxGeometry width="50" height="50" relative="1" as="geometry">
            <mxPoint x="1023.5" y="-298" as="sourcePoint" />
            <mxPoint x="1083.5" y="-298" as="targetPoint" />
          </mxGeometry>
        </mxCell>
        <mxCell id="_H5qRs6Hh-SQ7Uu5_9nw-111" value="" style="endArrow=none;html=1;rounded=0;sketch=1;strokeColor=#CC6600;strokeWidth=3;fontFamily=Caveat;fontSource=https%3A%2F%2Ffonts.googleapis.com%2Fcss%3Ffamily%3DCaveat;fontSize=24;entryX=0;entryY=0.5;entryDx=0;entryDy=0;" parent="1" target="_H5qRs6Hh-SQ7Uu5_9nw-116" edge="1">
          <mxGeometry width="50" height="50" relative="1" as="geometry">
            <mxPoint x="1023.5" y="-382.5" as="sourcePoint" />
            <mxPoint x="1083.5" y="-382.5" as="targetPoint" />
          </mxGeometry>
        </mxCell>
        <mxCell id="_H5qRs6Hh-SQ7Uu5_9nw-112" value="" style="endArrow=none;html=1;rounded=0;sketch=1;strokeColor=#CC6600;strokeWidth=3;fontFamily=Caveat;fontSource=https%3A%2F%2Ffonts.googleapis.com%2Fcss%3Ffamily%3DCaveat;fontSize=24;entryX=0.5;entryY=0;entryDx=0;entryDy=0;exitX=0.5;exitY=1;exitDx=0;exitDy=0;" parent="1" source="_H5qRs6Hh-SQ7Uu5_9nw-113" target="_H5qRs6Hh-SQ7Uu5_9nw-99" edge="1">
          <mxGeometry width="50" height="50" relative="1" as="geometry">
            <mxPoint x="943.5" y="-472.5" as="sourcePoint" />
            <mxPoint x="943.5" y="-462.49999999999994" as="targetPoint" />
          </mxGeometry>
        </mxCell>
        <mxCell id="_H5qRs6Hh-SQ7Uu5_9nw-113" value="" style="ellipse;whiteSpace=wrap;html=1;aspect=fixed;labelBackgroundColor=none;sketch=1;fillStyle=solid;fontFamily=Caveat;fontSource=https%3A%2F%2Ffonts.googleapis.com%2Fcss%3Ffamily%3DCaveat;fontSize=24;fillColor=#CC6600;strokeColor=#CC6600;strokeWidth=2;gradientColor=none;" parent="1" vertex="1">
          <mxGeometry x="931" y="-492.5" width="25" height="25" as="geometry" />
        </mxCell>
        <mxCell id="_H5qRs6Hh-SQ7Uu5_9nw-114" value="" style="ellipse;whiteSpace=wrap;html=1;aspect=fixed;labelBackgroundColor=none;sketch=1;fillStyle=solid;fontFamily=Caveat;fontSource=https%3A%2F%2Ffonts.googleapis.com%2Fcss%3Ffamily%3DCaveat;fontSize=24;fillColor=#CC6600;strokeColor=#CC6600;strokeWidth=2;gradientColor=none;" parent="1" vertex="1">
          <mxGeometry x="793.5" y="-422.5" width="25" height="25" as="geometry" />
        </mxCell>
        <mxCell id="_H5qRs6Hh-SQ7Uu5_9nw-115" value="" style="ellipse;whiteSpace=wrap;html=1;aspect=fixed;labelBackgroundColor=none;sketch=1;fillStyle=solid;fontFamily=Caveat;fontSource=https%3A%2F%2Ffonts.googleapis.com%2Fcss%3Ffamily%3DCaveat;fontSize=24;fillColor=#CC6600;strokeColor=#CC6600;strokeWidth=2;gradientColor=none;" parent="1" vertex="1">
          <mxGeometry x="793.5" y="-287.5" width="25" height="25" as="geometry" />
        </mxCell>
        <mxCell id="_H5qRs6Hh-SQ7Uu5_9nw-116" value="" style="ellipse;whiteSpace=wrap;html=1;aspect=fixed;labelBackgroundColor=none;sketch=1;fillStyle=solid;fontFamily=Caveat;fontSource=https%3A%2F%2Ffonts.googleapis.com%2Fcss%3Ffamily%3DCaveat;fontSize=24;fillColor=#CC6600;strokeColor=#CC6600;strokeWidth=2;gradientColor=none;" parent="1" vertex="1">
          <mxGeometry x="1071.5" y="-422.5" width="25" height="25" as="geometry" />
        </mxCell>
        <mxCell id="_H5qRs6Hh-SQ7Uu5_9nw-117" value="" style="ellipse;whiteSpace=wrap;html=1;aspect=fixed;labelBackgroundColor=none;sketch=1;fillStyle=solid;fontFamily=Caveat;fontSource=https%3A%2F%2Ffonts.googleapis.com%2Fcss%3Ffamily%3DCaveat;fontSize=24;fillColor=#CC6600;strokeColor=#CC6600;strokeWidth=2;gradientColor=none;" parent="1" vertex="1">
          <mxGeometry x="1071.5" y="-287.5" width="25" height="25" as="geometry" />
        </mxCell>
        <mxCell id="_H5qRs6Hh-SQ7Uu5_9nw-118" value="" style="endArrow=none;html=1;rounded=0;sketch=1;strokeColor=#CC6600;strokeWidth=3;fontFamily=Caveat;fontSource=https%3A%2F%2Ffonts.googleapis.com%2Fcss%3Ffamily%3DCaveat;fontSize=24;exitX=0.375;exitY=1;exitDx=0;exitDy=0;entryX=1;entryY=0;entryDx=0;entryDy=0;" parent="1" source="_H5qRs6Hh-SQ7Uu5_9nw-99" target="_H5qRs6Hh-SQ7Uu5_9nw-120" edge="1">
          <mxGeometry width="50" height="50" relative="1" as="geometry">
            <mxPoint x="893.5" y="-232.5" as="sourcePoint" />
            <mxPoint x="883.5" y="-222.5" as="targetPoint" />
          </mxGeometry>
        </mxCell>
        <mxCell id="_H5qRs6Hh-SQ7Uu5_9nw-119" value="" style="endArrow=none;html=1;rounded=0;sketch=1;strokeColor=#CC6600;strokeWidth=3;fontFamily=Caveat;fontSource=https%3A%2F%2Ffonts.googleapis.com%2Fcss%3Ffamily%3DCaveat;fontSize=24;exitX=0.625;exitY=1;exitDx=0;exitDy=0;entryX=0;entryY=0;entryDx=0;entryDy=0;" parent="1" source="_H5qRs6Hh-SQ7Uu5_9nw-99" target="_H5qRs6Hh-SQ7Uu5_9nw-121" edge="1">
          <mxGeometry width="50" height="50" relative="1" as="geometry">
            <mxPoint x="928.5" y="-252.5" as="sourcePoint" />
            <mxPoint x="1003.5" y="-222.5" as="targetPoint" />
          </mxGeometry>
        </mxCell>
        <mxCell id="_H5qRs6Hh-SQ7Uu5_9nw-120" value="" style="ellipse;whiteSpace=wrap;html=1;aspect=fixed;labelBackgroundColor=none;sketch=1;fillStyle=solid;fontFamily=Caveat;fontSource=https%3A%2F%2Ffonts.googleapis.com%2Fcss%3Ffamily%3DCaveat;fontSize=24;fillColor=#CC6600;strokeColor=#CC6600;strokeWidth=2;gradientColor=none;" parent="1" vertex="1">
          <mxGeometry x="873.5" y="-232.5" width="25" height="25" as="geometry" />
        </mxCell>
        <mxCell id="_H5qRs6Hh-SQ7Uu5_9nw-121" value="" style="ellipse;whiteSpace=wrap;html=1;aspect=fixed;labelBackgroundColor=none;sketch=1;fillStyle=solid;fontFamily=Caveat;fontSource=https%3A%2F%2Ffonts.googleapis.com%2Fcss%3Ffamily%3DCaveat;fontSize=24;fillColor=#CC6600;strokeColor=#CC6600;strokeWidth=2;gradientColor=none;" parent="1" vertex="1">
          <mxGeometry x="983.5" y="-232.5" width="25" height="25" as="geometry" />
        </mxCell>
        <mxCell id="_H5qRs6Hh-SQ7Uu5_9nw-124" value="" style="group;strokeColor=none;" parent="1" connectable="0" vertex="1">
          <mxGeometry x="-80" y="30" width="25" height="90" as="geometry" />
        </mxCell>
        <mxCell id="_H5qRs6Hh-SQ7Uu5_9nw-125" value="" style="endArrow=none;html=1;rounded=1;sketch=1;strokeColor=#CC6600;strokeWidth=3;fontFamily=Helvetica;fontSize=22;fontColor=#994C00;align=center;verticalAlign=bottom;fontStyle=1;fillColor=#ffe6cc;" parent="_H5qRs6Hh-SQ7Uu5_9nw-124" target="_H5qRs6Hh-SQ7Uu5_9nw-126" edge="1">
          <mxGeometry width="50" height="50" relative="1" as="geometry">
            <mxPoint x="10" y="90" as="sourcePoint" />
            <mxPoint x="2" y="14" as="targetPoint" />
          </mxGeometry>
        </mxCell>
        <mxCell id="_H5qRs6Hh-SQ7Uu5_9nw-126" value="" style="ellipse;whiteSpace=wrap;html=1;aspect=fixed;labelBackgroundColor=none;sketch=1;fillStyle=solid;fontFamily=Helvetica;fontSize=22;fillColor=#FFCC99;strokeColor=#CC6600;strokeWidth=3;gradientColor=none;rounded=1;align=center;verticalAlign=bottom;fontColor=#994C00;fontStyle=1;container=0;" parent="_H5qRs6Hh-SQ7Uu5_9nw-124" vertex="1">
          <mxGeometry width="25" height="25" as="geometry" />
        </mxCell>
        <mxCell id="_H5qRs6Hh-SQ7Uu5_9nw-127" value="" style="group;strokeColor=none;" parent="1" connectable="0" vertex="1">
          <mxGeometry x="90" y="30" width="25" height="90" as="geometry" />
        </mxCell>
        <mxCell id="_H5qRs6Hh-SQ7Uu5_9nw-128" value="" style="endArrow=none;html=1;rounded=1;sketch=1;strokeColor=#CC6600;strokeWidth=3;fontFamily=Helvetica;fontSize=22;fontColor=#994C00;align=center;verticalAlign=bottom;fontStyle=1;fillColor=#ffe6cc;" parent="_H5qRs6Hh-SQ7Uu5_9nw-127" target="_H5qRs6Hh-SQ7Uu5_9nw-129" edge="1">
          <mxGeometry width="50" height="50" relative="1" as="geometry">
            <mxPoint x="10" y="90" as="sourcePoint" />
            <mxPoint x="2" y="14" as="targetPoint" />
          </mxGeometry>
        </mxCell>
        <mxCell id="_H5qRs6Hh-SQ7Uu5_9nw-129" value="" style="ellipse;whiteSpace=wrap;html=1;aspect=fixed;labelBackgroundColor=none;sketch=1;fillStyle=solid;fontFamily=Helvetica;fontSize=22;fillColor=#FFCC99;strokeColor=#CC6600;strokeWidth=3;gradientColor=none;rounded=1;align=center;verticalAlign=bottom;fontColor=#994C00;fontStyle=1;container=0;" parent="_H5qRs6Hh-SQ7Uu5_9nw-127" vertex="1">
          <mxGeometry width="25" height="25" as="geometry" />
        </mxCell>
        <mxCell id="_H5qRs6Hh-SQ7Uu5_9nw-130" value="" style="group" parent="1" connectable="0" vertex="1">
          <mxGeometry x="129" y="37" width="47" height="7" as="geometry" />
        </mxCell>
        <mxCell id="_H5qRs6Hh-SQ7Uu5_9nw-131" value="" style="ellipse;whiteSpace=wrap;html=1;aspect=fixed;labelBackgroundColor=none;fillStyle=solid;fontFamily=Helvetica;fontSize=22;fillColor=#FFCC99;strokeColor=#CC6600;strokeWidth=1;gradientColor=none;rounded=1;align=center;verticalAlign=bottom;fontColor=#994C00;fontStyle=1;container=0;" parent="_H5qRs6Hh-SQ7Uu5_9nw-130" vertex="1">
          <mxGeometry x="20" width="7" height="7" as="geometry" />
        </mxCell>
        <mxCell id="_H5qRs6Hh-SQ7Uu5_9nw-132" value="" style="ellipse;whiteSpace=wrap;html=1;aspect=fixed;labelBackgroundColor=none;fillStyle=solid;fontFamily=Helvetica;fontSize=22;fillColor=#FFCC99;strokeColor=#CC6600;strokeWidth=1;gradientColor=none;rounded=1;align=center;verticalAlign=bottom;fontColor=#994C00;fontStyle=1;container=0;" parent="_H5qRs6Hh-SQ7Uu5_9nw-130" vertex="1">
          <mxGeometry width="7" height="7" as="geometry" />
        </mxCell>
        <mxCell id="_H5qRs6Hh-SQ7Uu5_9nw-133" value="" style="ellipse;whiteSpace=wrap;html=1;aspect=fixed;labelBackgroundColor=none;fillStyle=solid;fontFamily=Helvetica;fontSize=22;fillColor=#FFCC99;strokeColor=#CC6600;strokeWidth=1;gradientColor=none;rounded=1;align=center;verticalAlign=bottom;fontColor=#994C00;fontStyle=1;container=0;" parent="_H5qRs6Hh-SQ7Uu5_9nw-130" vertex="1">
          <mxGeometry x="40" width="7" height="7" as="geometry" />
        </mxCell>
        <mxCell id="_H5qRs6Hh-SQ7Uu5_9nw-134" value="" style="group;strokeColor=none;" parent="1" connectable="0" vertex="1">
          <mxGeometry x="190" y="30" width="25" height="90" as="geometry" />
        </mxCell>
        <mxCell id="_H5qRs6Hh-SQ7Uu5_9nw-135" value="" style="endArrow=none;html=1;rounded=1;sketch=1;strokeColor=#CC6600;strokeWidth=3;fontFamily=Helvetica;fontSize=22;fontColor=#994C00;align=center;verticalAlign=bottom;fontStyle=1;fillColor=#ffe6cc;" parent="_H5qRs6Hh-SQ7Uu5_9nw-134" target="_H5qRs6Hh-SQ7Uu5_9nw-136" edge="1">
          <mxGeometry width="50" height="50" relative="1" as="geometry">
            <mxPoint x="10" y="90" as="sourcePoint" />
            <mxPoint x="2" y="14" as="targetPoint" />
          </mxGeometry>
        </mxCell>
        <mxCell id="_H5qRs6Hh-SQ7Uu5_9nw-136" value="" style="ellipse;whiteSpace=wrap;html=1;aspect=fixed;labelBackgroundColor=none;sketch=1;fillStyle=solid;fontFamily=Helvetica;fontSize=22;fillColor=#FFCC99;strokeColor=#CC6600;strokeWidth=3;gradientColor=none;rounded=1;align=center;verticalAlign=bottom;fontColor=#994C00;fontStyle=1;container=0;" parent="_H5qRs6Hh-SQ7Uu5_9nw-134" vertex="1">
          <mxGeometry width="25" height="25" as="geometry" />
        </mxCell>
        <mxCell id="_H5qRs6Hh-SQ7Uu5_9nw-137" value="" style="group;strokeColor=none;" parent="1" connectable="0" vertex="1">
          <mxGeometry x="360" y="30" width="25" height="90" as="geometry" />
        </mxCell>
        <mxCell id="_H5qRs6Hh-SQ7Uu5_9nw-138" value="" style="endArrow=none;html=1;rounded=1;sketch=1;strokeColor=#CC6600;strokeWidth=3;fontFamily=Helvetica;fontSize=22;fontColor=#994C00;align=center;verticalAlign=bottom;fontStyle=1;fillColor=#ffe6cc;" parent="_H5qRs6Hh-SQ7Uu5_9nw-137" target="_H5qRs6Hh-SQ7Uu5_9nw-139" edge="1">
          <mxGeometry width="50" height="50" relative="1" as="geometry">
            <mxPoint x="10" y="90" as="sourcePoint" />
            <mxPoint x="2" y="14" as="targetPoint" />
          </mxGeometry>
        </mxCell>
        <mxCell id="_H5qRs6Hh-SQ7Uu5_9nw-139" value="" style="ellipse;whiteSpace=wrap;html=1;aspect=fixed;labelBackgroundColor=none;sketch=1;fillStyle=solid;fontFamily=Helvetica;fontSize=22;fillColor=#FFCC99;strokeColor=#CC6600;strokeWidth=3;gradientColor=none;rounded=1;align=center;verticalAlign=bottom;fontColor=#994C00;fontStyle=1;container=0;" parent="_H5qRs6Hh-SQ7Uu5_9nw-137" vertex="1">
          <mxGeometry width="25" height="25" as="geometry" />
        </mxCell>
        <mxCell id="_H5qRs6Hh-SQ7Uu5_9nw-140" value="" style="group" parent="1" connectable="0" vertex="1">
          <mxGeometry x="399" y="37" width="47" height="7" as="geometry" />
        </mxCell>
        <mxCell id="_H5qRs6Hh-SQ7Uu5_9nw-141" value="" style="ellipse;whiteSpace=wrap;html=1;aspect=fixed;labelBackgroundColor=none;fillStyle=solid;fontFamily=Helvetica;fontSize=22;fillColor=#FFCC99;strokeColor=#CC6600;strokeWidth=1;gradientColor=none;rounded=1;align=center;verticalAlign=bottom;fontColor=#994C00;fontStyle=1;container=0;" parent="_H5qRs6Hh-SQ7Uu5_9nw-140" vertex="1">
          <mxGeometry x="20" width="7" height="7" as="geometry" />
        </mxCell>
        <mxCell id="_H5qRs6Hh-SQ7Uu5_9nw-142" value="" style="ellipse;whiteSpace=wrap;html=1;aspect=fixed;labelBackgroundColor=none;fillStyle=solid;fontFamily=Helvetica;fontSize=22;fillColor=#FFCC99;strokeColor=#CC6600;strokeWidth=1;gradientColor=none;rounded=1;align=center;verticalAlign=bottom;fontColor=#994C00;fontStyle=1;container=0;" parent="_H5qRs6Hh-SQ7Uu5_9nw-140" vertex="1">
          <mxGeometry width="7" height="7" as="geometry" />
        </mxCell>
        <mxCell id="_H5qRs6Hh-SQ7Uu5_9nw-143" value="" style="ellipse;whiteSpace=wrap;html=1;aspect=fixed;labelBackgroundColor=none;fillStyle=solid;fontFamily=Helvetica;fontSize=22;fillColor=#FFCC99;strokeColor=#CC6600;strokeWidth=1;gradientColor=none;rounded=1;align=center;verticalAlign=bottom;fontColor=#994C00;fontStyle=1;container=0;" parent="_H5qRs6Hh-SQ7Uu5_9nw-140" vertex="1">
          <mxGeometry x="40" width="7" height="7" as="geometry" />
        </mxCell>
        <mxCell id="_H5qRs6Hh-SQ7Uu5_9nw-144" value="" style="group;strokeColor=none;" parent="1" connectable="0" vertex="1">
          <mxGeometry x="460" y="30" width="25" height="90" as="geometry" />
        </mxCell>
        <mxCell id="_H5qRs6Hh-SQ7Uu5_9nw-145" value="" style="endArrow=none;html=1;rounded=1;sketch=1;strokeColor=#CC6600;strokeWidth=3;fontFamily=Helvetica;fontSize=22;fontColor=#994C00;align=center;verticalAlign=bottom;fontStyle=1;fillColor=#ffe6cc;" parent="_H5qRs6Hh-SQ7Uu5_9nw-144" target="_H5qRs6Hh-SQ7Uu5_9nw-146" edge="1">
          <mxGeometry width="50" height="50" relative="1" as="geometry">
            <mxPoint x="10" y="90" as="sourcePoint" />
            <mxPoint x="2" y="14" as="targetPoint" />
          </mxGeometry>
        </mxCell>
        <mxCell id="_H5qRs6Hh-SQ7Uu5_9nw-146" value="" style="ellipse;whiteSpace=wrap;html=1;aspect=fixed;labelBackgroundColor=none;sketch=1;fillStyle=solid;fontFamily=Helvetica;fontSize=22;fillColor=#FFCC99;strokeColor=#CC6600;strokeWidth=3;gradientColor=none;rounded=1;align=center;verticalAlign=bottom;fontColor=#994C00;fontStyle=1;container=0;" parent="_H5qRs6Hh-SQ7Uu5_9nw-144" vertex="1">
          <mxGeometry width="25" height="25" as="geometry" />
        </mxCell>
        <mxCell id="_H5qRs6Hh-SQ7Uu5_9nw-147" value="" style="group;strokeColor=none;" parent="1" connectable="0" vertex="1">
          <mxGeometry x="630" y="30" width="25" height="90" as="geometry" />
        </mxCell>
        <mxCell id="_H5qRs6Hh-SQ7Uu5_9nw-148" value="" style="endArrow=none;html=1;rounded=1;sketch=1;strokeColor=#CC6600;strokeWidth=3;fontFamily=Helvetica;fontSize=22;fontColor=#994C00;align=center;verticalAlign=bottom;fontStyle=1;fillColor=#ffe6cc;" parent="_H5qRs6Hh-SQ7Uu5_9nw-147" target="_H5qRs6Hh-SQ7Uu5_9nw-149" edge="1">
          <mxGeometry width="50" height="50" relative="1" as="geometry">
            <mxPoint x="10" y="90" as="sourcePoint" />
            <mxPoint x="2" y="14" as="targetPoint" />
          </mxGeometry>
        </mxCell>
        <mxCell id="_H5qRs6Hh-SQ7Uu5_9nw-149" value="" style="ellipse;whiteSpace=wrap;html=1;aspect=fixed;labelBackgroundColor=none;sketch=1;fillStyle=solid;fontFamily=Helvetica;fontSize=22;fillColor=#FFCC99;strokeColor=#CC6600;strokeWidth=3;gradientColor=none;rounded=1;align=center;verticalAlign=bottom;fontColor=#994C00;fontStyle=1;container=0;" parent="_H5qRs6Hh-SQ7Uu5_9nw-147" vertex="1">
          <mxGeometry width="25" height="25" as="geometry" />
        </mxCell>
        <mxCell id="_H5qRs6Hh-SQ7Uu5_9nw-150" value="" style="group" parent="1" connectable="0" vertex="1">
          <mxGeometry x="669" y="37" width="47" height="7" as="geometry" />
        </mxCell>
        <mxCell id="_H5qRs6Hh-SQ7Uu5_9nw-151" value="" style="ellipse;whiteSpace=wrap;html=1;aspect=fixed;labelBackgroundColor=none;fillStyle=solid;fontFamily=Helvetica;fontSize=22;fillColor=#FFCC99;strokeColor=#CC6600;strokeWidth=1;gradientColor=none;rounded=1;align=center;verticalAlign=bottom;fontColor=#994C00;fontStyle=1;container=0;" parent="_H5qRs6Hh-SQ7Uu5_9nw-150" vertex="1">
          <mxGeometry x="20" width="7" height="7" as="geometry" />
        </mxCell>
        <mxCell id="_H5qRs6Hh-SQ7Uu5_9nw-152" value="" style="ellipse;whiteSpace=wrap;html=1;aspect=fixed;labelBackgroundColor=none;fillStyle=solid;fontFamily=Helvetica;fontSize=22;fillColor=#FFCC99;strokeColor=#CC6600;strokeWidth=1;gradientColor=none;rounded=1;align=center;verticalAlign=bottom;fontColor=#994C00;fontStyle=1;container=0;" parent="_H5qRs6Hh-SQ7Uu5_9nw-150" vertex="1">
          <mxGeometry width="7" height="7" as="geometry" />
        </mxCell>
        <mxCell id="_H5qRs6Hh-SQ7Uu5_9nw-153" value="" style="ellipse;whiteSpace=wrap;html=1;aspect=fixed;labelBackgroundColor=none;fillStyle=solid;fontFamily=Helvetica;fontSize=22;fillColor=#FFCC99;strokeColor=#CC6600;strokeWidth=1;gradientColor=none;rounded=1;align=center;verticalAlign=bottom;fontColor=#994C00;fontStyle=1;container=0;" parent="_H5qRs6Hh-SQ7Uu5_9nw-150" vertex="1">
          <mxGeometry x="40" width="7" height="7" as="geometry" />
        </mxCell>
        <mxCell id="_H5qRs6Hh-SQ7Uu5_9nw-154" value="" style="group;strokeColor=none;" parent="1" connectable="0" vertex="1">
          <mxGeometry x="730" y="30" width="25" height="90" as="geometry" />
        </mxCell>
        <mxCell id="_H5qRs6Hh-SQ7Uu5_9nw-155" value="" style="endArrow=none;html=1;rounded=1;sketch=1;strokeColor=#CC6600;strokeWidth=3;fontFamily=Helvetica;fontSize=22;fontColor=#994C00;align=center;verticalAlign=bottom;fontStyle=1;fillColor=#ffe6cc;" parent="_H5qRs6Hh-SQ7Uu5_9nw-154" target="_H5qRs6Hh-SQ7Uu5_9nw-156" edge="1">
          <mxGeometry width="50" height="50" relative="1" as="geometry">
            <mxPoint x="10" y="90" as="sourcePoint" />
            <mxPoint x="2" y="14" as="targetPoint" />
          </mxGeometry>
        </mxCell>
        <mxCell id="_H5qRs6Hh-SQ7Uu5_9nw-156" value="" style="ellipse;whiteSpace=wrap;html=1;aspect=fixed;labelBackgroundColor=none;sketch=1;fillStyle=solid;fontFamily=Helvetica;fontSize=22;fillColor=#FFCC99;strokeColor=#CC6600;strokeWidth=3;gradientColor=none;rounded=1;align=center;verticalAlign=bottom;fontColor=#994C00;fontStyle=1;container=0;" parent="_H5qRs6Hh-SQ7Uu5_9nw-154" vertex="1">
          <mxGeometry width="25" height="25" as="geometry" />
        </mxCell>
        <mxCell id="_H5qRs6Hh-SQ7Uu5_9nw-157" value="" style="group;strokeColor=none;" parent="1" connectable="0" vertex="1">
          <mxGeometry x="900" y="30" width="25" height="90" as="geometry" />
        </mxCell>
        <mxCell id="_H5qRs6Hh-SQ7Uu5_9nw-158" value="" style="endArrow=none;html=1;rounded=1;sketch=1;strokeColor=#CC6600;strokeWidth=3;fontFamily=Helvetica;fontSize=22;fontColor=#994C00;align=center;verticalAlign=bottom;fontStyle=1;fillColor=#ffe6cc;" parent="_H5qRs6Hh-SQ7Uu5_9nw-157" target="_H5qRs6Hh-SQ7Uu5_9nw-159" edge="1">
          <mxGeometry width="50" height="50" relative="1" as="geometry">
            <mxPoint x="10" y="90" as="sourcePoint" />
            <mxPoint x="2" y="14" as="targetPoint" />
          </mxGeometry>
        </mxCell>
        <mxCell id="_H5qRs6Hh-SQ7Uu5_9nw-159" value="" style="ellipse;whiteSpace=wrap;html=1;aspect=fixed;labelBackgroundColor=none;sketch=1;fillStyle=solid;fontFamily=Helvetica;fontSize=22;fillColor=#FFCC99;strokeColor=#CC6600;strokeWidth=3;gradientColor=none;rounded=1;align=center;verticalAlign=bottom;fontColor=#994C00;fontStyle=1;container=0;" parent="_H5qRs6Hh-SQ7Uu5_9nw-157" vertex="1">
          <mxGeometry width="25" height="25" as="geometry" />
        </mxCell>
        <mxCell id="_H5qRs6Hh-SQ7Uu5_9nw-160" value="" style="group" parent="1" connectable="0" vertex="1">
          <mxGeometry x="939" y="37" width="47" height="7" as="geometry" />
        </mxCell>
        <mxCell id="_H5qRs6Hh-SQ7Uu5_9nw-161" value="" style="ellipse;whiteSpace=wrap;html=1;aspect=fixed;labelBackgroundColor=none;fillStyle=solid;fontFamily=Helvetica;fontSize=22;fillColor=#FFCC99;strokeColor=#CC6600;strokeWidth=1;gradientColor=none;rounded=1;align=center;verticalAlign=bottom;fontColor=#994C00;fontStyle=1;container=0;" parent="_H5qRs6Hh-SQ7Uu5_9nw-160" vertex="1">
          <mxGeometry x="20" width="7" height="7" as="geometry" />
        </mxCell>
        <mxCell id="_H5qRs6Hh-SQ7Uu5_9nw-162" value="" style="ellipse;whiteSpace=wrap;html=1;aspect=fixed;labelBackgroundColor=none;fillStyle=solid;fontFamily=Helvetica;fontSize=22;fillColor=#FFCC99;strokeColor=#CC6600;strokeWidth=1;gradientColor=none;rounded=1;align=center;verticalAlign=bottom;fontColor=#994C00;fontStyle=1;container=0;" parent="_H5qRs6Hh-SQ7Uu5_9nw-160" vertex="1">
          <mxGeometry width="7" height="7" as="geometry" />
        </mxCell>
        <mxCell id="_H5qRs6Hh-SQ7Uu5_9nw-163" value="" style="ellipse;whiteSpace=wrap;html=1;aspect=fixed;labelBackgroundColor=none;fillStyle=solid;fontFamily=Helvetica;fontSize=22;fillColor=#FFCC99;strokeColor=#CC6600;strokeWidth=1;gradientColor=none;rounded=1;align=center;verticalAlign=bottom;fontColor=#994C00;fontStyle=1;container=0;" parent="_H5qRs6Hh-SQ7Uu5_9nw-160" vertex="1">
          <mxGeometry x="40" width="7" height="7" as="geometry" />
        </mxCell>
        <mxCell id="_H5qRs6Hh-SQ7Uu5_9nw-164" value="" style="group;strokeColor=none;" parent="1" connectable="0" vertex="1">
          <mxGeometry x="1000" y="30" width="25" height="90" as="geometry" />
        </mxCell>
        <mxCell id="_H5qRs6Hh-SQ7Uu5_9nw-165" value="" style="endArrow=none;html=1;rounded=1;sketch=1;strokeColor=#CC6600;strokeWidth=3;fontFamily=Helvetica;fontSize=22;fontColor=#994C00;align=center;verticalAlign=bottom;fontStyle=1;fillColor=#ffe6cc;" parent="_H5qRs6Hh-SQ7Uu5_9nw-164" target="_H5qRs6Hh-SQ7Uu5_9nw-166" edge="1">
          <mxGeometry width="50" height="50" relative="1" as="geometry">
            <mxPoint x="10" y="90" as="sourcePoint" />
            <mxPoint x="2" y="14" as="targetPoint" />
          </mxGeometry>
        </mxCell>
        <mxCell id="_H5qRs6Hh-SQ7Uu5_9nw-166" value="" style="ellipse;whiteSpace=wrap;html=1;aspect=fixed;labelBackgroundColor=none;sketch=1;fillStyle=solid;fontFamily=Helvetica;fontSize=22;fillColor=#FFCC99;strokeColor=#CC6600;strokeWidth=3;gradientColor=none;rounded=1;align=center;verticalAlign=bottom;fontColor=#994C00;fontStyle=1;container=0;" parent="_H5qRs6Hh-SQ7Uu5_9nw-164" vertex="1">
          <mxGeometry width="25" height="25" as="geometry" />
        </mxCell>
        <mxCell id="_H5qRs6Hh-SQ7Uu5_9nw-167" value="&lt;font style=&quot;font-size: 36px;&quot; face=&quot;Caveat&quot; data-font-src=&quot;https://fonts.googleapis.com/css?family=Caveat&quot;&gt;&lt;b style=&quot;font-size: 36px;&quot;&gt;Data Product Instances&lt;/b&gt;&lt;/font&gt;" style="text;html=1;strokeColor=none;fillColor=none;align=center;verticalAlign=middle;whiteSpace=wrap;rounded=0;labelBackgroundColor=none;sketch=0;fillStyle=auto;fontSize=36;fontFamily=Helvetica;fontColor=#4D4D4D;" parent="1" vertex="1">
          <mxGeometry x="785" y="-590" width="320" height="55" as="geometry" />
        </mxCell>
        <mxCell id="_H5qRs6Hh-SQ7Uu5_9nw-168" style="edgeStyle=orthogonalEdgeStyle;curved=1;rounded=0;sketch=1;orthogonalLoop=1;jettySize=auto;html=1;entryX=0.25;entryY=1;entryDx=0;entryDy=0;strokeColor=#CC6600;strokeWidth=1;fontFamily=Helvetica;fontSize=21;fontColor=#808080;dashed=1;fillColor=#f5f5f5;endArrow=block;endFill=1;exitX=1;exitY=0.5;exitDx=0;exitDy=0;endSize=10;curveFitting=1;jiggle=2;" parent="1" source="_H5qRs6Hh-SQ7Uu5_9nw-19" target="_H5qRs6Hh-SQ7Uu5_9nw-122" edge="1">
          <mxGeometry relative="1" as="geometry">
            <Array as="points">
              <mxPoint x="-100" y="43" />
              <mxPoint x="-100" y="-60" />
              <mxPoint x="858" y="-60" />
              <mxPoint x="858" y="-163" />
            </Array>
            <mxPoint x="371.2499999999468" y="52.5" as="targetPoint" />
            <mxPoint x="-110" y="-250" as="sourcePoint" />
          </mxGeometry>
        </mxCell>
        <mxCell id="_H5qRs6Hh-SQ7Uu5_9nw-169" style="edgeStyle=orthogonalEdgeStyle;curved=1;rounded=0;sketch=1;orthogonalLoop=1;jettySize=auto;html=1;entryX=0.75;entryY=1;entryDx=0;entryDy=0;strokeColor=#CC6600;strokeWidth=1;fontFamily=Helvetica;fontSize=21;fontColor=#808080;dashed=1;fillColor=#f5f5f5;endArrow=block;endFill=1;exitX=1;exitY=0.5;exitDx=0;exitDy=0;endSize=10;curveFitting=1;jiggle=2;" parent="1" source="_H5qRs6Hh-SQ7Uu5_9nw-156" target="_H5qRs6Hh-SQ7Uu5_9nw-122" edge="1">
          <mxGeometry relative="1" as="geometry">
            <Array as="points">
              <mxPoint x="820" y="43" />
              <mxPoint x="820" y="-40" />
              <mxPoint x="1033" y="-40" />
              <mxPoint x="1033" y="-163" />
            </Array>
            <mxPoint x="836" y="-152" as="targetPoint" />
            <mxPoint x="495" y="53" as="sourcePoint" />
          </mxGeometry>
        </mxCell>
        <mxCell id="_H5qRs6Hh-SQ7Uu5_9nw-170" value="&lt;font color=&quot;#cc6600&quot; face=&quot;Caveat&quot; style=&quot;font-size: 30px;&quot;&gt;Adapters&lt;/font&gt;" style="rounded=1;whiteSpace=wrap;html=1;fillColor=#FFCC99;strokeColor=#CC6600;fontSize=30;fontStyle=1;verticalAlign=bottom;fontColor=#CC6600;strokeWidth=3;align=center;fontFamily=Helvetica;sketch=1;fillStyle=solid;" parent="1" vertex="1">
          <mxGeometry x="-80" y="530" width="1280" height="270" as="geometry" />
        </mxCell>
        <mxCell id="_H5qRs6Hh-SQ7Uu5_9nw-171" value="&lt;font style=&quot;font-size: 24px;&quot;&gt;Blindata Observer&lt;br style=&quot;font-size: 24px;&quot;&gt;&lt;/font&gt;" style="rounded=1;whiteSpace=wrap;html=1;fontFamily=Caveat;fontSize=24;fillColor=#FF8000;strokeColor=#CC6600;sketch=1;curveFitting=1;jiggle=2;fontColor=#4D4D4D;fontStyle=1;align=center;verticalAlign=middle;fillStyle=hachure;labelBorderColor=none;rotation=-90;" parent="1" vertex="1">
          <mxGeometry x="430" y="630" width="200" height="50" as="geometry" />
        </mxCell>
        <mxCell id="_H5qRs6Hh-SQ7Uu5_9nw-182" value="&lt;div style=&quot;font-size: 24px;&quot;&gt;OPA Validator&lt;/div&gt;" style="rounded=1;whiteSpace=wrap;html=1;fontFamily=Caveat;fontSize=24;fillColor=#FF8000;strokeColor=#CC6600;sketch=1;curveFitting=1;jiggle=2;fontColor=#4D4D4D;fontStyle=1;align=center;verticalAlign=middle;fillStyle=hachure;labelBorderColor=none;rotation=-90;" parent="1" vertex="1">
          <mxGeometry x="940" y="630" width="200" height="50" as="geometry" />
        </mxCell>
        <mxCell id="_H5qRs6Hh-SQ7Uu5_9nw-187" value="&lt;div style=&quot;font-size: 24px;&quot;&gt;Azure DevOps Executor&lt;br style=&quot;font-size: 24px;&quot;&gt;&lt;/div&gt;" style="rounded=1;whiteSpace=wrap;html=1;fontFamily=Caveat;fontSize=24;fillColor=#FF8000;strokeColor=#CC6600;sketch=1;curveFitting=1;jiggle=2;fontColor=#4D4D4D;fontStyle=1;align=center;verticalAlign=middle;fillStyle=hachure;labelBorderColor=none;rotation=-90;" parent="1" vertex="1">
          <mxGeometry x="-90.91000000000008" y="630" width="200" height="50" as="geometry" />
        </mxCell>
        <mxCell id="_H5qRs6Hh-SQ7Uu5_9nw-188" value="" style="group" parent="1" connectable="0" vertex="1">
          <mxGeometry x="580" y="650" width="47" height="7" as="geometry" />
        </mxCell>
        <mxCell id="_H5qRs6Hh-SQ7Uu5_9nw-189" value="" style="ellipse;whiteSpace=wrap;html=1;aspect=fixed;labelBackgroundColor=none;fillStyle=solid;fontFamily=Helvetica;fontSize=22;fillColor=#FFCC99;strokeColor=#CC6600;strokeWidth=1;gradientColor=none;rounded=1;align=center;verticalAlign=bottom;fontColor=#994C00;fontStyle=1;container=0;" parent="_H5qRs6Hh-SQ7Uu5_9nw-188" vertex="1">
          <mxGeometry x="20" width="7" height="7" as="geometry" />
        </mxCell>
        <mxCell id="_H5qRs6Hh-SQ7Uu5_9nw-190" value="" style="ellipse;whiteSpace=wrap;html=1;aspect=fixed;labelBackgroundColor=none;fillStyle=solid;fontFamily=Helvetica;fontSize=22;fillColor=#FFCC99;strokeColor=#CC6600;strokeWidth=1;gradientColor=none;rounded=1;align=center;verticalAlign=bottom;fontColor=#994C00;fontStyle=1;container=0;" parent="_H5qRs6Hh-SQ7Uu5_9nw-188" vertex="1">
          <mxGeometry width="7" height="7" as="geometry" />
        </mxCell>
        <mxCell id="_H5qRs6Hh-SQ7Uu5_9nw-191" value="" style="ellipse;whiteSpace=wrap;html=1;aspect=fixed;labelBackgroundColor=none;fillStyle=solid;fontFamily=Helvetica;fontSize=22;fillColor=#FFCC99;strokeColor=#CC6600;strokeWidth=1;gradientColor=none;rounded=1;align=center;verticalAlign=bottom;fontColor=#994C00;fontStyle=1;container=0;" parent="_H5qRs6Hh-SQ7Uu5_9nw-188" vertex="1">
          <mxGeometry x="40" width="7" height="7" as="geometry" />
        </mxCell>
        <mxCell id="_H5qRs6Hh-SQ7Uu5_9nw-192" value="" style="endArrow=classic;startArrow=classic;html=1;rounded=0;strokeColor=#4D4D4D;sketch=1;curveFitting=1;jiggle=2;strokeWidth=2;endSize=10;" parent="1" edge="1">
          <mxGeometry width="50" height="50" relative="1" as="geometry">
            <mxPoint x="160" y="370" as="sourcePoint" />
            <mxPoint x="160" y="270" as="targetPoint" />
          </mxGeometry>
        </mxCell>
        <mxCell id="Qyi5YlX9hriFuWL8URNZ-1" value="" style="endArrow=classic;startArrow=classic;html=1;rounded=0;strokeColor=#4D4D4D;sketch=1;curveFitting=1;jiggle=2;strokeWidth=2;endSize=10;" edge="1" parent="1">
          <mxGeometry width="50" height="50" relative="1" as="geometry">
            <mxPoint x="960" y="370" as="sourcePoint" />
            <mxPoint x="960" y="270" as="targetPoint" />
          </mxGeometry>
        </mxCell>
        <mxCell id="Qyi5YlX9hriFuWL8URNZ-2" value="" style="endArrow=classic;startArrow=classic;html=1;rounded=0;strokeColor=#4D4D4D;sketch=1;curveFitting=1;jiggle=2;strokeWidth=2;endSize=10;" edge="1" parent="1">
          <mxGeometry width="50" height="50" relative="1" as="geometry">
            <mxPoint x="160" y="980" as="sourcePoint" />
            <mxPoint x="160" y="880" as="targetPoint" />
          </mxGeometry>
        </mxCell>
        <mxCell id="Qyi5YlX9hriFuWL8URNZ-3" value="" style="endArrow=classic;startArrow=classic;html=1;rounded=0;strokeColor=#4D4D4D;sketch=1;curveFitting=1;jiggle=2;strokeWidth=2;endSize=10;" edge="1" parent="1">
          <mxGeometry width="50" height="50" relative="1" as="geometry">
            <mxPoint x="960" y="980" as="sourcePoint" />
            <mxPoint x="960" y="880" as="targetPoint" />
          </mxGeometry>
        </mxCell>
        <mxCell id="eXG3pFXMzSHKzGV-dv19-1" value="Params" style="rounded=1;whiteSpace=wrap;html=1;fontFamily=Caveat;fontSize=30;fillColor=#FF8000;strokeColor=#CC6600;sketch=1;curveFitting=1;jiggle=2;fontColor=#4D4D4D;fontStyle=1;fillStyle=hachure;align=center;verticalAlign=middle;labelBorderColor=none;" vertex="1" parent="1">
          <mxGeometry x="1150" y="120" width="160" height="80" as="geometry" />
        </mxCell>
        <mxCell id="eXG3pFXMzSHKzGV-dv19-2" value="&lt;font color=&quot;#4d4d4d&quot; style=&quot;font-size: 30px;&quot; data-font-src=&quot;https://fonts.googleapis.com/css?family=Caveat&quot; face=&quot;Caveat&quot;&gt;&lt;b style=&quot;font-size: 30px;&quot;&gt;/create&lt;/b&gt;&lt;/font&gt;" style="text;html=1;strokeColor=none;fillColor=none;align=center;verticalAlign=middle;whiteSpace=wrap;rounded=0;labelBackgroundColor=none;sketch=0;fillStyle=auto;fontSize=30;" vertex="1" parent="1">
          <mxGeometry x="1140" y="-10" width="87.5" height="30" as="geometry" />
        </mxCell>
        <mxCell id="eXG3pFXMzSHKzGV-dv19-3" value="&lt;font color=&quot;#4d4d4d&quot; style=&quot;font-size: 30px;&quot; data-font-src=&quot;https://fonts.googleapis.com/css?family=Caveat&quot; face=&quot;Caveat&quot;&gt;&lt;b style=&quot;font-size: 30px;&quot;&gt;/update&lt;/b&gt;&lt;/font&gt;" style="text;html=1;strokeColor=none;fillColor=none;align=center;verticalAlign=middle;whiteSpace=wrap;rounded=0;labelBackgroundColor=none;sketch=0;fillStyle=auto;fontSize=30;" vertex="1" parent="1">
          <mxGeometry x="1240" y="-10" width="87.5" height="30" as="geometry" />
        </mxCell>
        <mxCell id="eXG3pFXMzSHKzGV-dv19-4" value="" style="group;strokeColor=none;" connectable="0" vertex="1" parent="1">
          <mxGeometry x="1170" y="30" width="25" height="90" as="geometry" />
        </mxCell>
        <mxCell id="eXG3pFXMzSHKzGV-dv19-5" value="" style="endArrow=none;html=1;rounded=1;sketch=1;strokeColor=#CC6600;strokeWidth=3;fontFamily=Helvetica;fontSize=22;fontColor=#994C00;align=center;verticalAlign=bottom;fontStyle=1;fillColor=#ffe6cc;" edge="1" parent="eXG3pFXMzSHKzGV-dv19-4" target="eXG3pFXMzSHKzGV-dv19-6">
          <mxGeometry width="50" height="50" relative="1" as="geometry">
            <mxPoint x="10" y="90" as="sourcePoint" />
            <mxPoint x="2" y="14" as="targetPoint" />
          </mxGeometry>
        </mxCell>
        <mxCell id="eXG3pFXMzSHKzGV-dv19-6" value="" style="ellipse;whiteSpace=wrap;html=1;aspect=fixed;labelBackgroundColor=none;sketch=1;fillStyle=solid;fontFamily=Helvetica;fontSize=22;fillColor=#FFCC99;strokeColor=#CC6600;strokeWidth=3;gradientColor=none;rounded=1;align=center;verticalAlign=bottom;fontColor=#994C00;fontStyle=1;container=0;" vertex="1" parent="eXG3pFXMzSHKzGV-dv19-4">
          <mxGeometry width="25" height="25" as="geometry" />
        </mxCell>
        <mxCell id="eXG3pFXMzSHKzGV-dv19-7" value="" style="group" connectable="0" vertex="1" parent="1">
          <mxGeometry x="1209" y="37" width="47" height="7" as="geometry" />
        </mxCell>
        <mxCell id="eXG3pFXMzSHKzGV-dv19-8" value="" style="ellipse;whiteSpace=wrap;html=1;aspect=fixed;labelBackgroundColor=none;fillStyle=solid;fontFamily=Helvetica;fontSize=22;fillColor=#FFCC99;strokeColor=#CC6600;strokeWidth=1;gradientColor=none;rounded=1;align=center;verticalAlign=bottom;fontColor=#994C00;fontStyle=1;container=0;" vertex="1" parent="eXG3pFXMzSHKzGV-dv19-7">
          <mxGeometry x="20" width="7" height="7" as="geometry" />
        </mxCell>
        <mxCell id="eXG3pFXMzSHKzGV-dv19-9" value="" style="ellipse;whiteSpace=wrap;html=1;aspect=fixed;labelBackgroundColor=none;fillStyle=solid;fontFamily=Helvetica;fontSize=22;fillColor=#FFCC99;strokeColor=#CC6600;strokeWidth=1;gradientColor=none;rounded=1;align=center;verticalAlign=bottom;fontColor=#994C00;fontStyle=1;container=0;" vertex="1" parent="eXG3pFXMzSHKzGV-dv19-7">
          <mxGeometry width="7" height="7" as="geometry" />
        </mxCell>
        <mxCell id="eXG3pFXMzSHKzGV-dv19-10" value="" style="ellipse;whiteSpace=wrap;html=1;aspect=fixed;labelBackgroundColor=none;fillStyle=solid;fontFamily=Helvetica;fontSize=22;fillColor=#FFCC99;strokeColor=#CC6600;strokeWidth=1;gradientColor=none;rounded=1;align=center;verticalAlign=bottom;fontColor=#994C00;fontStyle=1;container=0;" vertex="1" parent="eXG3pFXMzSHKzGV-dv19-7">
          <mxGeometry x="40" width="7" height="7" as="geometry" />
        </mxCell>
        <mxCell id="eXG3pFXMzSHKzGV-dv19-11" value="" style="group;strokeColor=none;" connectable="0" vertex="1" parent="1">
          <mxGeometry x="1270" y="30" width="25" height="90" as="geometry" />
        </mxCell>
        <mxCell id="eXG3pFXMzSHKzGV-dv19-12" value="" style="endArrow=none;html=1;rounded=1;sketch=1;strokeColor=#CC6600;strokeWidth=3;fontFamily=Helvetica;fontSize=22;fontColor=#994C00;align=center;verticalAlign=bottom;fontStyle=1;fillColor=#ffe6cc;" edge="1" parent="eXG3pFXMzSHKzGV-dv19-11" target="eXG3pFXMzSHKzGV-dv19-13">
          <mxGeometry width="50" height="50" relative="1" as="geometry">
            <mxPoint x="10" y="90" as="sourcePoint" />
            <mxPoint x="2" y="14" as="targetPoint" />
          </mxGeometry>
        </mxCell>
        <mxCell id="eXG3pFXMzSHKzGV-dv19-13" value="" style="ellipse;whiteSpace=wrap;html=1;aspect=fixed;labelBackgroundColor=none;sketch=1;fillStyle=solid;fontFamily=Helvetica;fontSize=22;fillColor=#FFCC99;strokeColor=#CC6600;strokeWidth=3;gradientColor=none;rounded=1;align=center;verticalAlign=bottom;fontColor=#994C00;fontStyle=1;container=0;" vertex="1" parent="eXG3pFXMzSHKzGV-dv19-11">
          <mxGeometry width="25" height="25" as="geometry" />
        </mxCell>
        <mxCell id="eXG3pFXMzSHKzGV-dv19-14" value="" style="group" connectable="0" vertex="1" parent="1">
          <mxGeometry x="1090" y="650" width="47" height="7" as="geometry" />
        </mxCell>
        <mxCell id="eXG3pFXMzSHKzGV-dv19-15" value="" style="ellipse;whiteSpace=wrap;html=1;aspect=fixed;labelBackgroundColor=none;fillStyle=solid;fontFamily=Helvetica;fontSize=22;fillColor=#FFCC99;strokeColor=#CC6600;strokeWidth=1;gradientColor=none;rounded=1;align=center;verticalAlign=bottom;fontColor=#994C00;fontStyle=1;container=0;" vertex="1" parent="eXG3pFXMzSHKzGV-dv19-14">
          <mxGeometry x="20" width="7" height="7" as="geometry" />
        </mxCell>
        <mxCell id="eXG3pFXMzSHKzGV-dv19-16" value="" style="ellipse;whiteSpace=wrap;html=1;aspect=fixed;labelBackgroundColor=none;fillStyle=solid;fontFamily=Helvetica;fontSize=22;fillColor=#FFCC99;strokeColor=#CC6600;strokeWidth=1;gradientColor=none;rounded=1;align=center;verticalAlign=bottom;fontColor=#994C00;fontStyle=1;container=0;" vertex="1" parent="eXG3pFXMzSHKzGV-dv19-14">
          <mxGeometry width="7" height="7" as="geometry" />
        </mxCell>
        <mxCell id="eXG3pFXMzSHKzGV-dv19-17" value="" style="ellipse;whiteSpace=wrap;html=1;aspect=fixed;labelBackgroundColor=none;fillStyle=solid;fontFamily=Helvetica;fontSize=22;fillColor=#FFCC99;strokeColor=#CC6600;strokeWidth=1;gradientColor=none;rounded=1;align=center;verticalAlign=bottom;fontColor=#994C00;fontStyle=1;container=0;" vertex="1" parent="eXG3pFXMzSHKzGV-dv19-14">
          <mxGeometry x="40" width="7" height="7" as="geometry" />
        </mxCell>
        <mxCell id="eXG3pFXMzSHKzGV-dv19-18" value="" style="group" connectable="0" vertex="1" parent="1">
          <mxGeometry x="60" y="650" width="47" height="7" as="geometry" />
        </mxCell>
        <mxCell id="eXG3pFXMzSHKzGV-dv19-19" value="" style="ellipse;whiteSpace=wrap;html=1;aspect=fixed;labelBackgroundColor=none;fillStyle=solid;fontFamily=Helvetica;fontSize=22;fillColor=#FFCC99;strokeColor=#CC6600;strokeWidth=1;gradientColor=none;rounded=1;align=center;verticalAlign=bottom;fontColor=#994C00;fontStyle=1;container=0;" vertex="1" parent="eXG3pFXMzSHKzGV-dv19-18">
          <mxGeometry x="20" width="7" height="7" as="geometry" />
        </mxCell>
        <mxCell id="eXG3pFXMzSHKzGV-dv19-20" value="" style="ellipse;whiteSpace=wrap;html=1;aspect=fixed;labelBackgroundColor=none;fillStyle=solid;fontFamily=Helvetica;fontSize=22;fillColor=#FFCC99;strokeColor=#CC6600;strokeWidth=1;gradientColor=none;rounded=1;align=center;verticalAlign=bottom;fontColor=#994C00;fontStyle=1;container=0;" vertex="1" parent="eXG3pFXMzSHKzGV-dv19-18">
          <mxGeometry width="7" height="7" as="geometry" />
        </mxCell>
        <mxCell id="eXG3pFXMzSHKzGV-dv19-21" value="" style="ellipse;whiteSpace=wrap;html=1;aspect=fixed;labelBackgroundColor=none;fillStyle=solid;fontFamily=Helvetica;fontSize=22;fillColor=#FFCC99;strokeColor=#CC6600;strokeWidth=1;gradientColor=none;rounded=1;align=center;verticalAlign=bottom;fontColor=#994C00;fontStyle=1;container=0;" vertex="1" parent="eXG3pFXMzSHKzGV-dv19-18">
          <mxGeometry x="40" width="7" height="7" as="geometry" />
        </mxCell>
      </root>
    </mxGraphModel>
  </diagram>
</mxfile>
